<?xml version="1.0" encoding="UTF-8" standalone="no"?>
<svg
   xmlns:dc="http://purl.org/dc/elements/1.1/"
   xmlns:cc="http://creativecommons.org/ns#"
   xmlns:rdf="http://www.w3.org/1999/02/22-rdf-syntax-ns#"
   xmlns:svg="http://www.w3.org/2000/svg"
   xmlns="http://www.w3.org/2000/svg"
   viewBox="0 0 1152 384"
   height="384"
   width="1152"
   xml:space="preserve"
   id="svg2"
   version="1.1"><metadata
     id="metadata8"><rdf:RDF><cc:Work
         rdf:about=""><dc:format>image/svg+xml</dc:format><dc:type
           rdf:resource="http://purl.org/dc/dcmitype/StillImage" /></cc:Work></rdf:RDF></metadata><defs
     id="defs6"><clipPath
       id="clipPath20"
       clipPathUnits="userSpaceOnUse"><path
         id="path18"
         d="M 13.32,13.32 H 850.68 V 274.68 H 13.32 Z" /></clipPath><clipPath
       id="clipPath30"
       clipPathUnits="userSpaceOnUse"><path
         id="path28"
         d="M 13.32,13.32 H 850.68 V 274.68 H 13.32 Z" /></clipPath><clipPath
       id="clipPath40"
       clipPathUnits="userSpaceOnUse"><path
         id="path38"
         d="M 13.32,13.32 H 850.68 V 274.68 H 13.32 Z" /></clipPath><clipPath
       id="clipPath50"
       clipPathUnits="userSpaceOnUse"><path
         id="path48"
         d="M 13.32,13.32 H 850.68 V 274.68 H 13.32 Z" /></clipPath></defs><g
     transform="matrix(1.3333333,0,0,-1.3333333,0,384)"
     id="g10"><path
       id="path12"
       style="fill:#ffffff;fill-opacity:1;fill-rule:nonzero;stroke:none"
       d="M 0,0 H 864 V 288 H 0 Z" /><g
       id="g14"><g
         clip-path="url(#clipPath20)"
         id="g16"><path
           id="path22"
           style="fill:none;stroke:#000000;stroke-width:3;stroke-linecap:butt;stroke-linejoin:round;stroke-miterlimit:10;stroke-dasharray:11.1, 4.8;stroke-dashoffset:0;stroke-opacity:1"
           d="m 51.381818,215.11394 2.979399,-2.5562 1.489699,-1.54905 8.938196,-10.93456 2.979399,-3.98822 2.979399,-3.50105 1.489699,-1.51527 1.489699,-1.72067 2.979399,-3.94185 1.489699,-2.22368 1.4897,-1.9741 1.489699,-2.19725 2.979399,-3.91087 1.489699,-2.21054 1.489699,-1.9382 10.427896,-15.34388 1.489699,-1.92358 1.489703,-2.18074 1.4897,-1.91094 1.4897,-1.63079 2.97939,-3.78622 1.4897,-2.15395 2.9794,-3.75207 1.4897,-2.12914 2.9794,-3.71412 2.9794,-4.22782 1.4897,-2.69622 1.4897,-2.10172 1.4897,-2.40506 1.4897,-2.08992 1.48969,-1.78696 7.4485,-10.66409 1.4897,-1.45228 2.9794,-3.43088 1.4897,-1.981507 1.4897,-2.284214 1.4897,-1.952707 1.4897,-2.3179 2.9794,-3.827904 1.48969,-1.622496 1.4897,-2.604023 1.4897,-0.499975 1.4897,1.522077 4.4691,6.322786 2.9794,3.376826 4.4691,5.838457 4.4691,5.25651 1.4897,1.50463 1.48969,1.76862 2.9794,3.21822 5.9588,7.10955 5.9588,5.08716 1.4897,0.5329 1.4897,-0.71191 1.4897,-0.90205 1.4897,-0.11144 1.48969,-0.24111 1.4897,-0.80014 1.4897,-1.1456 1.4897,-0.14482 1.4897,0.83091 1.4897,0.48847 1.4897,-0.23166 1.4897,-0.97059 1.4897,-0.55046 1.4897,-1.27538 2.9794,-3.857 2.9794,-2.89355 1.4897,-0.16187 1.4897,-0.28866 1.48969,-0.62193 1.4897,-0.42238 1.4897,-1.73221 1.4897,-1.46078 1.4897,-1.17766 1.4897,-1.48582 2.9794,-2.6479 4.4691,-4.687295 1.4897,-1.037259 1.4897,-0.621627 4.46909,0.03207 1.4897,-0.446299 1.4897,-0.307379 4.4691,-3.793893 1.4897,-0.859661 2.9794,2.298641 8.93819,9.032922 1.4897,1.34888 1.4897,1.10885 2.9794,1.29607 1.4897,-0.0703 1.4897,-0.31076 1.4897,-0.79728 1.4897,-0.25433 1.4897,-0.11876 1.4897,0.26416 1.4897,0.0114 1.4897,-0.32556 1.4897,-0.20967 1.4897,0.77891 5.95879,4.98866 2.9794,3.35259 1.4897,2.02595 1.4897,1.78234 1.4897,2.14428 5.9588,7.05423 7.44849,7.83554 1.4897,1.40229 1.4897,1.91861 2.9794,3.40833 2.9794,3.8218 2.9794,3.28992 1.4897,0.99133 1.4897,0.64878 1.4897,0.30325 1.4897,0.16536 1.4897,1.54048 1.48969,1.83424 1.4897,2.01525 2.9794,3.16135 1.4897,0.87841 1.4897,0.50657 1.4897,0.15339 1.4897,-0.009 2.9794,0.44408 1.4897,0.0658 2.9794,0.60828 1.4897,1.28283 1.4897,2.06474 1.48969,1.53275 1.4897,1.34499 1.4897,1.57757 1.4897,0.62776 1.4897,0.86547 1.4897,1.26665 2.9794,2.7526 1.4897,1.10523 1.4897,0.59986 1.4897,0.25046 1.4897,0.0469 2.9794,2.10553 1.4897,0.85031 1.48969,1.10291 2.9794,2.52227 1.4897,1.52195 1.4897,1.17452 1.4897,1.55588 1.4897,0.96767 2.9794,1.03388 1.4897,-0.0527 1.4897,0.3263 1.4897,1.6588 1.4897,1.06976 1.4897,1.33389 1.4897,0.74757 1.48969,0.31727 1.4897,-0.006 1.4897,-0.92228 2.9794,-2.51474 1.4897,-1.61544 2.9794,-2.57666 1.4897,-0.75965 2.9794,-2.89819 4.4691,-5.84856 2.9794,-4.65109 1.48969,-1.50576 1.4897,0.61438 1.4897,1.34224 1.4897,0.97769 1.4897,1.31606 1.4897,1.699 1.4897,1.97232 1.4897,1.71457 1.4897,2.30037 1.4897,1.72783 1.4897,1.38267 2.9794,1.62488 2.9794,1.10417 1.4897,-0.0169 2.97939,-0.47107 1.4897,-0.68806 1.4897,-0.38667 2.9794,-1.21308 1.4897,-0.83159 4.4691,-3.18561 1.4897,-0.75084 1.4897,-1.01251 1.4897,-1.26638 4.46909,-2.84452 4.4691,-3.59019 2.9794,-2.87853 4.4691,-5.22196 1.4897,-2.00471 2.9794,-4.65779 2.9794,-5.22091 1.48969,-1.38986 1.48971,-0.68312 2.97939,-0.752 2.9794,-1.16026 2.9794,-1.78713 1.4897,-0.89934 2.9794,-2.33584 2.9794,-2.85568 1.4897,-2.09367 2.97939,-5.14342 4.4691,-6.67234 1.4897,-1.80445 1.4897,-2.40554 2.9794,-3.95617 1.4897,-2.01716 1.4897,0.40404 8.9382,10.35433 1.48969,1.56679 1.4897,0.14975 1.4897,-0.54998 1.4897,-1.86245 2.9794,-4.85366 1.4897,-1.95238 1.4897,-1.4182 1.4897,-1.01508 1.4897,-0.75763 1.4897,-0.35263 1.4897,-0.91712 7.44849,-10.1455 1.4897,-1.8835 2.9794,-4.1399 2.9794,-3.758532 2.9794,-4.340714 1.4897,-2.207462 1.4897,-0.880543 1.4897,0.897427 4.4691,5.804116 1.4897,2.057336 1.4897,1.841162 2.97939,4.14831 1.4897,1.86517 1.4897,1.12428 1.4897,-0.17314 1.4897,-1.09108 1.4897,-1.23231 1.4897,-1.5649 1.4897,-1.76249 2.9794,-4.007473 2.9794,-3.570555 1.4897,-0.955673 2.97939,-0.699863 1.4897,-0.04455 1.4897,0.14083 2.9794,-0.547685 1.4897,-0.785095 2.9794,-3.38123 2.9794,-3.870401 1.4897,-1.902838 2.9794,-4.461065 2.97939,-3.632963 1.4897,-1.127762 1.4897,0.152072 1.4897,0.624515 1.4897,1.584731 1.4897,1.032665 7.4485,8.236997 1.4897,0.05938 1.4897,-1.212994 2.9794,-2.821119 1.48969,-1.638166 2.9794,-1.505548 1.4897,0.449487 1.4897,1.001596 1.4897,1.313144 2.9794,2.213863 2.9794,3.712521 1.4897,1.207758 1.4897,0.595339 1.4897,0.404314 1.4897,-0.0375 1.4897,1.128165 4.46909,4.627077 1.4897,1.09402 1.4897,0.919824 1.4897,0.261697 1.4897,0.923526 1.4897,1.349696 2.9794,3.499773 1.4897,1.69536 1.4897,0.92128 1.4897,-0.31643 1.4897,0.26178 1.4897,0.14121 1.48969,0.73222 1.4897,1.16132 1.4897,1.79115 4.4691,6.07173 1.4897,1.94193 2.9794,4.21606 2.9794,3.73084 1.4897,0.72321 h 1.4897 l 1.4897,-0.35118 1.4897,0.0777 1.4897,1.24276 11.91759,16.09696 1.4897,0.78966 1.4897,0.22707 1.4897,0.63168 1.4897,1.46991 2.9794,4.17149 1.48969,1.8863 1.4897,2.22642 2.9794,3.9936 1.4897,1.46902 1.4897,2.08654 2.9794,3.48416 1.4897,1.91437 7.4485,11.54877 1.4897,1.24506 2.9794,0.21585 1.48969,0.81055 1.4897,2.40973 1.4897,1.8122 2.9794,4.46906 1.4897,1.68566 2.9794,2.56779 1.4897,1.24931 2.9794,1.94527 1.4897,1.29904 2.9794,3.45401 1.48969,1.09043 2.9794,2.72448 2.9794,2.18164 1.4897,1.06725 1.4897,0.82821 1.4897,0.5007 1.4897,0.69182 1.4897,0.20005 1.4897,0.47925 1.4897,0.9115 1.4897,1.18512 5.95879,2.39998 1.4897,0.29187 1.4897,0.053 2.9794,-0.5087 v 0" /></g></g><g
       id="g24"><g
         clip-path="url(#clipPath30)"
         id="g26"><path
           id="path32"
           style="fill:none;stroke:#0000ff;stroke-width:6;stroke-linecap:square;stroke-linejoin:round;stroke-miterlimit:10;stroke-dasharray:none;stroke-opacity:1"
           d="m 571.28689,36.867465 1.4897,-0.596454 1.4897,-4.304375 1.4897,-2.423899 1.4897,4.240525 1.4897,23.325735 1.4897,80.039853 1.48969,22.56497 1.4897,-1.26159 1.4897,-15.11613 1.4897,-18.82621 1.4897,-51.944004 1.4897,-11.072736 1.4897,-8.009436 1.4897,-4.646066 1.4897,3.594547 1.4897,-0.659749 1.4897,-7.49054 1.4897,-5.574371 1.4897,-3.684768 1.4897,1.193434 1.4897,10.96798 1.48969,12.358207 1.4897,20.971699 1.4897,33.768323 1.4897,-13.64967 1.4897,-32.635349 1.4897,-7.01801 1.4897,-9.038884 1.4897,-10.072123 1.4897,-9.894362 1.4897,-6.905583 1.4897,-0.843004 1.4897,-4.296576 1.4897,-2.014697 1.48969,2.463402 1.4897,3.365543 1.4897,-0.139818 1.4897,4.174472 1.4897,25.99958 1.4897,63.892149 1.4897,19.71412 1.4897,9.17587 1.4897,7.16262 1.4897,2.70808 1.4897,-0.0382 1.4897,-5.4073 1.4897,-8.66134 1.4897,-10.10118 1.4897,-0.79248 1.4897,-2.78771 1.48969,-7.9907 1.4897,-82.118802 1.4897,-23.344852 L 651.39437,-1 m 12.57841,0 1.16517,11.253801 1.4897,11.835134 1.4897,12.676961 1.48969,7.547711 1.4897,-0.88659 1.4897,-9.395166 1.4897,-2.47075 1.4897,1.563218 1.4897,4.46204 1.4897,9.181092 1.4897,15.207747 1.4897,57.413342 1.4897,12.29547 1.4897,-10.88323 1.4897,-43.284785 1.4897,-13.132844 1.4897,-13.579334 1.4897,-10.44866 1.48969,-3.404106 1.4897,3.867769 1.4897,2.56859 1.4897,-0.46227 1.4897,-2.178487 1.4897,0.362416 1.4897,6.028165 1.4897,17.74397 1.4897,70.609026 1.4897,18.93834 1.4897,-1.16093 1.4897,-18.89956 1.4897,9.68305 1.4897,23.09721 1.4897,11.43618 1.4897,9.11434 1.4897,4.35493 1.48969,4.38278 1.4897,0.7084 1.4897,-3.99331 1.4897,-6.97328" /></g></g><g
       id="g34"><g
         clip-path="url(#clipPath40)"
         id="g36"><path
           id="path42"
           style="fill:none;stroke:#ff0000;stroke-width:6;stroke-linecap:square;stroke-linejoin:round;stroke-miterlimit:10;stroke-dasharray:none;stroke-opacity:1"
           d="m 347.83199,202.9303 1.4897,-5.35598 1.4897,-9.40298 1.48969,-11.67191 1.4897,-9.94926 1.4897,-26.45825 1.4897,-22.27734 1.4897,18.75771 1.4897,-0.49375 1.4897,7.89019 1.4897,27.81029 1.4897,16.13975 1.4897,13.87541 1.4897,5.74292 1.4897,4.44694 1.4897,-5.15876 1.4897,-3.26295 1.4897,0.74794 1.48969,5.52252 1.4897,4.31532 1.4897,9.20287 1.4897,6.37818 1.4897,2.08371 1.4897,0.42849 1.4897,-0.67311 1.4897,0.64047 1.4897,0.24053 1.4897,-4.33073 1.4897,-4.99942 1.4897,-8.6726 1.4897,-6.37898 1.4897,-18.7374 1.4897,-50.91386 1.48969,-2.84819 1.4897,-4.61696 1.4897,-12.16512 1.4897,3.66152 1.4897,-1.66625 1.4897,3.27416 1.4897,11.73775 1.4897,14.01652 1.4897,49.71685 1.4897,-2.75112 1.4897,14.13318 1.4897,3.92193 1.4897,1.77505 1.4897,-4.27149 1.4897,-4.64667 1.4897,-50.07287 1.48969,-28.41794 1.4897,-16.97529 1.4897,-6.143 1.4897,-0.57735 1.4897,2.42565 1.4897,7.52119 1.4897,16.28032 1.4897,24.39351 1.4897,33.72962 1.4897,13.7321 1.4897,15.48167 2.9794,20.57227 1.4897,2.21994 1.4897,2.90313 1.4897,1.92263 1.48969,2.80443 2.9794,-2.68398 1.4897,-0.73394 1.4897,-1.41551 1.4897,6.04807 1.4897,7.66629 1.4897,4.85332 1.4897,6.01748 1.4897,3.75852 1.4897,0.25199 1.4897,-0.23064 1.4897,0.68487 1.4897,-3.5485 1.48969,-4.04889 1.4897,-3.69599 1.4897,-7.37225 4.4691,-18.98623 1.4897,-8.04887 1.4897,2.18888 1.4897,-3.73869 1.4897,5.59315 1.4897,4.47017 1.4897,1.40546 1.4897,-6.02544 1.4897,-17.68064 1.4897,-49.04183 1.48969,-24.43112 1.48971,-14.13743 1.48969,-8.82998 1.4897,-10.18239 1.4897,-3.66775 1.4897,-0.78952 1.4897,-1.89815 1.4897,-3.215005 1.4897,-7.772717 1.4897,-5.284794 1.4897,1.241838 1.4897,4.266659 1.4897,11.147539 1.4897,22.81663 1.4897,58.09419 1.48969,32.71411 1.4897,13.56908 1.4897,6.11815 1.4897,4.96493 1.4897,-0.35821 1.4897,-4.79101 1.4897,-5.7461 1.4897,-7.86005 1.4897,-3.25596 1.4897,-13.46451 4.4691,-35.73285 1.4897,10.10602 1.4897,12.45331 1.4897,8.08007 1.48969,4.84691 1.4897,7.76787 1.4897,3.80204 1.4897,-4.5597 1.4897,-15.10862 1.4897,-12.06712 1.4897,-16.35651 1.4897,-62.68669 1.4897,-15.333574 1.4897,-21.056533 1.4897,-15.740487 1.4897,-9.633729 1.4897,0.403961 1.4897,3.008048 1.4897,7.31214 2.97939,23.319281 1.4897,24.265143 1.4897,46.6218 1.4897,-14.18034 1.4897,-53.210912 1.4897,-21.201564 1.4897,-15.921949 1.4897,-3.000549 1.4897,-3.457476 1.4897,4.176062 1.4897,13.651938 1.4897,24.181171 1.4897,77.261339 1.4897,24.30637 1.4897,5.79879 1.4897,-1.60549 1.48969,-2.51693 1.4897,-12.40328 1.4897,-15.85122 1.4897,-57.730538 1.4897,-45.497303 1.4897,-5.141951 1.4897,-2.053533 1.4897,2.184216 1.4897,11.705852 1.4897,8.199422 1.4897,2.543796 1.4897,-6.185641 1.4897,-8.796041 2.9794,-29.119937 1.48969,-7.990141 1.4897,-1.950132 1.4897,-4.681675 1.4897,-2.903395 1.4897,-3.268276 1.4897,0.794639 1.4897,-1.462178 1.4897,0.282939 1.4897,4.371876 1.4897,3.169429 1.4897,3.563173 1.4897,5.954078 1.4897,0.158794 1.48969,-4.200268 1.4897,0.383706 1.4897,6.362546 1.4897,46.710823 1.4897,67.80787 1.4897,15.65821 2.9794,16.27088 1.4897,4.57258 1.4897,0.1424 1.4897,-3.1818 2.9794,-14.24902 1.4897,-10.73038 1.4897,-9.87195 1.4897,-3.91536 1.48969,-10.88267 1.4897,-68.540852 1.4897,-4.939739 1.4897,-9.484889 1.4897,-10.600671 L 656.38631,-1 m 6.98427,0 1.76737,14.389681 2.9794,11.068145 1.48969,15.412766 1.4897,6.823584 1.4897,-2.306527 1.4897,-4.39961 1.4897,2.675849 1.4897,4.343116 1.4897,-1.883618 1.4897,-3.168507 1.4897,1.792053 1.4897,12.326587 1.4897,2.66994 1.4897,0.03237 2.9794,-16.227688 1.4897,-0.60255 1.48969,0.429409 1.4897,5.844016 1.4897,7.478254 1.4897,15.731027 1.4897,81.009133 1.4897,22.3072 1.4897,7.72535 1.4897,1.6108 1.4897,-3.24803 1.4897,0.59953 1.4897,-1.07656 1.4897,1.95821 1.4897,4.28578 2.9794,12.07188 1.4897,-4.07807 1.4897,1.98855 1.48969,1.502 1.4897,-14.93486 1.4897,-12.64502 1.4897,-9.2561 1.4897,-0.004 1.4897,15.59336 1.4897,13.28708 1.4897,14.77789 1.4897,9.59267 1.4897,3.28873 1.4897,-1.64621 1.4897,-3.356 1.4897,0.67524 1.48969,-0.33097 1.4897,6.61518 1.4897,-0.57648 1.4897,-2.11796 1.4897,-4.3607 2.9794,-4.26132 1.4897,-24.50268 1.4897,-29.6196 1.4897,-23.91335 1.4897,-6.4925 1.4897,6.83432 1.4897,15.3847 1.4897,11.71205 1.4897,-3.08232 1.4897,17.6649 1.4897,25.14517 1.48969,17.34289 1.4897,-3.11915 1.4897,-29.39789 1.4897,-22.16099 1.4897,-5.48902 1.4897,-2.94387 1.4897,-5.57353 1.4897,-8.76942 1.4897,-0.90596 1.4897,5.10472 1.4897,-2.79409 1.4897,-6.89686 1.4897,-0.29427 1.4897,1.36729 1.48969,-0.78441 1.4897,2.00692 1.4897,7.46183 1.4897,8.69534 1.4897,12.47183 1.4897,4.0272 1.4897,-3.17272 1.4897,-6.47471 1.4897,-0.34734 1.4897,-1.22805 1.4897,0.39913 1.4897,0.0987 1.4897,3.05213 1.4897,1.08095 1.4897,3.48524 v 0" /></g></g><g
       id="g44"><g
         clip-path="url(#clipPath50)"
         id="g46"><path
           id="path52"
           style="fill:none;stroke:#008000;stroke-width:6;stroke-linecap:square;stroke-linejoin:round;stroke-miterlimit:10;stroke-dasharray:none;stroke-opacity:1"
           d="m 498.29162,178.9262 1.4897,-53.19992 1.4897,-15.19614 1.4897,-2.39439 1.4897,21.05856 1.4897,39.07788 1.4897,15.94603 1.4897,7.66693 1.48969,-0.42322 1.4897,-12.70009 1.4897,-41.83682 1.4897,-38.828128 1.4897,-15.301642 1.4897,-1.766364 1.4897,9.907058 1.4897,1.429382 1.4897,-15.7587 1.4897,-18.75018 1.4897,-7.498255 1.4897,5.084573 1.4897,19.056827 1.4897,23.414385 1.4897,42.945694 1.4897,16.49777 1.48969,-1.34708 1.4897,-16.97791 1.4897,-8.37823 1.4897,-34.540444 1.4897,-8.515815 1.4897,-13.954234 1.4897,-5.300924 1.4897,6.63079 1.4897,60.502697 1.4897,10.78159 1.4897,-1.59993 1.4897,-0.73366 1.4897,1.5323 1.4897,-0.6711 1.4897,-5.50353 1.4897,-65.14049 1.48969,-21.720921 1.4897,-12.326221 1.4897,-2.89267 1.4897,-0.517767 1.4897,2.267184 1.4897,1.932783 1.4897,4.670818 1.4897,14.54708 1.4897,60.061834 1.4897,11.71836 1.4897,-8.86031 1.4897,-28.539833 1.4897,-48.089376 1.4897,-20.237411 1.4897,-13.176478 L 580.22509,2.96344 581.57217,-1 m 0.26768,0 1.36463,4.57855 1.4897,9.414245 1.4897,15.790291 1.4897,39.912933 1.4897,54.780861 1.4897,11.64374 1.4897,12.97309 1.4897,5.23175 1.4897,-2.12677 1.4897,-4.92845 1.4897,-6.46496 1.4897,4.73386 1.4897,12.29111 1.4897,9.29875 1.48969,3.0868 1.4897,-6.79786 1.4897,-14.44083 1.4897,-17.23832 1.4897,-16.43394 1.4897,-28.202573 1.4897,-64.930329 1.4897,-15.928163 L 615.2506,-1 m 8.88317,0 0.78229,2.862126 1.4897,1.969361 1.4897,3.165638 1.4897,4.756353 1.4897,6.164747 1.4897,8.967865 1.4897,11.129342 1.4897,14.621966 1.4897,17.253279 1.4897,57.434973 1.4897,11.52958 1.4897,7.24721 1.4897,0.59612 1.4897,-9.54385 1.4897,-46.667461 1.48969,-43.094516 1.4897,-11.388978" /></g></g></g></svg>