<?xml version="1.0" encoding="UTF-8" standalone="no"?>
<svg
   xmlns:dc="http://purl.org/dc/elements/1.1/"
   xmlns:cc="http://creativecommons.org/ns#"
   xmlns:rdf="http://www.w3.org/1999/02/22-rdf-syntax-ns#"
   xmlns:svg="http://www.w3.org/2000/svg"
   xmlns="http://www.w3.org/2000/svg"
   viewBox="0 0 1152 384"
   height="384"
   width="1152"
   xml:space="preserve"
   id="svg2"
   version="1.1"><metadata
     id="metadata8"><rdf:RDF><cc:Work
         rdf:about=""><dc:format>image/svg+xml</dc:format><dc:type
           rdf:resource="http://purl.org/dc/dcmitype/StillImage" /></cc:Work></rdf:RDF></metadata><defs
     id="defs6"><clipPath
       id="clipPath20"
       clipPathUnits="userSpaceOnUse"><path
         id="path18"
         d="M 13.32,13.32 H 850.68 V 274.68 H 13.32 Z" /></clipPath><clipPath
       id="clipPath30"
       clipPathUnits="userSpaceOnUse"><path
         id="path28"
         d="M 13.32,13.32 H 850.68 V 274.68 H 13.32 Z" /></clipPath><clipPath
       id="clipPath40"
       clipPathUnits="userSpaceOnUse"><path
         id="path38"
         d="M 13.32,13.32 H 850.68 V 274.68 H 13.32 Z" /></clipPath><clipPath
       id="clipPath50"
       clipPathUnits="userSpaceOnUse"><path
         id="path48"
         d="M 13.32,13.32 H 850.68 V 274.68 H 13.32 Z" /></clipPath></defs><g
     transform="matrix(1.3333333,0,0,-1.3333333,0,384)"
     id="g10"><path
       id="path12"
       style="fill:#ffffff;fill-opacity:1;fill-rule:nonzero;stroke:none"
       d="M 0,0 H 864 V 288 H 0 Z" /><g
       id="g14"><g
         clip-path="url(#clipPath20)"
         id="g16"><path
           id="path22"
           style="fill:none;stroke:#000000;stroke-width:3;stroke-linecap:butt;stroke-linejoin:round;stroke-miterlimit:10;stroke-dasharray:11.1, 4.8;stroke-dashoffset:0;stroke-opacity:1"
           d="m 51.381818,215.11394 2.979399,-2.5562 1.489699,-1.54905 8.938196,-10.93456 2.979399,-3.98822 2.979399,-3.50105 1.489699,-1.51527 1.489699,-1.72067 2.979399,-3.94185 1.489699,-2.22368 1.4897,-1.9741 1.489699,-2.19725 2.979399,-3.91087 1.489699,-2.21054 1.489699,-1.9382 10.427896,-15.34388 1.489699,-1.92358 1.489703,-2.18074 1.4897,-1.91094 1.4897,-1.63079 2.97939,-3.78622 1.4897,-2.15395 2.9794,-3.75207 1.4897,-2.12914 2.9794,-3.71412 2.9794,-4.22782 1.4897,-2.69622 1.4897,-2.10172 1.4897,-2.40506 1.4897,-2.08992 1.48969,-1.78696 7.4485,-10.66409 1.4897,-1.45228 2.9794,-3.43088 1.4897,-1.981507 1.4897,-2.284214 1.4897,-1.952707 1.4897,-2.3179 2.9794,-3.827904 1.48969,-1.622496 1.4897,-2.604023 1.4897,-0.499975 1.4897,1.522077 4.4691,6.322786 2.9794,3.376826 4.4691,5.838457 4.4691,5.25651 1.4897,1.50463 1.48969,1.76862 2.9794,3.21822 5.9588,7.10955 5.9588,5.08716 1.4897,0.5329 1.4897,-0.71191 1.4897,-0.90205 1.4897,-0.11144 1.48969,-0.24111 1.4897,-0.80014 1.4897,-1.1456 1.4897,-0.14482 1.4897,0.83091 1.4897,0.48847 1.4897,-0.23166 1.4897,-0.97059 1.4897,-0.55046 1.4897,-1.27538 2.9794,-3.857 2.9794,-2.89355 1.4897,-0.16187 1.4897,-0.28866 1.48969,-0.62193 1.4897,-0.42238 1.4897,-1.73221 1.4897,-1.46078 1.4897,-1.17766 1.4897,-1.48582 2.9794,-2.6479 4.4691,-4.687295 1.4897,-1.037259 1.4897,-0.621627 4.46909,0.03207 1.4897,-0.446299 1.4897,-0.307379 4.4691,-3.793893 1.4897,-0.859661 2.9794,2.298641 8.93819,9.032922 1.4897,1.34888 1.4897,1.10885 2.9794,1.29607 1.4897,-0.0703 1.4897,-0.31076 1.4897,-0.79728 1.4897,-0.25433 1.4897,-0.11876 1.4897,0.26416 1.4897,0.0114 1.4897,-0.32556 1.4897,-0.20967 1.4897,0.77891 5.95879,4.98866 2.9794,3.35259 1.4897,2.02595 1.4897,1.78234 1.4897,2.14428 5.9588,7.05423 7.44849,7.83554 1.4897,1.40229 1.4897,1.91861 2.9794,3.40833 2.9794,3.8218 2.9794,3.28992 1.4897,0.99133 1.4897,0.64878 1.4897,0.30325 1.4897,0.16536 1.4897,1.54048 1.48969,1.83424 1.4897,2.01525 2.9794,3.16135 1.4897,0.87841 1.4897,0.50657 1.4897,0.15339 1.4897,-0.009 2.9794,0.44408 1.4897,0.0658 2.9794,0.60828 1.4897,1.28283 1.4897,2.06474 1.48969,1.53275 1.4897,1.34499 1.4897,1.57757 1.4897,0.62776 1.4897,0.86547 1.4897,1.26665 2.9794,2.7526 1.4897,1.10523 1.4897,0.59986 1.4897,0.25046 1.4897,0.0469 2.9794,2.10553 1.4897,0.85031 1.48969,1.10291 2.9794,2.52227 1.4897,1.52195 1.4897,1.17452 1.4897,1.55588 1.4897,0.96767 2.9794,1.03388 1.4897,-0.0527 1.4897,0.3263 1.4897,1.6588 1.4897,1.06976 1.4897,1.33389 1.4897,0.74757 1.48969,0.31727 1.4897,-0.006 1.4897,-0.92228 2.9794,-2.51474 1.4897,-1.61544 2.9794,-2.57666 1.4897,-0.75965 2.9794,-2.89819 4.4691,-5.84856 2.9794,-4.65109 1.48969,-1.50576 1.4897,0.61438 1.4897,1.34224 1.4897,0.97769 1.4897,1.31606 1.4897,1.699 1.4897,1.97232 1.4897,1.71457 1.4897,2.30037 1.4897,1.72783 1.4897,1.38267 2.9794,1.62488 2.9794,1.10417 1.4897,-0.0169 2.97939,-0.47107 1.4897,-0.68806 1.4897,-0.38667 2.9794,-1.21308 1.4897,-0.83159 4.4691,-3.18561 1.4897,-0.75084 1.4897,-1.01251 1.4897,-1.26638 4.46909,-2.84452 4.4691,-3.59019 2.9794,-2.87853 4.4691,-5.22196 1.4897,-2.00471 2.9794,-4.65779 2.9794,-5.22091 1.48969,-1.38986 1.48971,-0.68312 2.97939,-0.752 2.9794,-1.16026 2.9794,-1.78713 1.4897,-0.89934 2.9794,-2.33584 2.9794,-2.85568 1.4897,-2.09367 2.97939,-5.14342 4.4691,-6.67234 1.4897,-1.80445 1.4897,-2.40554 2.9794,-3.95617 1.4897,-2.01716 1.4897,0.40404 8.9382,10.35433 1.48969,1.56679 1.4897,0.14975 1.4897,-0.54998 1.4897,-1.86245 2.9794,-4.85366 1.4897,-1.95238 1.4897,-1.4182 1.4897,-1.01508 1.4897,-0.75763 1.4897,-0.35263 1.4897,-0.91712 7.44849,-10.1455 1.4897,-1.8835 2.9794,-4.1399 2.9794,-3.758532 2.9794,-4.340714 1.4897,-2.207462 1.4897,-0.880543 1.4897,0.897427 4.4691,5.804116 1.4897,2.057336 1.4897,1.841162 2.97939,4.14831 1.4897,1.86517 1.4897,1.12428 1.4897,-0.17314 1.4897,-1.09108 1.4897,-1.23231 1.4897,-1.5649 1.4897,-1.76249 2.9794,-4.007473 2.9794,-3.570555 1.4897,-0.955673 2.97939,-0.699863 1.4897,-0.04455 1.4897,0.14083 2.9794,-0.547685 1.4897,-0.785095 2.9794,-3.38123 2.9794,-3.870401 1.4897,-1.902838 2.9794,-4.461065 2.97939,-3.632963 1.4897,-1.127762 1.4897,0.152072 1.4897,0.624515 1.4897,1.584731 1.4897,1.032665 7.4485,8.236997 1.4897,0.05938 1.4897,-1.212994 2.9794,-2.821119 1.48969,-1.638166 2.9794,-1.505548 1.4897,0.449487 1.4897,1.001596 1.4897,1.313144 2.9794,2.213863 2.9794,3.712521 1.4897,1.207758 1.4897,0.595339 1.4897,0.404314 1.4897,-0.0375 1.4897,1.128165 4.46909,4.627077 1.4897,1.09402 1.4897,0.919824 1.4897,0.261697 1.4897,0.923526 1.4897,1.349696 2.9794,3.499773 1.4897,1.69536 1.4897,0.92128 1.4897,-0.31643 1.4897,0.26178 1.4897,0.14121 1.48969,0.73222 1.4897,1.16132 1.4897,1.79115 4.4691,6.07173 1.4897,1.94193 2.9794,4.21606 2.9794,3.73084 1.4897,0.72321 h 1.4897 l 1.4897,-0.35118 1.4897,0.0777 1.4897,1.24276 11.91759,16.09696 1.4897,0.78966 1.4897,0.22707 1.4897,0.63168 1.4897,1.46991 2.9794,4.17149 1.48969,1.8863 1.4897,2.22642 2.9794,3.9936 1.4897,1.46902 1.4897,2.08654 2.9794,3.48416 1.4897,1.91437 7.4485,11.54877 1.4897,1.24506 2.9794,0.21585 1.48969,0.81055 1.4897,2.40973 1.4897,1.8122 2.9794,4.46906 1.4897,1.68566 2.9794,2.56779 1.4897,1.24931 2.9794,1.94527 1.4897,1.29904 2.9794,3.45401 1.48969,1.09043 2.9794,2.72448 2.9794,2.18164 1.4897,1.06725 1.4897,0.82821 1.4897,0.5007 1.4897,0.69182 1.4897,0.20005 1.4897,0.47925 1.4897,0.9115 1.4897,1.18512 5.95879,2.39998 1.4897,0.29187 1.4897,0.053 2.9794,-0.5087 v 0" /></g></g><g
       id="g24"><g
         clip-path="url(#clipPath30)"
         id="g26"><path
           id="path32"
           style="fill:none;stroke:#0000ff;stroke-width:6;stroke-linecap:square;stroke-linejoin:round;stroke-miterlimit:10;stroke-dasharray:none;stroke-opacity:1"
           d="m 128.84618,111.50379 1.4897,-3.18192 1.4897,-1.06088 1.4897,-2.96131 4.4691,-11.095508 1.4897,-1.920111 1.4897,-1.275579 1.4897,-2.856977 1.4897,-4.000128 1.4897,-2.207877 2.97939,-5.522623 1.4897,-1.567295 1.4897,-3.758935 1.4897,-1.461595 1.4897,-2.668887 1.4897,-2.428061 2.9794,-4.385014 2.9794,-5.944417 1.4897,-2.593587 1.4897,-1.887862 1.4897,-1.462234 1.4897,-2.034529 1.4897,-1.480984 1.4897,-0.123054 1.48969,1.571741 2.9794,5.590919 2.9794,4.098806 1.4897,1.67152 1.4897,2.156595 2.9794,4.0324 1.4897,1.475354 1.4897,1.982678 2.9794,3.570995 1.4897,2.391625 1.4897,2.704336 1.48969,2.06636 2.9794,4.831395 1.4897,2.197985 1.4897,1.389888 1.4897,1.840371 1.4897,1.186962 1.4897,0.958588 1.4897,1.296479 1.4897,0.912706 1.4897,0.535294 1.4897,1.429081 1.4897,1.743419 1.4897,2.023193 2.9794,3.153437 2.97939,-0.731813 1.4897,0.105412 1.4897,0.332211 1.4897,0.0185 2.9794,-1.249099 1.4897,0.171782 1.4897,0.540623 2.9794,2.303134 1.4897,0.83169 1.4897,0.33093 2.97939,0.0447 1.4897,-1.34392 1.4897,0.72756 1.4897,0.25527 1.4897,0.62261 1.4897,-0.0369 1.4897,0.40264 1.4897,0.15856 1.4897,-0.28978 1.4897,1.41438 1.4897,-0.53491 1.4897,0.0638 1.4897,0.6354 1.4897,-0.27527 1.4897,0.12756 2.97939,3.35766 1.4897,0.49402 1.4897,0.85872 1.4897,1.52023 1.4897,0.68858 1.4897,1.44111 1.4897,0.50321 1.4897,1.63645 1.4897,1.30559 2.9794,3.30373 1.4897,0.76598 1.4897,1.38741 2.97939,2.32087 2.9794,4.23246 1.4897,2.31172 1.4897,1.98869 2.9794,3.45092 1.4897,2.21965 1.4897,1.99909 1.4897,1.78802 1.4897,2.22968 1.4897,1.60276 4.4691,5.66473 1.4897,1.22616 2.97939,3.54443 1.4897,0.88935 1.4897,1.71308 2.9794,2.92397 1.4897,0.69659 1.4897,1.07725 1.4897,1.28653 1.4897,0.77799 1.4897,0.4844 4.4691,4.43182 1.4897,1.34622 1.48969,1.84568 1.4897,0.75965 2.9794,2.99957 1.4897,0.87866 1.4897,1.25015 1.4897,1.46444 4.4691,2.66111 1.4897,0.56201 1.4897,0.90521 1.4897,0.34323 1.4897,0.70296 1.4897,0.35585 1.48969,0.63427 1.4897,0.14594 1.4897,0.4366 1.4897,0.84121 1.4897,1.19104 1.4897,-0.10471 2.9794,-1.01208 1.4897,-1.29135 1.4897,-1.12599 1.4897,-1.46126 1.4897,-1.62347 1.4897,-1.97631 1.4897,-0.63327 1.4897,0.72565 2.97939,3.7285 1.4897,1.43705 2.9794,3.16435 2.9794,2.83623 1.4897,1.615 5.9588,5.483 1.4897,1.05892 1.4897,0.70046 1.4897,0.92122 1.48969,-0.0602 1.4897,0.26564 1.4897,0.095 2.9794,-0.13606 2.9794,0.28975 1.4897,0.15332 1.4897,0.42673 2.9794,-0.68378 1.4897,-0.70176 2.9794,-2.38391 1.4897,-0.80008 1.4897,-1.07821 4.46909,-4.135 2.9794,-2.58588 1.4897,-1.67771 1.4897,-1.89662 1.4897,-1.54511 2.9794,-1.62427 1.4897,-0.4945 2.9794,0.0888 1.4897,-0.3224 1.4897,-1.07491 2.97939,-1.34328 1.4897,-0.23731 1.4897,-1.46733 1.4897,-1.03454 1.4897,-1.87723 2.9794,-2.7779 1.4897,-0.90195 1.4897,-1.40545 1.4897,-2.18746 4.4691,-3.74549 1.4897,-0.94 1.48969,0.31333 1.4897,-0.0522 1.4897,0.49059 1.4897,0.33086 1.4897,-0.0876 1.4897,-0.64742 1.4897,-0.82774 1.4897,-0.31441 1.4897,-1.36419 1.4897,-0.67086 1.4897,-0.8824 1.4897,-1.22468 1.4897,-0.20831 1.4897,0.23921 1.4897,-0.26391 1.48969,-1.07119 1.48971,-1.94471 1.48969,-2.36377 1.4897,-1.01447 1.4897,-0.27821 1.4897,-2.33819 1.4897,-1.6732 1.4897,-2.5179 1.4897,-1.79142 1.4897,-2.05082 1.4897,0.90255 2.9794,3.41889 1.4897,2.03857 1.4897,0.16813 1.48969,-1.37799 2.9794,-1.78732 1.4897,-0.77895 1.4897,-0.96135 1.4897,-2.10592 1.4897,-0.19898 2.9794,-2.52147 1.4897,-0.42327 1.4897,0.17107 1.4897,-1.61842 1.4897,-2.45448 1.4897,-0.31496 1.4897,-0.12068 1.4897,1.2411 2.97939,-2.26441 1.4897,0.10054 1.4897,-1.81965 1.4897,1.56078 1.4897,-1.18334 1.4897,-0.25297 1.4897,-1.99397 2.9794,-1.82586 1.4897,-0.66397 1.4897,-1.60963 2.9794,-0.26832 1.4897,0.23875 1.4897,-0.30811 1.48969,-1.30054 1.4897,-0.0959 1.4897,-0.24656 1.4897,0.35036 1.4897,-1.65556 1.4897,-1.21648 1.4897,-0.18138 1.4897,-0.46644 1.4897,-1.53299 1.4897,-0.99376 1.4897,3.26165 1.4897,3.70036 1.4897,1.59339 1.4897,0.56654 1.4897,-0.58085 1.4897,1.92471 1.48969,0.24984 1.4897,1.05002 v 0" /></g></g><g
       id="g34"><g
         clip-path="url(#clipPath40)"
         id="g36"><path
           id="path42"
           style="fill:none;stroke:#ff0000;stroke-width:6;stroke-linecap:square;stroke-linejoin:round;stroke-miterlimit:10;stroke-dasharray:none;stroke-opacity:1"
           d="m 103.5213,185.89692 1.48969,-1.23122 1.4897,-2.68559 1.4897,-3.66695 1.4897,-4.61985 4.4691,-11.72156 2.9794,-6.41235 1.4897,-3.94406 1.4897,-5.50469 1.4897,-3.68708 2.9794,-9.91089 1.48969,-5.12957 1.4897,-4.29246 1.4897,-4.82925 1.4897,-4.35403 1.4897,-2.50971 1.4897,-4.59076 1.4897,-5.57225 1.4897,-3.993058 1.4897,-5.082522 4.4691,-12.045167 1.4897,-5.469879 1.4897,-4.037828 1.4897,-3.376659 1.48969,-5.054327 1.4897,-4.159867 1.4897,-5.103266 1.4897,-3.667938 1.4897,-5.293209 2.9794,-6.981729 1.4897,0.322772 1.4897,1.991206 1.4897,3.756672 1.4897,4.233902 2.9794,7.376348 2.9794,5.789945 1.4897,3.282045 1.48969,2.787082 1.4897,2.496597 1.4897,1.572785 1.4897,2.384179 2.9794,5.751397 1.4897,3.191702 1.4897,2.566554 1.4897,3.142865 1.4897,2.681103 1.4897,1.82657 1.4897,3.812089 1.4897,2.494452 1.4897,2.104134 2.97939,5.67374 1.4897,3.71366 1.4897,4.46941 1.4897,4.09723 1.4897,3.32375 1.4897,2.20663 1.4897,1.863 1.4897,-0.37089 1.4897,0.91751 1.4897,-0.56127 1.4897,-1.07853 2.9794,-2.97348 1.4897,-1.22049 1.4897,-0.79645 1.4897,0.75272 1.48969,0.22411 2.9794,-1.23012 1.4897,-2.12691 1.4897,-1.77927 2.9794,-2.68361 1.4897,-0.40157 1.4897,0.003 1.4897,-0.6962 1.4897,-0.14191 1.4897,-1.0557 1.4897,-1.44552 1.4897,-0.75515 1.48969,0.19024 1.4897,-0.56249 1.4897,0.0792 1.4897,0.29092 1.4897,1.46309 1.4897,0.26356 1.4897,-1.1435 1.4897,-1.33427 2.9794,-1.36187 1.4897,1.28564 1.4897,1.98955 1.4897,2.21318 1.4897,0.88315 1.4897,0.0655 1.48969,1.54753 1.4897,0.87259 1.4897,0.57883 1.4897,1.1551 1.4897,2.72821 1.4897,2.13408 1.4897,1.72599 1.4897,1.27174 1.4897,2.55264 1.4897,1.08982 1.4897,1.8057 1.4897,2.51874 1.4897,1.59477 1.4897,3.61503 1.4897,2.78908 1.48969,3.30695 1.4897,1.95333 1.4897,2.32691 1.4897,2.83269 1.4897,2.1195 1.4897,1.72452 4.4691,7.51149 1.4897,1.7585 4.4691,6.62225 1.4897,1.46837 1.4897,1.8876 1.4897,0.97993 1.48969,0.52455 1.4897,1.27217 1.4897,0.52429 1.4897,0.88283 1.4897,0.47753 1.4897,1.78387 1.4897,1.03331 1.4897,2.35664 2.9794,3.01758 4.4691,3.10463 1.4897,1.03986 1.4897,0.47074 2.97939,1.38232 1.4897,0.90941 2.9794,1.24538 1.4897,0.61425 1.4897,0.24976 1.4897,-0.12759 1.4897,0.2135 1.4897,-0.23422 1.4897,-0.8252 1.4897,-0.52622 1.4897,-1.46592 2.9794,-2.36654 5.95879,-6.38712 1.4897,-2.38904 1.4897,-1.8537 1.4897,-2.26963 1.4897,-2.56541 1.4897,-3.40843 1.4897,-1.77438 1.4897,-0.35825 1.4897,1.50908 1.4897,2.34803 1.4897,1.94645 4.46909,6.30652 2.9794,3.83119 1.4897,1.6698 2.9794,4.23797 2.9794,2.24846 1.4897,1.36024 1.4897,0.48048 1.4897,-0.13031 1.4897,0.14073 1.4897,-0.42599 1.4897,-0.15628 1.48969,-0.67049 1.4897,0.49807 2.9794,0.54953 1.4897,0.55043 1.4897,0.80173 1.4897,-0.13464 1.4897,-0.43973 1.4897,-0.5838 5.9588,-4.9483 1.4897,-1.01004 1.4897,-1.69189 1.4897,-1.28296 1.48969,-1.11663 2.9794,-3.85999 1.4897,-0.27661 1.4897,-0.0511 1.4897,-0.48006 2.9794,-1.72354 4.4691,-5.99939 1.4897,-2.27093 1.4897,-2.04775 1.4897,-1.50604 1.4897,-1.82935 1.4897,-3.27546 2.97939,-3.41751 1.4897,-1.26504 1.4897,-1.87795 1.4897,-2.43236 1.4897,-1.90295 1.4897,-1.26111 1.4897,0.30203 1.4897,0.9741 1.4897,1.99879 1.4897,0.47507 1.4897,1.16403 1.4897,0.19072 1.4897,0.51092 1.48969,0.23453 1.4897,-0.70336 1.4897,-1.00271 2.9794,-1.55327 1.4897,-0.21034 1.4897,0.48185 4.4691,6.40349 1.4897,1.87667 1.4897,1.12707 1.4897,0.56689 1.4897,0.0439 1.4897,0.63184 4.46909,-2.44074 4.4691,-5.09041 1.4897,-1.26935 2.9794,-2.90646 1.4897,-1.00996 1.4897,-3.26604 2.9794,-1.26424 1.4897,-1.30879 4.46909,-5.76216 4.4691,-6.29458 1.4897,-0.94146 1.4897,1.51577 1.4897,-1.98905 1.4897,-2.26599 1.4897,-0.53866 1.4897,-0.95687 1.4897,0.47537 1.4897,-1.76084 1.4897,1.6924 1.4897,1.94054 1.4897,2.91244 1.48969,0.89165 1.4897,-0.56652 1.4897,0.22502 1.4897,1.32455 1.4897,-0.92551 1.4897,0.0215 1.4897,0.88141 1.4897,1.08725 1.4897,0.51179 1.4897,1.32785 1.4897,2.09233 1.4897,0.45162 1.4897,0.28552 2.9794,0.198 1.4897,-0.58818 1.48969,-3.81754 v 0" /></g></g><g
       id="g44"><g
         clip-path="url(#clipPath50)"
         id="g46"><path
           id="path52"
           style="fill:none;stroke:#008000;stroke-width:6;stroke-linecap:square;stroke-linejoin:round;stroke-miterlimit:10;stroke-dasharray:none;stroke-opacity:1"
           d="m 341.87319,160.51645 1.4897,0.63895 1.4897,2.02582 1.4897,0.32382 1.4897,-0.0684 1.4897,0.80061 1.4897,-0.19188 1.48969,0.39466 1.4897,0.26472 1.4897,1.56438 1.4897,0.43213 1.4897,0.8241 1.4897,0.1233 4.4691,1.97828 1.4897,0.71124 5.9588,1.60697 1.4897,0.59784 1.48969,0.44137 1.4897,-0.0225 1.4897,0.30938 1.4897,1.02716 1.4897,0.71827 1.4897,0.42528 1.4897,-0.081 1.4897,0.38665 1.4897,-0.38535 1.4897,-1.0866 1.4897,-1.26778 1.4897,-0.98723 2.9794,-3.44516 1.4897,-1.41701 1.48969,-1.83015 2.9794,-4.13144 2.9794,-4.75003 1.4897,-0.336 2.9794,3.58711 1.4897,1.27131 1.4897,1.57078 2.9794,2.67504 2.9794,3.34332 1.4897,0.62339 1.4897,1.01466 1.48969,1.50807 1.4897,1.20293 4.4691,2.22567 2.9794,1.91518 1.4897,0.73797 4.4691,3.36294 1.4897,1.2874 1.4897,1.66197 1.4897,0.68283 1.4897,1.20336 1.4897,0.73486 1.48969,-0.13733 1.4897,0.14886 1.4897,-0.24336 1.4897,-1.20299 1.4897,-1.02862 1.4897,-0.77122 1.4897,-1.1049 1.4897,-0.93999 2.9794,-1.68122 2.9794,-1.72313 1.4897,-1.19163 2.97939,-2.62265 2.9794,-1.53527 1.4897,-1.4844 1.4897,-1.66574 1.4897,-0.92894 1.4897,-1.40674 1.4897,-1.76187 1.4897,-1.29945 1.4897,-1.53634 1.4897,-1.22483 1.4897,-1.70126 1.4897,-1.32608 1.4897,-1.68111 1.4897,-1.1995 1.48969,-0.58757 1.48971,0.23771 2.97939,1.64338 1.4897,0.0409 1.4897,0.35717 1.4897,-0.99847 1.4897,-2.12388 1.4897,-1.64719 1.4897,-0.28993 1.4897,-1.45678 1.4897,-1.91467 2.9794,-4.15249 1.4897,-1.13836 1.48969,-0.15653 1.4897,-0.70231 2.9794,-3.28198 2.9794,-2.0869 2.9794,-2.83676 2.9794,-3.28074 1.4897,-1.10499 2.9794,-3.06407 1.4897,-1.12468 1.4897,-0.25735 1.4897,0.7511 1.48969,1.16555 1.4897,0.66612 1.4897,1.11993 1.4897,-0.43018 1.4897,-0.97117 1.4897,-2.05041 1.4897,-0.5168 1.4897,-1.77538 1.4897,-0.4994 1.4897,-1.22696 1.4897,-0.4818 1.4897,-0.14991 1.4897,-0.37725 1.4897,-1.01315 1.4897,-1.18453 1.4897,-2.66184 1.48969,-3.74144 1.4897,-2.69547 1.4897,-1.67604 1.4897,-4.31778 1.4897,-0.0809 1.4897,0.3741 1.4897,0.84603 1.4897,1.51725 1.4897,1.1458 2.9794,0.82161 1.4897,-1.43484 2.9794,-2.14387 1.4897,-0.39612 1.4897,-0.76918 1.48969,-1.288 2.9794,-4.516843 1.4897,-2.572443 1.4897,-1.852023 1.4897,-1.085617 2.9794,-5.302457 1.4897,-1.543273 1.4897,1.030943 1.4897,2.051473 1.4897,3.200794 1.4897,2.551191 1.4897,1.793976 2.97939,-0.09489 2.9794,-0.89898 2.9794,-3.205808 1.4897,-2.040607 1.4897,-0.989676 1.4897,-0.508214 1.4897,1.042515 1.4897,0.782846 1.4897,0.616342 1.4897,0.388523 1.4897,-0.04101 1.48969,-0.776839 2.9794,-2.016353 1.4897,-1.055592 1.4897,-1.630812 2.9794,-2.156666 1.4897,-0.547035 1.4897,-1.208421 1.4897,-0.938348 1.4897,-0.805006 1.4897,-0.281001 2.9794,-1.87803 1.4897,-0.768546 1.4897,0.168192 4.46909,2.131486 2.9794,1.868378 1.4897,0.753757 1.4897,0.432744 1.4897,1.017533 1.4897,0.869393 1.4897,1.030035 1.4897,0.501835 1.4897,0.789088 2.9794,1.078999 1.4897,0.122212 1.48969,0.35274 1.4897,0.675654 1.4897,0.298655 1.4897,0.708397 1.4897,1.246175 1.4897,0.886863 1.4897,1.136038 2.9794,1.765795 5.9588,5.284289 1.4897,0.612839 1.4897,0.379 1.48969,1.05429 1.4897,1.3682 1.4897,0.53271 1.4897,1.23111 1.4897,0.58844 2.9794,2.92608 1.4897,1.83772 1.4897,1.43323 4.4691,2.24997 1.4897,0.48909 1.4897,0.77343 1.4897,0.086 2.9794,1.40184 1.48969,1.20818 1.4897,1.53597 1.4897,1.16863 2.9794,3.47218 1.4897,1.24897 2.9794,2.81392 1.4897,0.80826 1.4897,0.44123 1.4897,0.84338 1.4897,1.15975 1.4897,0.80221 5.95879,4.0235 1.4897,1.34603 1.4897,2.21553 1.4897,1.64235 1.4897,1.44517 1.4897,1.05736 1.4897,0.38386 1.4897,0.92876 1.4897,0.552 1.4897,0.29225 1.4897,1.03649 1.4897,0.84423 1.4897,0.54245 1.4897,0.98137 1.48969,1.41732 1.4897,0.63628 1.4897,0.90561 1.4897,1.67823 1.4897,1.38558 1.4897,-1.26779 1.4897,0.99163 1.4897,3.39734 1.4897,0.48714 1.4897,1.80062 1.4897,1.39203 1.4897,0.59835 1.4897,4.32832 1.4897,1.03055 1.48969,2.22104 1.4897,2.88822 1.4897,2.07066 1.4897,1.47471 1.4897,2.28572 1.4897,2.92538 1.4897,2.21982 1.4897,-1.82368 1.4897,1.73076 1.4897,2.98569 v 0" /></g></g></g></svg>