<?xml version="1.0" encoding="UTF-8" standalone="no"?>
<svg
   xmlns:dc="http://purl.org/dc/elements/1.1/"
   xmlns:cc="http://creativecommons.org/ns#"
   xmlns:rdf="http://www.w3.org/1999/02/22-rdf-syntax-ns#"
   xmlns:svg="http://www.w3.org/2000/svg"
   xmlns="http://www.w3.org/2000/svg"
   viewBox="0 0 609.552 297.04132"
   height="297.04132"
   width="609.552"
   xml:space="preserve"
   id="svg2"
   version="1.1"><metadata
     id="metadata8"><rdf:RDF><cc:Work
         rdf:about=""><dc:format>image/svg+xml</dc:format><dc:type
           rdf:resource="http://purl.org/dc/dcmitype/StillImage" /></cc:Work></rdf:RDF></metadata><defs
     id="defs6"><clipPath
       id="clipPath196"
       clipPathUnits="userSpaceOnUse"><path
         id="path194"
         d="M 57.656,203.109 H 448.258 V 40.031 H 57.656 Z" /></clipPath><clipPath
       id="clipPath206"
       clipPathUnits="userSpaceOnUse"><path
         id="path204"
         d="M 76,38 H 450 V 192 H 76 Z" /></clipPath><clipPath
       id="clipPath216"
       clipPathUnits="userSpaceOnUse"><path
         id="path214"
         d="M 76,192 H 450 V 38 H 76 Z" /></clipPath><clipPath
       id="clipPath226"
       clipPathUnits="userSpaceOnUse"><path
         id="path224"
         d="M 76,38 H 450 V 192 H 76 Z" /></clipPath><clipPath
       id="clipPath236"
       clipPathUnits="userSpaceOnUse"><path
         id="path234"
         d="M 76,42 H 450 V 38 H 76 Z" /></clipPath><clipPath
       id="clipPath246"
       clipPathUnits="userSpaceOnUse"><path
         id="path244"
         d="m 76,38 h 374 v 4 H 76 Z" /></clipPath><clipPath
       id="clipPath256"
       clipPathUnits="userSpaceOnUse"><path
         id="path254"
         d="M 76,42 H 450 V 38 H 76 Z" /></clipPath><clipPath
       id="clipPath266"
       clipPathUnits="userSpaceOnUse"><path
         id="path264"
         d="m 76,38 h 374 v 4 H 76 Z" /></clipPath><clipPath
       id="clipPath280"
       clipPathUnits="userSpaceOnUse"><path
         id="path278"
         d="m 76,179 h 374 v -4 H 76 Z" /></clipPath><clipPath
       id="clipPath290"
       clipPathUnits="userSpaceOnUse"><path
         id="path288"
         d="m 76,175 h 374 v 4 H 76 Z" /></clipPath><clipPath
       id="clipPath300"
       clipPathUnits="userSpaceOnUse"><path
         id="path298"
         d="m 76,179 h 374 v -4 H 76 Z" /></clipPath><clipPath
       id="clipPath310"
       clipPathUnits="userSpaceOnUse"><path
         id="path308"
         d="m 76,175 h 374 v 4 H 76 Z" /></clipPath><clipPath
       id="clipPath324"
       clipPathUnits="userSpaceOnUse"><path
         id="path322"
         d="M 78,179 H 449 V 38 H 78 Z" /></clipPath><clipPath
       id="clipPath334"
       clipPathUnits="userSpaceOnUse"><path
         id="path332"
         d="M 78,38 H 449 V 179 H 78 Z" /></clipPath><clipPath
       id="clipPath344"
       clipPathUnits="userSpaceOnUse"><path
         id="path342"
         d="M 78,179 H 449 V 38 H 78 Z" /></clipPath><clipPath
       id="clipPath354"
       clipPathUnits="userSpaceOnUse"><path
         id="path352"
         d="M 78,38 H 449 V 179 H 78 Z" /></clipPath><clipPath
       id="clipPath368"
       clipPathUnits="userSpaceOnUse"><path
         id="path366"
         d="M 78,192 H 448 V 38 H 78 Z" /></clipPath><clipPath
       id="clipPath378"
       clipPathUnits="userSpaceOnUse"><path
         id="path376"
         d="M 78,38 H 448 V 192 H 78 Z" /></clipPath><clipPath
       id="clipPath388"
       clipPathUnits="userSpaceOnUse"><path
         id="path386"
         d="M 78,192 H 448 V 38 H 78 Z" /></clipPath><clipPath
       id="clipPath398"
       clipPathUnits="userSpaceOnUse"><path
         id="path396"
         d="M 78,38 H 448 V 192 H 78 Z" /></clipPath></defs><g
     transform="matrix(1.3333333,0,0,-1.3333333,0,297.04132)"
     id="g10"><g
       id="g12"><path
         id="path14"
         style="fill:#ffffff;fill-opacity:1;fill-rule:nonzero;stroke:none"
         d="M 0,222.781 H 457.164 V 0 H 0 Z" /><path
         id="path16"
         style="fill:#ffffff;fill-opacity:1;fill-rule:nonzero;stroke:none"
         d="M 57.656,203.109 H 448.258 V 40.031 H 57.656 Z" /><g
         transform="translate(0,222.78099)"
         id="g18"><path
           id="path20"
           style="fill:none;stroke:#000000;stroke-width:0.80000001;stroke-linecap:butt;stroke-linejoin:round;stroke-miterlimit:10;stroke-dasharray:none;stroke-opacity:1"
           d="m 78.215,-182.75 v -3.5" /></g><path
         id="path22"
         style="fill:#000000;fill-opacity:1;fill-rule:nonzero;stroke:none"
         d="m 75.496,23.547 h 2.266 v 7.796 l -2.469,-0.5 v 1.266 l 2.453,0.484 h 1.375 v -9.046 h 2.25 V 22.39 h -5.875 z" /><g
         transform="translate(0,222.78099)"
         id="g24"><path
           id="path26"
           style="fill:none;stroke:#000000;stroke-width:0.80000001;stroke-linecap:butt;stroke-linejoin:round;stroke-miterlimit:10;stroke-dasharray:none;stroke-opacity:1"
           d="m 139.887,-182.75 v -3.5" /></g><path
         id="path28"
         style="fill:#000000;fill-opacity:1;fill-rule:nonzero;stroke:none"
         d="m 140.73,31.39 -3.484,-5.437 h 3.484 z m -0.375,1.203 h 1.75 v -6.64 h 1.454 v -1.156 h -1.454 V 22.39 h -1.375 v 2.407 h -4.609 v 1.328 z" /><g
         transform="translate(0,222.78099)"
         id="g30"><path
           id="path32"
           style="fill:none;stroke:#000000;stroke-width:0.80000001;stroke-linecap:butt;stroke-linejoin:round;stroke-miterlimit:10;stroke-dasharray:none;stroke-opacity:1"
           d="m 201.562,-182.75 v -3.5" /></g><path
         id="path34"
         style="fill:#000000;fill-opacity:1;fill-rule:nonzero;stroke:none"
         d="m 198.266,32.593 h 6.562 v -0.578 l -3.719,-9.625 h -1.437 l 3.484,9.047 h -4.89 z" /><g
         transform="translate(0,222.78099)"
         id="g36"><path
           id="path38"
           style="fill:none;stroke:#000000;stroke-width:0.80000001;stroke-linecap:butt;stroke-linejoin:round;stroke-miterlimit:10;stroke-dasharray:none;stroke-opacity:1"
           d="m 263.234,-182.75 v -3.5" /></g><path
         id="path40"
         style="fill:#000000;fill-opacity:1;fill-rule:nonzero;stroke:none"
         d="m 256.062,23.547 h 2.266 v 7.796 l -2.469,-0.5 v 1.266 l 2.453,0.484 h 1.376 v -9.046 h 2.25 V 22.39 h -5.876 z" /><path
         id="path42"
         style="fill:#000000;fill-opacity:1;fill-rule:nonzero;stroke:none"
         d="m 267.688,31.687 c -0.711,0 -1.247,-0.351 -1.61,-1.047 -0.355,-0.699 -0.531,-1.75 -0.531,-3.156 0,-1.398 0.176,-2.449 0.531,-3.156 0.363,-0.699 0.899,-1.047 1.61,-1.047 0.718,0 1.253,0.348 1.609,1.047 0.351,0.707 0.531,1.758 0.531,3.156 0,1.406 -0.18,2.457 -0.531,3.156 -0.356,0.696 -0.891,1.047 -1.609,1.047 z m 0,1.094 c 1.144,0 2.019,-0.453 2.624,-1.359 0.602,-0.907 0.907,-2.219 0.907,-3.938 0,-1.719 -0.305,-3.031 -0.907,-3.937 -0.605,-0.907 -1.48,-1.36 -2.624,-1.36 -1.149,0 -2.024,0.453 -2.626,1.36 -0.605,0.906 -0.906,2.218 -0.906,3.937 0,1.719 0.301,3.031 0.906,3.938 0.602,0.906 1.477,1.359 2.626,1.359 z" /><g
         transform="translate(0,222.78099)"
         id="g44"><path
           id="path46"
           style="fill:none;stroke:#000000;stroke-width:0.80000001;stroke-linecap:butt;stroke-linejoin:round;stroke-miterlimit:10;stroke-dasharray:none;stroke-opacity:1"
           d="m 324.91,-182.75 v -3.5" /></g><path
         id="path48"
         style="fill:#000000;fill-opacity:1;fill-rule:nonzero;stroke:none"
         d="m 317.738,23.547 h 2.266 v 7.796 l -2.469,-0.5 v 1.266 l 2.453,0.484 h 1.375 v -9.046 h 2.25 V 22.39 h -5.875 z" /><path
         id="path50"
         style="fill:#000000;fill-opacity:1;fill-rule:nonzero;stroke:none"
         d="m 330.594,27.89 c 0.656,-0.136 1.164,-0.429 1.531,-0.875 0.375,-0.449 0.563,-1 0.563,-1.656 0,-1.012 -0.352,-1.793 -1.047,-2.344 -0.688,-0.554 -1.668,-0.828 -2.938,-0.828 -0.43,0 -0.871,0.047 -1.328,0.141 -0.449,0.082 -0.918,0.207 -1.406,0.375 v 1.328 c 0.383,-0.219 0.804,-0.387 1.265,-0.5 0.457,-0.117 0.93,-0.172 1.422,-0.172 0.864,0 1.52,0.164 1.969,0.5 0.457,0.344 0.687,0.844 0.687,1.5 0,0.602 -0.214,1.07 -0.64,1.406 -0.418,0.344 -1,0.516 -1.75,0.516 h -1.188 v 1.125 h 1.25 c 0.676,0 1.192,0.133 1.547,0.406 0.364,0.281 0.547,0.676 0.547,1.188 0,0.519 -0.187,0.922 -0.562,1.203 -0.368,0.281 -0.899,0.422 -1.594,0.422 -0.375,0 -0.781,-0.043 -1.219,-0.125 -0.43,-0.086 -0.902,-0.215 -1.422,-0.391 v 1.234 c 0.52,0.145 1.008,0.254 1.469,0.329 0.457,0.07 0.891,0.109 1.297,0.109 1.051,0 1.879,-0.242 2.484,-0.719 0.614,-0.469 0.922,-1.109 0.922,-1.922 0,-0.574 -0.164,-1.054 -0.484,-1.437 -0.324,-0.387 -0.781,-0.656 -1.375,-0.813 z" /><g
         transform="translate(0,222.78099)"
         id="g52"><path
           id="path54"
           style="fill:none;stroke:#000000;stroke-width:0.80000001;stroke-linecap:butt;stroke-linejoin:round;stroke-miterlimit:10;stroke-dasharray:none;stroke-opacity:1"
           d="m 386.582,-182.75 v -3.5" /></g><path
         id="path56"
         style="fill:#000000;fill-opacity:1;fill-rule:nonzero;stroke:none"
         d="m 379.41,23.547 h 2.266 v 7.796 l -2.469,-0.5 v 1.266 l 2.453,0.484 h 1.375 v -9.046 h 2.25 V 22.39 h -5.875 z" /><path
         id="path58"
         style="fill:#000000;fill-opacity:1;fill-rule:nonzero;stroke:none"
         d="m 391.207,28.047 c -0.625,0 -1.121,-0.215 -1.484,-0.641 -0.356,-0.43 -0.532,-1.008 -0.532,-1.734 0,-0.743 0.176,-1.325 0.532,-1.75 0.363,-0.43 0.859,-0.641 1.484,-0.641 0.613,0 1.102,0.211 1.469,0.641 0.363,0.425 0.547,1.007 0.547,1.75 0,0.726 -0.184,1.304 -0.547,1.734 -0.367,0.426 -0.856,0.641 -1.469,0.641 z m 2.734,4.328 v -1.266 c -0.343,0.164 -0.695,0.289 -1.046,0.375 -0.356,0.094 -0.704,0.141 -1.047,0.141 -0.918,0 -1.618,-0.309 -2.094,-0.922 -0.481,-0.617 -0.75,-1.547 -0.813,-2.797 0.258,0.395 0.594,0.695 1,0.906 0.407,0.219 0.852,0.328 1.344,0.328 1.02,0 1.828,-0.312 2.422,-0.937 0.602,-0.625 0.906,-1.469 0.906,-2.531 0,-1.055 -0.312,-1.899 -0.937,-2.532 -0.617,-0.636 -1.438,-0.953 -2.469,-0.953 -1.187,0 -2.094,0.453 -2.719,1.36 -0.617,0.906 -0.922,2.218 -0.922,3.937 0,1.613 0.379,2.899 1.141,3.859 0.77,0.958 1.797,1.438 3.078,1.438 0.352,0 0.703,-0.039 1.047,-0.109 0.352,-0.063 0.723,-0.164 1.109,-0.297 z" /><g
         transform="translate(0,222.78099)"
         id="g60"><path
           id="path62"
           style="fill:none;stroke:#000000;stroke-width:0.80000001;stroke-linecap:butt;stroke-linejoin:round;stroke-miterlimit:10;stroke-dasharray:none;stroke-opacity:1"
           d="m 448.258,-182.75 v -3.5" /></g><path
         id="path64"
         style="fill:#000000;fill-opacity:1;fill-rule:nonzero;stroke:none"
         d="m 441.086,23.547 h 2.266 v 7.796 l -2.469,-0.5 v 1.266 l 2.453,0.484 h 1.375 v -9.046 h 2.25 V 22.39 h -5.875 z" /><path
         id="path66"
         style="fill:#000000;fill-opacity:1;fill-rule:nonzero;stroke:none"
         d="m 449.785,22.609 v 1.25 c 0.352,-0.168 0.707,-0.293 1.063,-0.375 0.351,-0.086 0.703,-0.125 1.047,-0.125 0.906,0 1.597,0.301 2.078,0.906 0.488,0.614 0.765,1.547 0.828,2.797 -0.262,-0.386 -0.594,-0.687 -1,-0.906 -0.406,-0.211 -0.856,-0.313 -1.344,-0.313 -1.023,0 -1.836,0.305 -2.437,0.922 -0.594,0.625 -0.891,1.473 -0.891,2.547 0,1.039 0.305,1.879 0.922,2.516 0.625,0.633 1.453,0.953 2.484,0.953 1.188,0 2.086,-0.453 2.703,-1.359 0.625,-0.907 0.938,-2.219 0.938,-3.938 0,-1.605 -0.383,-2.891 -1.141,-3.859 -0.762,-0.961 -1.789,-1.438 -3.078,-1.438 -0.355,0 -0.711,0.039 -1.062,0.11 -0.356,0.062 -0.727,0.164 -1.11,0.312 z m 2.75,4.328 c 0.625,0 1.113,0.207 1.469,0.625 0.363,0.426 0.547,1.008 0.547,1.75 0,0.727 -0.184,1.305 -0.547,1.735 -0.356,0.425 -0.844,0.64 -1.469,0.64 -0.617,0 -1.105,-0.215 -1.469,-0.64 -0.367,-0.43 -0.546,-1.008 -0.546,-1.735 0,-0.742 0.179,-1.324 0.546,-1.75 0.364,-0.418 0.852,-0.625 1.469,-0.625 z" /><path
         id="path68"
         style="fill:#000000;fill-opacity:1;fill-rule:nonzero;stroke:none"
         d="m 145.441,15 h 2.125 l 5.172,-9.766 V 15 h 1.532 V 3.328 h -2.125 l -5.172,9.765 V 3.328 h -1.532 z" /><path
         id="path70"
         style="fill:#000000;fill-opacity:1;fill-rule:nonzero;stroke:none"
         d="m 157.191,6.781 v 5.297 h 1.438 V 6.843 c 0,-0.835 0.16,-1.46 0.484,-1.875 0.321,-0.406 0.805,-0.609 1.453,-0.609 0.782,0 1.395,0.242 1.844,0.734 0.445,0.5 0.672,1.176 0.672,2.032 v 4.953 h 1.438 v -8.75 h -1.438 v 1.344 c -0.344,-0.532 -0.75,-0.93 -1.219,-1.188 -0.461,-0.258 -0.992,-0.391 -1.593,-0.391 -1.012,0 -1.778,0.313 -2.297,0.938 -0.524,0.633 -0.782,1.551 -0.782,2.75 z" /><path
         id="path72"
         style="fill:#000000;fill-opacity:1;fill-rule:nonzero;stroke:none"
         d="m 174.301,10.406 c 0.351,0.645 0.781,1.117 1.281,1.422 0.5,0.312 1.086,0.469 1.766,0.469 0.914,0 1.617,-0.325 2.109,-0.969 0.5,-0.637 0.75,-1.543 0.75,-2.719 V 3.328 h -1.453 v 5.234 c 0,0.844 -0.152,1.469 -0.453,1.875 -0.293,0.406 -0.742,0.61 -1.344,0.61 -0.75,0 -1.344,-0.25 -1.781,-0.75 -0.43,-0.493 -0.641,-1.164 -0.641,-2.016 V 3.328 h -1.437 v 5.234 c 0,0.844 -0.153,1.469 -0.453,1.875 -0.293,0.406 -0.75,0.61 -1.375,0.61 -0.731,0 -1.313,-0.25 -1.75,-0.75 -0.43,-0.5 -0.641,-1.172 -0.641,-2.016 V 3.328 h -1.453 v 8.75 h 1.453 v -1.36 c 0.32,0.54 0.711,0.938 1.172,1.188 0.457,0.258 1.004,0.391 1.64,0.391 0.633,0 1.172,-0.164 1.61,-0.485 0.445,-0.324 0.781,-0.793 1,-1.406 z" /><path
         id="path74"
         style="fill:#000000;fill-opacity:1;fill-rule:nonzero;stroke:none"
         d="m 189.355,7.703 c 0,1.051 -0.218,1.879 -0.656,2.484 -0.437,0.602 -1.039,0.906 -1.797,0.906 -0.761,0 -1.359,-0.304 -1.797,-0.906 -0.429,-0.605 -0.64,-1.433 -0.64,-2.484 0,-1.063 0.211,-1.899 0.64,-2.5 0.438,-0.594 1.036,-0.891 1.797,-0.891 0.758,0 1.36,0.297 1.797,0.891 0.438,0.601 0.656,1.437 0.656,2.5 z m -4.89,3.047 c 0.301,0.519 0.68,0.906 1.14,1.156 0.457,0.258 1.008,0.391 1.657,0.391 1.062,0 1.922,-0.422 2.578,-1.266 0.664,-0.844 1,-1.953 1,-3.328 0,-1.375 -0.336,-2.492 -1,-3.344 -0.656,-0.844 -1.516,-1.266 -2.578,-1.266 -0.649,0 -1.2,0.125 -1.657,0.375 -0.46,0.258 -0.839,0.649 -1.14,1.172 V 3.328 h -1.453 v 12.156 h 1.453 z" /><path
         id="path76"
         style="fill:#000000;fill-opacity:1;fill-rule:nonzero;stroke:none"
         d="M 200.719,8.062 V 7.359 h -6.61 c 0.063,-0.992 0.36,-1.746 0.891,-2.266 0.531,-0.511 1.273,-0.765 2.234,-0.765 0.551,0 1.082,0.066 1.594,0.203 0.52,0.133 1.035,0.336 1.547,0.609 V 3.781 c -0.512,-0.219 -1.039,-0.387 -1.578,-0.5 -0.543,-0.125 -1.094,-0.188 -1.656,-0.188 -1.399,0 -2.5,0.407 -3.313,1.219 -0.812,0.821 -1.219,1.926 -1.219,3.313 0,1.426 0.383,2.562 1.157,3.406 0.769,0.844 1.812,1.266 3.125,1.266 1.175,0 2.109,-0.383 2.797,-1.141 0.687,-0.762 1.031,-1.793 1.031,-3.094 z m -1.438,0.422 c -0.011,0.789 -0.234,1.422 -0.672,1.891 -0.429,0.468 -0.996,0.703 -1.703,0.703 -0.804,0 -1.445,-0.231 -1.922,-0.688 -0.48,-0.449 -0.757,-1.086 -0.828,-1.906 z" /><path
         id="path78"
         style="fill:#000000;fill-opacity:1;fill-rule:nonzero;stroke:none"
         d="m 208.137,10.734 c -0.157,0.094 -0.336,0.16 -0.532,0.203 -0.187,0.051 -0.398,0.078 -0.625,0.078 -0.812,0 -1.437,-0.265 -1.875,-0.797 -0.429,-0.531 -0.64,-1.292 -0.64,-2.281 V 3.328 h -1.453 v 8.75 h 1.453 v -1.36 c 0.301,0.532 0.691,0.926 1.172,1.188 0.488,0.258 1.078,0.391 1.765,0.391 0.102,0 0.211,-0.012 0.328,-0.032 0.125,-0.011 0.258,-0.027 0.407,-0.047 z" /><path
         id="path80"
         style="fill:#000000;fill-opacity:1;fill-rule:nonzero;stroke:none"
         d="m 218.129,11.078 c -0.774,0 -1.383,-0.305 -1.828,-0.906 -0.449,-0.606 -0.672,-1.43 -0.672,-2.469 0,-1.055 0.219,-1.883 0.656,-2.485 0.445,-0.593 1.063,-0.89 1.844,-0.89 0.758,0 1.363,0.301 1.812,0.906 0.446,0.602 0.672,1.426 0.672,2.469 0,1.031 -0.226,1.848 -0.672,2.453 -0.449,0.613 -1.054,0.922 -1.812,0.922 z m 0,1.219 c 1.25,0 2.226,-0.407 2.937,-1.219 0.719,-0.813 1.079,-1.938 1.079,-3.375 0,-1.438 -0.36,-2.57 -1.079,-3.391 -0.711,-0.812 -1.687,-1.219 -2.937,-1.219 -1.262,0 -2.246,0.407 -2.953,1.219 -0.711,0.821 -1.063,1.953 -1.063,3.391 0,1.437 0.352,2.562 1.063,3.375 0.707,0.812 1.691,1.219 2.953,1.219 z" /><path
         id="path82"
         style="fill:#000000;fill-opacity:1;fill-rule:nonzero;stroke:none"
         d="m 228.953,15.484 v -1.187 h -1.375 c -0.512,0 -0.871,-0.106 -1.078,-0.313 -0.199,-0.211 -0.297,-0.586 -0.297,-1.125 v -0.781 h 2.375 v -1.11 h -2.375 v -7.64 h -1.437 v 7.64 h -1.375 v 1.11 h 1.375 v 0.609 c 0,0.977 0.222,1.688 0.672,2.125 0.457,0.446 1.175,0.672 2.156,0.672 z" /><path
         id="path84"
         style="fill:#000000;fill-opacity:1;fill-rule:nonzero;stroke:none"
         d="m 240.828,11.828 v -1.36 c -0.406,0.208 -0.828,0.364 -1.266,0.469 -0.437,0.102 -0.89,0.156 -1.359,0.156 -0.719,0 -1.258,-0.109 -1.609,-0.328 -0.356,-0.218 -0.532,-0.547 -0.532,-0.984 0,-0.336 0.126,-0.602 0.376,-0.797 0.257,-0.187 0.773,-0.367 1.546,-0.531 l 0.485,-0.11 c 1.019,-0.218 1.742,-0.531 2.172,-0.937 0.437,-0.398 0.656,-0.949 0.656,-1.656 0,-0.813 -0.324,-1.461 -0.969,-1.938 -0.648,-0.48 -1.531,-0.719 -2.656,-0.719 -0.469,0 -0.961,0.047 -1.469,0.141 -0.5,0.094 -1.031,0.234 -1.594,0.422 V 5.14 c 0.532,-0.281 1.051,-0.492 1.563,-0.625 0.519,-0.136 1.031,-0.203 1.531,-0.203 0.676,0 1.195,0.114 1.563,0.344 0.363,0.227 0.546,0.555 0.546,0.984 0,0.383 -0.132,0.68 -0.39,0.891 -0.262,0.207 -0.84,0.41 -1.734,0.609 l -0.5,0.11 c -0.887,0.187 -1.528,0.472 -1.922,0.859 -0.399,0.395 -0.594,0.93 -0.594,1.609 0,0.821 0.289,1.458 0.875,1.907 0.582,0.445 1.41,0.672 2.484,0.672 0.531,0 1.031,-0.043 1.5,-0.125 0.469,-0.075 0.899,-0.188 1.297,-0.344 z" /><path
         id="path86"
         style="fill:#000000;fill-opacity:1;fill-rule:nonzero;stroke:none"
         d="m 245.008,14.562 v -2.484 h 2.953 v -1.11 h -2.953 v -4.75 c 0,-0.718 0.094,-1.183 0.281,-1.39 0.195,-0.199 0.598,-0.297 1.203,-0.297 h 1.469 V 3.328 h -1.469 c -1.117,0 -1.887,0.207 -2.312,0.625 -0.418,0.414 -0.625,1.172 -0.625,2.265 v 4.75 h -1.047 v 1.11 h 1.047 v 2.484 z" /><path
         id="path88"
         style="fill:#000000;fill-opacity:1;fill-rule:nonzero;stroke:none"
         d="M 257.344,8.062 V 7.359 h -6.61 c 0.063,-0.992 0.36,-1.746 0.891,-2.266 0.531,-0.511 1.273,-0.765 2.234,-0.765 0.551,0 1.082,0.066 1.594,0.203 0.52,0.133 1.035,0.336 1.547,0.609 V 3.781 c -0.512,-0.219 -1.039,-0.387 -1.578,-0.5 -0.543,-0.125 -1.094,-0.188 -1.656,-0.188 -1.399,0 -2.5,0.407 -3.313,1.219 -0.812,0.821 -1.219,1.926 -1.219,3.313 0,1.426 0.383,2.562 1.157,3.406 0.769,0.844 1.812,1.266 3.125,1.266 1.175,0 2.109,-0.383 2.796,-1.141 0.688,-0.762 1.032,-1.793 1.032,-3.094 z m -1.438,0.422 c -0.011,0.789 -0.234,1.422 -0.672,1.891 -0.429,0.468 -0.996,0.703 -1.703,0.703 -0.804,0 -1.445,-0.231 -1.922,-0.688 -0.48,-0.449 -0.757,-1.086 -0.828,-1.906 z" /><path
         id="path90"
         style="fill:#000000;fill-opacity:1;fill-rule:nonzero;stroke:none"
         d="M 261.09,4.64 V 0 h -1.453 v 12.078 h 1.453 V 10.75 c 0.301,0.519 0.68,0.906 1.14,1.156 0.458,0.258 1.008,0.391 1.657,0.391 1.062,0 1.922,-0.422 2.578,-1.266 0.664,-0.844 1,-1.953 1,-3.328 0,-1.375 -0.336,-2.492 -1,-3.344 -0.656,-0.844 -1.516,-1.266 -2.578,-1.266 -0.649,0 -1.199,0.125 -1.657,0.375 -0.46,0.258 -0.839,0.649 -1.14,1.172 z m 4.89,3.063 c 0,1.051 -0.218,1.879 -0.656,2.484 -0.437,0.602 -1.039,0.906 -1.797,0.906 -0.761,0 -1.359,-0.304 -1.797,-0.906 -0.429,-0.605 -0.64,-1.433 -0.64,-2.484 0,-1.063 0.211,-1.899 0.64,-2.5 0.438,-0.594 1.036,-0.891 1.797,-0.891 0.758,0 1.36,0.297 1.797,0.891 0.438,0.601 0.656,1.437 0.656,2.5 z" /><path
         id="path92"
         style="fill:#000000;fill-opacity:1;fill-rule:nonzero;stroke:none"
         d="m 275.438,11.828 v -1.36 c -0.407,0.208 -0.829,0.364 -1.266,0.469 -0.438,0.102 -0.891,0.156 -1.36,0.156 -0.718,0 -1.257,-0.109 -1.609,-0.328 -0.355,-0.218 -0.531,-0.547 -0.531,-0.984 0,-0.336 0.125,-0.602 0.375,-0.797 0.258,-0.187 0.773,-0.367 1.547,-0.531 l 0.484,-0.11 c 1.02,-0.218 1.742,-0.531 2.172,-0.937 0.438,-0.398 0.656,-0.949 0.656,-1.656 0,-0.813 -0.324,-1.461 -0.968,-1.938 -0.649,-0.48 -1.532,-0.719 -2.657,-0.719 -0.469,0 -0.961,0.047 -1.469,0.141 -0.5,0.094 -1.031,0.234 -1.593,0.422 V 5.14 c 0.531,-0.281 1.051,-0.492 1.562,-0.625 0.52,-0.136 1.031,-0.203 1.531,-0.203 0.676,0 1.196,0.114 1.563,0.344 0.363,0.227 0.547,0.555 0.547,0.984 0,0.383 -0.133,0.68 -0.391,0.891 -0.261,0.207 -0.84,0.41 -1.734,0.609 l -0.5,0.11 c -0.887,0.187 -1.527,0.472 -1.922,0.859 -0.398,0.395 -0.594,0.93 -0.594,1.609 0,0.821 0.289,1.458 0.875,1.907 0.582,0.445 1.41,0.672 2.485,0.672 0.531,0 1.031,-0.043 1.5,-0.125 0.468,-0.075 0.898,-0.188 1.297,-0.344 z" /><path
         id="path94"
         style="fill:#000000;fill-opacity:1;fill-rule:nonzero;stroke:none"
         d="m 285.828,15 h 1.328 L 283.094,1.843 h -1.328 z" /><path
         id="path96"
         style="fill:#000000;fill-opacity:1;fill-rule:nonzero;stroke:none"
         d="m 301.777,5 v 3.125 h -2.578 v 1.297 h 4.141 v -5 c -0.617,-0.438 -1.293,-0.774 -2.031,-1 -0.731,-0.219 -1.512,-0.329 -2.344,-0.329 -1.824,0 -3.25,0.532 -4.281,1.594 -1.024,1.071 -1.532,2.563 -1.532,4.469 0,1.906 0.508,3.391 1.532,4.453 1.031,1.063 2.457,1.594 4.281,1.594 0.758,0 1.484,-0.094 2.172,-0.281 0.687,-0.188 1.316,-0.465 1.89,-0.829 v -1.671 c -0.586,0.488 -1.203,0.859 -1.859,1.109 -0.656,0.25 -1.344,0.375 -2.063,0.375 -1.429,0 -2.5,-0.402 -3.218,-1.203 -0.719,-0.793 -1.078,-1.977 -1.078,-3.547 0,-1.574 0.359,-2.762 1.078,-3.563 0.718,-0.792 1.789,-1.187 3.218,-1.187 0.551,0 1.047,0.047 1.485,0.141 0.437,0.093 0.832,0.242 1.187,0.453 z" /><path
         id="path98"
         style="fill:#000000;fill-opacity:1;fill-rule:nonzero;stroke:none"
         d="m 311.227,10.734 c -0.157,0.094 -0.336,0.16 -0.532,0.203 -0.187,0.051 -0.398,0.078 -0.625,0.078 -0.812,0 -1.437,-0.265 -1.875,-0.797 -0.429,-0.531 -0.64,-1.292 -0.64,-2.281 V 3.328 h -1.453 v 8.75 h 1.453 v -1.36 c 0.3,0.532 0.691,0.926 1.172,1.188 0.488,0.258 1.078,0.391 1.765,0.391 0.102,0 0.211,-0.012 0.328,-0.032 0.125,-0.011 0.258,-0.027 0.407,-0.047 z" /><path
         id="path100"
         style="fill:#000000;fill-opacity:1;fill-rule:nonzero;stroke:none"
         d="m 312.738,12.078 h 1.438 v -8.75 h -1.438 z m 0,3.406 h 1.438 v -1.812 h -1.438 z" /><path
         id="path102"
         style="fill:#000000;fill-opacity:1;fill-rule:nonzero;stroke:none"
         d="m 322.938,10.75 v 4.734 h 1.437 V 3.328 h -1.437 V 4.64 c -0.305,-0.523 -0.684,-0.914 -1.141,-1.172 -0.461,-0.25 -1.012,-0.375 -1.656,-0.375 -1.063,0 -1.93,0.422 -2.594,1.266 -0.656,0.852 -0.985,1.969 -0.985,3.344 0,1.375 0.329,2.484 0.985,3.328 0.664,0.844 1.531,1.266 2.594,1.266 0.644,0 1.195,-0.133 1.656,-0.391 0.457,-0.25 0.836,-0.637 1.141,-1.156 z m -4.891,-3.047 c 0,-1.063 0.211,-1.899 0.641,-2.5 0.437,-0.594 1.035,-0.891 1.796,-0.891 0.758,0 1.36,0.297 1.797,0.891 0.438,0.601 0.657,1.437 0.657,2.5 0,1.051 -0.219,1.879 -0.657,2.484 -0.437,0.602 -1.039,0.906 -1.797,0.906 -0.761,0 -1.359,-0.304 -1.796,-0.906 -0.43,-0.605 -0.641,-1.433 -0.641,-2.484 z" /><path
         id="path104"
         style="fill:#000000;fill-opacity:1;fill-rule:nonzero;stroke:none"
         d="m 338.012,11.828 v -1.36 c -0.407,0.208 -0.828,0.364 -1.266,0.469 -0.437,0.102 -0.891,0.156 -1.359,0.156 -0.719,0 -1.258,-0.109 -1.61,-0.328 -0.355,-0.218 -0.531,-0.547 -0.531,-0.984 0,-0.336 0.125,-0.602 0.375,-0.797 0.258,-0.187 0.774,-0.367 1.547,-0.531 l 0.484,-0.11 c 1.02,-0.218 1.743,-0.531 2.172,-0.937 0.438,-0.398 0.656,-0.949 0.656,-1.656 0,-0.813 -0.324,-1.461 -0.968,-1.938 -0.649,-0.48 -1.532,-0.719 -2.657,-0.719 -0.468,0 -0.96,0.047 -1.468,0.141 -0.5,0.094 -1.032,0.234 -1.594,0.422 V 5.14 c 0.531,-0.281 1.051,-0.492 1.562,-0.625 0.52,-0.136 1.032,-0.203 1.532,-0.203 0.675,0 1.195,0.114 1.562,0.344 0.363,0.227 0.547,0.555 0.547,0.984 0,0.383 -0.133,0.68 -0.391,0.891 -0.261,0.207 -0.839,0.41 -1.734,0.609 l -0.5,0.11 c -0.887,0.187 -1.527,0.472 -1.922,0.859 -0.398,0.395 -0.594,0.93 -0.594,1.609 0,0.821 0.29,1.458 0.875,1.907 0.582,0.445 1.411,0.672 2.485,0.672 0.531,0 1.031,-0.043 1.5,-0.125 0.469,-0.075 0.898,-0.188 1.297,-0.344 z" /><path
         id="path106"
         style="fill:#000000;fill-opacity:1;fill-rule:nonzero;stroke:none"
         d="m 340.77,12.078 h 1.437 v -8.75 h -1.437 z m 0,3.406 h 1.437 v -1.812 h -1.437 z" /><path
         id="path108"
         style="fill:#000000;fill-opacity:1;fill-rule:nonzero;stroke:none"
         d="m 344.594,12.078 h 6.828 v -1.313 l -5.406,-6.281 h 5.406 V 3.328 h -7.031 V 4.64 l 5.406,6.297 h -5.203 z" /><path
         id="path110"
         style="fill:#000000;fill-opacity:1;fill-rule:nonzero;stroke:none"
         d="M 361.102,8.062 V 7.359 h -6.61 c 0.063,-0.992 0.36,-1.746 0.891,-2.266 0.531,-0.511 1.273,-0.765 2.234,-0.765 0.551,0 1.082,0.066 1.594,0.203 0.519,0.133 1.035,0.336 1.547,0.609 V 3.781 c -0.512,-0.219 -1.039,-0.387 -1.578,-0.5 -0.543,-0.125 -1.094,-0.188 -1.657,-0.188 -1.398,0 -2.5,0.407 -3.312,1.219 -0.813,0.821 -1.219,1.926 -1.219,3.313 0,1.426 0.383,2.562 1.156,3.406 0.77,0.844 1.813,1.266 3.125,1.266 1.176,0 2.11,-0.383 2.797,-1.141 0.688,-0.762 1.032,-1.793 1.032,-3.094 z m -1.438,0.422 c -0.012,0.789 -0.234,1.422 -0.672,1.891 -0.43,0.468 -0.996,0.703 -1.703,0.703 -0.805,0 -1.445,-0.231 -1.922,-0.688 -0.48,-0.449 -0.758,-1.086 -0.828,-1.906 z" /><g
         transform="translate(0,222.78099)"
         id="g112"><path
           id="path114"
           style="fill:none;stroke:#000000;stroke-width:0.80000001;stroke-linecap:butt;stroke-linejoin:round;stroke-miterlimit:10;stroke-dasharray:none;stroke-opacity:1"
           d="m 57.656,-182.75 h -3.5" /></g><path
         id="path116"
         style="fill:#000000;fill-opacity:1;fill-rule:nonzero;stroke:none"
         d="m 23.938,44.008 c -0.711,0 -1.247,-0.352 -1.61,-1.047 -0.355,-0.7 -0.531,-1.75 -0.531,-3.157 0,-1.398 0.176,-2.449 0.531,-3.156 0.363,-0.699 0.899,-1.047 1.61,-1.047 0.718,0 1.253,0.348 1.609,1.047 0.351,0.707 0.531,1.758 0.531,3.156 0,1.407 -0.18,2.457 -0.531,3.157 -0.356,0.695 -0.891,1.047 -1.609,1.047 z m 0,1.093 c 1.144,0 2.019,-0.453 2.624,-1.359 0.602,-0.906 0.907,-2.219 0.907,-3.938 0,-1.718 -0.305,-3.031 -0.907,-3.937 -0.605,-0.906 -1.48,-1.359 -2.624,-1.359 -1.149,0 -2.024,0.453 -2.626,1.359 -0.605,0.906 -0.906,2.219 -0.906,3.937 0,1.719 0.301,3.032 0.906,3.938 0.602,0.906 1.477,1.359 2.626,1.359 z" /><path
         id="path118"
         style="fill:#000000;fill-opacity:1;fill-rule:nonzero;stroke:none"
         d="m 29.887,36.445 h 1.438 v -1.734 h -1.438 z" /><path
         id="path120"
         style="fill:#000000;fill-opacity:1;fill-rule:nonzero;stroke:none"
         d="m 37.293,44.008 c -0.711,0 -1.246,-0.352 -1.609,-1.047 -0.356,-0.7 -0.532,-1.75 -0.532,-3.157 0,-1.398 0.176,-2.449 0.532,-3.156 0.363,-0.699 0.898,-1.047 1.609,-1.047 0.719,0 1.254,0.348 1.609,1.047 0.352,0.707 0.532,1.758 0.532,3.156 0,1.407 -0.18,2.457 -0.532,3.157 -0.355,0.695 -0.89,1.047 -1.609,1.047 z m 0,1.093 c 1.145,0 2.019,-0.453 2.625,-1.359 0.602,-0.906 0.906,-2.219 0.906,-3.938 0,-1.718 -0.304,-3.031 -0.906,-3.937 -0.606,-0.906 -1.48,-1.359 -2.625,-1.359 -1.148,0 -2.023,0.453 -2.625,1.359 -0.606,0.906 -0.906,2.219 -0.906,3.937 0,1.719 0.3,3.032 0.906,3.938 0.602,0.906 1.477,1.359 2.625,1.359 z" /><path
         id="path122"
         style="fill:#000000;fill-opacity:1;fill-rule:nonzero;stroke:none"
         d="m 46.199,44.008 c -0.711,0 -1.246,-0.352 -1.609,-1.047 -0.356,-0.7 -0.531,-1.75 -0.531,-3.157 0,-1.398 0.175,-2.449 0.531,-3.156 0.363,-0.699 0.898,-1.047 1.609,-1.047 0.719,0 1.254,0.348 1.61,1.047 0.351,0.707 0.531,1.758 0.531,3.156 0,1.407 -0.18,2.457 -0.531,3.157 -0.356,0.695 -0.891,1.047 -1.61,1.047 z m 0,1.093 c 1.145,0 2.02,-0.453 2.625,-1.359 0.602,-0.906 0.906,-2.219 0.906,-3.938 0,-1.718 -0.304,-3.031 -0.906,-3.937 -0.605,-0.906 -1.48,-1.359 -2.625,-1.359 -1.148,0 -2.023,0.453 -2.625,1.359 -0.605,0.906 -0.906,2.219 -0.906,3.937 0,1.719 0.301,3.032 0.906,3.938 0.602,0.906 1.477,1.359 2.625,1.359 z" /><g
         transform="translate(0,222.78099)"
         id="g124"><path
           id="path126"
           style="fill:none;stroke:#000000;stroke-width:0.80000001;stroke-linecap:butt;stroke-linejoin:round;stroke-miterlimit:10;stroke-dasharray:none;stroke-opacity:1"
           d="m 57.656,-141.98 h -3.5" /></g><path
         id="path128"
         style="fill:#000000;fill-opacity:1;fill-rule:nonzero;stroke:none"
         d="m 23.938,84.777 c -0.711,0 -1.247,-0.351 -1.61,-1.047 -0.355,-0.699 -0.531,-1.75 -0.531,-3.156 0,-1.398 0.176,-2.449 0.531,-3.156 0.363,-0.7 0.899,-1.047 1.61,-1.047 0.718,0 1.253,0.347 1.609,1.047 0.351,0.707 0.531,1.758 0.531,3.156 0,1.406 -0.18,2.457 -0.531,3.156 -0.356,0.696 -0.891,1.047 -1.609,1.047 z m 0,1.094 c 1.144,0 2.019,-0.453 2.624,-1.36 0.602,-0.906 0.907,-2.218 0.907,-3.937 0,-1.719 -0.305,-3.031 -0.907,-3.938 -0.605,-0.906 -1.48,-1.359 -2.624,-1.359 -1.149,0 -2.024,0.453 -2.626,1.359 -0.605,0.907 -0.906,2.219 -0.906,3.938 0,1.719 0.301,3.031 0.906,3.937 0.602,0.907 1.477,1.36 2.626,1.36 z" /><path
         id="path130"
         style="fill:#000000;fill-opacity:1;fill-rule:nonzero;stroke:none"
         d="m 29.887,77.215 h 1.438 v -1.734 h -1.438 z" /><path
         id="path132"
         style="fill:#000000;fill-opacity:1;fill-rule:nonzero;stroke:none"
         d="m 37.293,84.777 c -0.711,0 -1.246,-0.351 -1.609,-1.047 -0.356,-0.699 -0.532,-1.75 -0.532,-3.156 0,-1.398 0.176,-2.449 0.532,-3.156 0.363,-0.7 0.898,-1.047 1.609,-1.047 0.719,0 1.254,0.347 1.609,1.047 0.352,0.707 0.532,1.758 0.532,3.156 0,1.406 -0.18,2.457 -0.532,3.156 -0.355,0.696 -0.89,1.047 -1.609,1.047 z m 0,1.094 c 1.145,0 2.019,-0.453 2.625,-1.36 0.602,-0.906 0.906,-2.218 0.906,-3.937 0,-1.719 -0.304,-3.031 -0.906,-3.938 -0.606,-0.906 -1.48,-1.359 -2.625,-1.359 -1.148,0 -2.023,0.453 -2.625,1.359 -0.606,0.907 -0.906,2.219 -0.906,3.938 0,1.719 0.3,3.031 0.906,3.937 0.602,0.907 1.477,1.36 2.625,1.36 z" /><path
         id="path134"
         style="fill:#000000;fill-opacity:1;fill-rule:nonzero;stroke:none"
         d="m 43.262,85.683 h 5.422 v -1.156 h -4.157 v -2.5 c 0.196,0.063 0.395,0.109 0.594,0.141 0.195,0.039 0.399,0.062 0.609,0.062 1.133,0 2.036,-0.312 2.704,-0.937 0.664,-0.625 1,-1.469 1,-2.532 0,-1.105 -0.344,-1.964 -1.032,-2.578 -0.679,-0.605 -1.64,-0.906 -2.89,-0.906 -0.43,0 -0.867,0.039 -1.313,0.109 -0.437,0.075 -0.898,0.18 -1.375,0.329 v 1.39 c 0.414,-0.219 0.844,-0.387 1.281,-0.5 0.438,-0.105 0.895,-0.156 1.375,-0.156 0.79,0 1.415,0.203 1.875,0.609 0.457,0.414 0.688,0.985 0.688,1.703 0,0.707 -0.231,1.266 -0.688,1.672 -0.46,0.414 -1.085,0.625 -1.875,0.625 -0.367,0 -0.734,-0.043 -1.109,-0.125 -0.367,-0.074 -0.734,-0.199 -1.109,-0.375 z" /><g
         transform="translate(0,222.78099)"
         id="g136"><path
           id="path138"
           style="fill:none;stroke:#000000;stroke-width:0.80000001;stroke-linecap:butt;stroke-linejoin:round;stroke-miterlimit:10;stroke-dasharray:none;stroke-opacity:1"
           d="m 57.656,-101.211 h -3.5" /></g><path
         id="path140"
         style="fill:#000000;fill-opacity:1;fill-rule:nonzero;stroke:none"
         d="m 23.938,125.547 c -0.711,0 -1.247,-0.352 -1.61,-1.047 -0.355,-0.699 -0.531,-1.75 -0.531,-3.157 0,-1.398 0.176,-2.449 0.531,-3.156 0.363,-0.699 0.899,-1.047 1.61,-1.047 0.718,0 1.253,0.348 1.609,1.047 0.351,0.707 0.531,1.758 0.531,3.156 0,1.407 -0.18,2.458 -0.531,3.157 -0.356,0.695 -0.891,1.047 -1.609,1.047 z m 0,1.093 c 1.144,0 2.019,-0.453 2.624,-1.359 0.602,-0.906 0.907,-2.219 0.907,-3.938 0,-1.718 -0.305,-3.031 -0.907,-3.937 -0.605,-0.906 -1.48,-1.359 -2.624,-1.359 -1.149,0 -2.024,0.453 -2.626,1.359 -0.605,0.906 -0.906,2.219 -0.906,3.937 0,1.719 0.301,3.032 0.906,3.938 0.602,0.906 1.477,1.359 2.626,1.359 z" /><path
         id="path142"
         style="fill:#000000;fill-opacity:1;fill-rule:nonzero;stroke:none"
         d="m 29.887,117.984 h 1.438 v -1.734 h -1.438 z" /><path
         id="path144"
         style="fill:#000000;fill-opacity:1;fill-rule:nonzero;stroke:none"
         d="m 34.574,117.406 h 2.266 v 7.797 l -2.469,-0.5 v 1.265 l 2.453,0.485 h 1.375 v -9.047 h 2.25 v -1.156 h -5.875 z" /><path
         id="path146"
         style="fill:#000000;fill-opacity:1;fill-rule:nonzero;stroke:none"
         d="m 46.199,125.547 c -0.711,0 -1.246,-0.352 -1.609,-1.047 -0.356,-0.699 -0.531,-1.75 -0.531,-3.157 0,-1.398 0.175,-2.449 0.531,-3.156 0.363,-0.699 0.898,-1.047 1.609,-1.047 0.719,0 1.254,0.348 1.61,1.047 0.351,0.707 0.531,1.758 0.531,3.156 0,1.407 -0.18,2.458 -0.531,3.157 -0.356,0.695 -0.891,1.047 -1.61,1.047 z m 0,1.093 c 1.145,0 2.02,-0.453 2.625,-1.359 0.602,-0.906 0.906,-2.219 0.906,-3.938 0,-1.718 -0.304,-3.031 -0.906,-3.937 -0.605,-0.906 -1.48,-1.359 -2.625,-1.359 -1.148,0 -2.023,0.453 -2.625,1.359 -0.605,0.906 -0.906,2.219 -0.906,3.937 0,1.719 0.301,3.032 0.906,3.938 0.602,0.906 1.477,1.359 2.625,1.359 z" /><g
         transform="translate(0,222.78099)"
         id="g148"><path
           id="path150"
           style="fill:none;stroke:#000000;stroke-width:0.80000001;stroke-linecap:butt;stroke-linejoin:round;stroke-miterlimit:10;stroke-dasharray:none;stroke-opacity:1"
           d="m 57.656,-60.441 h -3.5" /></g><path
         id="path152"
         style="fill:#000000;fill-opacity:1;fill-rule:nonzero;stroke:none"
         d="m 23.938,166.316 c -0.711,0 -1.247,-0.351 -1.61,-1.047 -0.355,-0.699 -0.531,-1.75 -0.531,-3.156 0,-1.398 0.176,-2.449 0.531,-3.156 0.363,-0.699 0.899,-1.047 1.61,-1.047 0.718,0 1.253,0.348 1.609,1.047 0.351,0.707 0.531,1.758 0.531,3.156 0,1.406 -0.18,2.457 -0.531,3.156 -0.356,0.696 -0.891,1.047 -1.609,1.047 z m 0,1.094 c 1.144,0 2.019,-0.453 2.624,-1.359 0.602,-0.907 0.907,-2.219 0.907,-3.938 0,-1.719 -0.305,-3.031 -0.907,-3.937 -0.605,-0.907 -1.48,-1.36 -2.624,-1.36 -1.149,0 -2.024,0.453 -2.626,1.36 -0.605,0.906 -0.906,2.218 -0.906,3.937 0,1.719 0.301,3.031 0.906,3.938 0.602,0.906 1.477,1.359 2.626,1.359 z" /><path
         id="path154"
         style="fill:#000000;fill-opacity:1;fill-rule:nonzero;stroke:none"
         d="m 29.887,158.754 h 1.438 v -1.734 h -1.438 z" /><path
         id="path156"
         style="fill:#000000;fill-opacity:1;fill-rule:nonzero;stroke:none"
         d="m 34.574,158.176 h 2.266 v 7.796 l -2.469,-0.5 v 1.266 l 2.453,0.484 h 1.375 v -9.046 h 2.25 v -1.157 h -5.875 z" /><path
         id="path158"
         style="fill:#000000;fill-opacity:1;fill-rule:nonzero;stroke:none"
         d="m 43.262,167.222 h 5.422 v -1.156 h -4.157 v -2.5 c 0.196,0.063 0.395,0.11 0.594,0.141 0.195,0.039 0.399,0.062 0.609,0.062 1.133,0 2.036,-0.312 2.704,-0.937 0.664,-0.625 1,-1.469 1,-2.531 0,-1.106 -0.344,-1.965 -1.032,-2.579 -0.679,-0.605 -1.64,-0.906 -2.89,-0.906 -0.43,0 -0.867,0.039 -1.313,0.11 -0.437,0.074 -0.898,0.179 -1.375,0.328 v 1.39 c 0.414,-0.218 0.844,-0.386 1.281,-0.5 0.438,-0.105 0.895,-0.156 1.375,-0.156 0.79,0 1.415,0.203 1.875,0.609 0.457,0.414 0.688,0.985 0.688,1.704 0,0.707 -0.231,1.265 -0.688,1.671 -0.46,0.414 -1.085,0.625 -1.875,0.625 -0.367,0 -0.734,-0.043 -1.109,-0.125 -0.367,-0.074 -0.734,-0.199 -1.109,-0.375 z" /><g
         transform="translate(0,222.78099)"
         id="g160"><path
           id="path162"
           style="fill:none;stroke:#000000;stroke-width:0.80000001;stroke-linecap:butt;stroke-linejoin:round;stroke-miterlimit:10;stroke-dasharray:none;stroke-opacity:1"
           d="m 57.656,-19.672 h -3.5" /></g><path
         id="path164"
         style="fill:#000000;fill-opacity:1;fill-rule:nonzero;stroke:none"
         d="m 23.938,207.086 c -0.711,0 -1.247,-0.352 -1.61,-1.047 -0.355,-0.699 -0.531,-1.75 -0.531,-3.156 0,-1.399 0.176,-2.45 0.531,-3.157 0.363,-0.699 0.899,-1.047 1.61,-1.047 0.718,0 1.253,0.348 1.609,1.047 0.351,0.707 0.531,1.758 0.531,3.157 0,1.406 -0.18,2.457 -0.531,3.156 -0.356,0.695 -0.891,1.047 -1.609,1.047 z m 0,1.093 c 1.144,0 2.019,-0.453 2.624,-1.359 0.602,-0.906 0.907,-2.219 0.907,-3.937 0,-1.719 -0.305,-3.032 -0.907,-3.938 -0.605,-0.906 -1.48,-1.359 -2.624,-1.359 -1.149,0 -2.024,0.453 -2.626,1.359 -0.605,0.906 -0.906,2.219 -0.906,3.938 0,1.718 0.301,3.031 0.906,3.937 0.602,0.906 1.477,1.359 2.626,1.359 z" /><path
         id="path166"
         style="fill:#000000;fill-opacity:1;fill-rule:nonzero;stroke:none"
         d="m 29.887,199.523 h 1.438 v -1.734 h -1.438 z" /><path
         id="path168"
         style="fill:#000000;fill-opacity:1;fill-rule:nonzero;stroke:none"
         d="m 35.527,198.945 h 4.813 v -1.156 h -6.469 v 1.156 c 0.52,0.539 1.234,1.27 2.141,2.188 0.906,0.914 1.472,1.503 1.703,1.765 0.437,0.5 0.742,0.922 0.922,1.266 0.175,0.344 0.265,0.679 0.265,1.015 0,0.539 -0.195,0.985 -0.578,1.329 -0.375,0.343 -0.871,0.515 -1.484,0.515 -0.43,0 -0.883,-0.078 -1.36,-0.234 -0.48,-0.149 -0.996,-0.375 -1.546,-0.688 v 1.407 c 0.55,0.218 1.066,0.382 1.546,0.5 0.489,0.113 0.938,0.171 1.344,0.171 1.051,0 1.891,-0.265 2.516,-0.796 0.633,-0.524 0.953,-1.227 0.953,-2.11 0,-0.43 -0.078,-0.828 -0.234,-1.203 -0.157,-0.375 -0.446,-0.82 -0.86,-1.328 -0.117,-0.125 -0.48,-0.508 -1.094,-1.141 -0.605,-0.636 -1.464,-1.523 -2.578,-2.656 z" /><path
         id="path170"
         style="fill:#000000;fill-opacity:1;fill-rule:nonzero;stroke:none"
         d="m 46.199,207.086 c -0.711,0 -1.246,-0.352 -1.609,-1.047 -0.356,-0.699 -0.531,-1.75 -0.531,-3.156 0,-1.399 0.175,-2.45 0.531,-3.157 0.363,-0.699 0.898,-1.047 1.609,-1.047 0.719,0 1.254,0.348 1.61,1.047 0.351,0.707 0.531,1.758 0.531,3.157 0,1.406 -0.18,2.457 -0.531,3.156 -0.356,0.695 -0.891,1.047 -1.61,1.047 z m 0,1.093 c 1.145,0 2.02,-0.453 2.625,-1.359 0.602,-0.906 0.906,-2.219 0.906,-3.937 0,-1.719 -0.304,-3.032 -0.906,-3.938 -0.605,-0.906 -1.48,-1.359 -2.625,-1.359 -1.148,0 -2.023,0.453 -2.625,1.359 -0.605,0.906 -0.906,2.219 -0.906,3.938 0,1.718 0.301,3.031 0.906,3.937 0.602,0.906 1.477,1.359 2.625,1.359 z" /><path
         id="path172"
         style="fill:#000000;fill-opacity:1;fill-rule:nonzero;stroke:none"
         d="m 0.484,81.468 v 6.704 H 1.812 V 83.047 H 5.25 v 4.625 h 1.328 v -4.625 h 5.578 v -1.579 z" /><path
         id="path174"
         style="fill:#000000;fill-opacity:1;fill-rule:nonzero;stroke:none"
         d="M 7.125,94.09 H 8.406 V 89.871 H 7.125 Z" /><path
         id="path176"
         style="fill:#000000;fill-opacity:1;fill-rule:nonzero;stroke:none"
         d="m 0.484,96.445 v 2.344 l 7.938,2.984 -7.938,2.985 v 2.359 H 12.156 V 105.57 H 1.906 l 8,-3 v -1.594 l -8,-3 h 10.25 v -1.531 z" /><path
         id="path178"
         style="fill:#000000;fill-opacity:1;fill-rule:nonzero;stroke:none"
         d="m 7.422,117.672 h 0.703 v -6.61 c 0.992,0.063 1.746,0.36 2.266,0.891 0.511,0.531 0.765,1.273 0.765,2.234 0,0.551 -0.066,1.082 -0.203,1.594 -0.133,0.52 -0.336,1.035 -0.609,1.547 h 1.359 c 0.219,-0.512 0.387,-1.039 0.5,-1.578 0.125,-0.543 0.188,-1.094 0.188,-1.657 0,-1.398 -0.407,-2.5 -1.219,-3.312 -0.82,-0.813 -1.926,-1.219 -3.313,-1.219 -1.425,0 -2.562,0.383 -3.406,1.156 -0.844,0.77 -1.265,1.813 -1.265,3.125 0,1.176 0.382,2.11 1.14,2.797 0.762,0.688 1.793,1.032 3.094,1.032 z M 7,116.234 C 6.211,116.222 5.578,116 5.109,115.562 c -0.468,-0.429 -0.703,-0.996 -0.703,-1.703 0,-0.805 0.231,-1.445 0.688,-1.922 0.449,-0.48 1.086,-0.758 1.906,-0.828 z" /><path
         id="path180"
         style="fill:#000000;fill-opacity:1;fill-rule:nonzero;stroke:none"
         d="m 7.75,124 c 0,-1.157 0.137,-1.961 0.406,-2.407 0.262,-0.449 0.715,-0.671 1.36,-0.671 0.511,0 0.918,0.164 1.218,0.5 0.293,0.332 0.438,0.789 0.438,1.375 0,0.789 -0.281,1.425 -0.844,1.906 -0.562,0.488 -1.312,0.734 -2.25,0.734 H 7.75 Z m -0.594,2.875 h 5 v -1.438 h -1.328 c 0.531,-0.336 0.93,-0.746 1.188,-1.234 0.25,-0.492 0.375,-1.09 0.375,-1.797 0,-0.898 -0.25,-1.609 -0.75,-2.141 -0.508,-0.523 -1.188,-0.781 -2.032,-0.781 -0.988,0 -1.734,0.328 -2.234,0.984 -0.5,0.657 -0.75,1.641 -0.75,2.954 v 2.015 H 6.484 c -0.656,0 -1.164,-0.219 -1.531,-0.656 -0.363,-0.438 -0.547,-1.047 -0.547,-1.828 0,-0.5 0.063,-0.992 0.188,-1.469 0.117,-0.469 0.293,-0.922 0.531,-1.359 H 3.797 c -0.195,0.519 -0.348,1.023 -0.453,1.515 -0.102,0.5 -0.156,0.985 -0.156,1.453 0,1.27 0.328,2.219 0.984,2.844 0.656,0.625 1.652,0.938 2.984,0.938 z" /><path
         id="path182"
         style="fill:#000000;fill-opacity:1;fill-rule:nonzero;stroke:none"
         d="m 3.656,135.414 h 1.36 c -0.207,-0.406 -0.364,-0.828 -0.469,-1.266 -0.102,-0.437 -0.156,-0.89 -0.156,-1.359 0,-0.719 0.109,-1.258 0.328,-1.61 0.219,-0.355 0.547,-0.531 0.984,-0.531 0.336,0 0.602,0.125 0.797,0.375 0.188,0.258 0.367,0.774 0.531,1.547 l 0.11,0.484 c 0.218,1.02 0.531,1.743 0.937,2.172 0.399,0.438 0.949,0.657 1.656,0.657 0.813,0 1.461,-0.325 1.938,-0.969 0.48,-0.649 0.719,-1.531 0.719,-2.656 0,-0.469 -0.047,-0.961 -0.141,-1.469 -0.094,-0.5 -0.234,-1.031 -0.422,-1.594 h -1.484 c 0.281,0.531 0.492,1.051 0.625,1.563 0.136,0.519 0.203,1.031 0.203,1.531 0,0.676 -0.113,1.195 -0.344,1.562 -0.226,0.364 -0.555,0.547 -0.984,0.547 -0.383,0 -0.68,-0.133 -0.891,-0.39 -0.207,-0.262 -0.41,-0.84 -0.609,-1.735 l -0.11,-0.5 c -0.187,-0.887 -0.472,-1.527 -0.859,-1.922 -0.395,-0.398 -0.93,-0.593 -1.609,-0.593 -0.821,0 -1.457,0.289 -1.907,0.875 -0.445,0.582 -0.671,1.41 -0.671,2.484 0,0.531 0.042,1.031 0.124,1.5 0.075,0.469 0.188,0.898 0.344,1.297 z" /><path
         id="path184"
         style="fill:#000000;fill-opacity:1;fill-rule:nonzero;stroke:none"
         d="M 8.703,138.015 H 3.406 v 1.438 h 5.235 c 0.836,0 1.461,0.16 1.875,0.484 0.406,0.321 0.609,0.805 0.609,1.453 0,0.782 -0.242,1.395 -0.734,1.844 -0.5,0.445 -1.176,0.672 -2.032,0.672 H 3.406 v 1.437 h 8.75 v -1.437 h -1.344 c 0.532,-0.344 0.93,-0.75 1.188,-1.219 0.258,-0.461 0.391,-0.992 0.391,-1.594 0,-1.011 -0.313,-1.777 -0.938,-2.296 -0.633,-0.524 -1.551,-0.782 -2.75,-0.782 z" /><path
         id="path186"
         style="fill:#000000;fill-opacity:1;fill-rule:nonzero;stroke:none"
         d="m 4.75,153.379 c -0.094,-0.157 -0.16,-0.336 -0.203,-0.532 -0.051,-0.187 -0.078,-0.398 -0.078,-0.625 0,-0.812 0.265,-1.437 0.797,-1.875 0.531,-0.429 1.293,-0.64 2.281,-0.64 h 4.609 v -1.453 h -8.75 v 1.453 h 1.36 c -0.532,0.301 -0.926,0.691 -1.188,1.172 -0.258,0.488 -0.39,1.078 -0.39,1.765 0,0.102 0.011,0.211 0.031,0.328 0.011,0.125 0.027,0.258 0.047,0.407 z" /><path
         id="path188"
         style="fill:#000000;fill-opacity:1;fill-rule:nonzero;stroke:none"
         d="m 7.422,162.379 h 0.703 v -6.61 c 0.992,0.063 1.746,0.36 2.266,0.891 0.511,0.531 0.765,1.273 0.765,2.234 0,0.551 -0.066,1.082 -0.203,1.594 -0.133,0.52 -0.336,1.035 -0.609,1.547 h 1.359 c 0.219,-0.512 0.387,-1.039 0.5,-1.578 0.125,-0.543 0.188,-1.094 0.188,-1.656 0,-1.399 -0.407,-2.5 -1.219,-3.313 -0.82,-0.812 -1.926,-1.219 -3.313,-1.219 -1.425,0 -2.562,0.383 -3.406,1.157 -0.844,0.769 -1.265,1.812 -1.265,3.125 0,1.175 0.382,2.109 1.14,2.796 0.762,0.688 1.793,1.032 3.094,1.032 z M 7,160.941 c -0.789,-0.012 -1.422,-0.234 -1.891,-0.672 -0.468,-0.429 -0.703,-0.996 -0.703,-1.703 0,-0.805 0.231,-1.445 0.688,-1.922 0.449,-0.48 1.086,-0.758 1.906,-0.828 z" /></g><g
       id="g190"><g
         clip-path="url(#clipPath196)"
         id="g192"><g
           transform="translate(0,-0.219009)"
           id="g198"><g
             id="g200"><g
               clip-path="url(#clipPath206)"
               id="g202"><g
                 id="g208" /><g
                 id="g210"><g
                   clip-path="url(#clipPath216)"
                   id="g212"><g
                     id="g218"><g
                       id="g220"><g
                         clip-path="url(#clipPath226)"
                         id="g222"><g
                           id="g228" /><g
                           id="g230"><g
                             clip-path="url(#clipPath236)"
                             id="g232"><g
                               id="g238"><g
                                 id="g240"><g
                                   clip-path="url(#clipPath246)"
                                   id="g242"><g
                                   id="g248" /><g
                                   id="g250"><g
                                   clip-path="url(#clipPath256)"
                                   id="g252"><g
                                   id="g258"><g
                                   id="g260"><g
                                   clip-path="url(#clipPath266)"
                                   id="g262"><g
                                   id="g268"><g
                                   transform="translate(0,223)"
                                   id="g270"><path
                                   id="path272"
                                   style="fill:none;stroke:#b3b3b3;stroke-width:3;stroke-linecap:square;stroke-linejoin:round;stroke-miterlimit:10;stroke-dasharray:none;stroke-opacity:1"
                                   d="M 78.215,-182.75 H 448.258" /></g></g></g></g></g></g></g></g></g></g></g></g><g
                           id="g274"><g
                             clip-path="url(#clipPath280)"
                             id="g276"><g
                               id="g282"><g
                                 id="g284"><g
                                   clip-path="url(#clipPath290)"
                                   id="g286"><g
                                   id="g292" /><g
                                   id="g294"><g
                                   clip-path="url(#clipPath300)"
                                   id="g296"><g
                                   id="g302"><g
                                   id="g304"><g
                                   clip-path="url(#clipPath310)"
                                   id="g306"><g
                                   id="g312"><g
                                   transform="translate(0,223)"
                                   id="g314"><path
                                   id="path316"
                                   style="fill:none;stroke:#000000;stroke-width:3;stroke-linecap:square;stroke-linejoin:round;stroke-miterlimit:10;stroke-dasharray:none;stroke-opacity:1"
                                   d="M 78.215,-45.559 H 448.258" /></g></g></g></g></g></g></g></g></g></g></g></g><g
                           id="g318"><g
                             clip-path="url(#clipPath324)"
                             id="g320"><g
                               id="g326"><g
                                 id="g328"><g
                                   clip-path="url(#clipPath334)"
                                   id="g330"><g
                                   id="g336" /><g
                                   id="g338"><g
                                   clip-path="url(#clipPath344)"
                                   id="g340"><g
                                   id="g346"><g
                                   id="g348"><g
                                   clip-path="url(#clipPath354)"
                                   id="g350"><g
                                   id="g356"><g
                                   transform="translate(0,223)"
                                   id="g358"><path
                                   id="path360"
                                   style="fill:none;stroke:#ff0000;stroke-width:3;stroke-linecap:butt;stroke-linejoin:round;stroke-miterlimit:10;stroke-dasharray:19.2, 4.8, 3, 4.8;stroke-dashoffset:0;stroke-opacity:1"
                                   d="m 78.215,-182.75 h 41.113 l 20.559,134.16 h 20.558 l 20.559,2.676 h 41.117 l 20.555,-0.805 h 41.117 l 20.559,0.805 h 20.558 l 20.555,0.332 h 102.793" /></g></g></g></g></g></g></g></g></g></g></g></g><g
                           id="g362"><g
                             clip-path="url(#clipPath368)"
                             id="g364"><g
                               id="g370"><g
                                 id="g372"><g
                                   clip-path="url(#clipPath378)"
                                   id="g374"><g
                                   id="g380" /><g
                                   id="g382"><g
                                   clip-path="url(#clipPath388)"
                                   id="g384"><g
                                   id="g390"><g
                                   id="g392"><g
                                   clip-path="url(#clipPath398)"
                                   id="g394"><g
                                   id="g400"><g
                                   transform="translate(0,223)"
                                   id="g402"><path
                                   id="path404"
                                   style="fill:none;stroke:#008033;stroke-width:3;stroke-linecap:butt;stroke-linejoin:round;stroke-miterlimit:10;stroke-dasharray:11.1, 4.8;stroke-dashoffset:0;stroke-opacity:1"
                                   d="m 78.215,-182.75 h 20.558 l 20.555,135.809 20.559,4.953 h 20.558 l 20.559,8.781 20.558,-1.457 h 20.559 l 20.555,1.406 20.558,0.008 h 185.024" /></g></g></g></g></g></g></g></g></g></g></g></g></g></g></g></g></g></g></g></g></g></g><g
       id="g406"><g
         transform="translate(0,222.78099)"
         id="g408"><path
           id="path410"
           style="fill:none;stroke:#000000;stroke-width:0.80000001;stroke-linecap:square;stroke-linejoin:miter;stroke-miterlimit:10;stroke-dasharray:none;stroke-opacity:1"
           d="M 57.656,-182.75 V -19.672" /></g><g
         transform="translate(0,222.78099)"
         id="g412"><path
           id="path414"
           style="fill:none;stroke:#000000;stroke-width:0.80000001;stroke-linecap:square;stroke-linejoin:miter;stroke-miterlimit:10;stroke-dasharray:none;stroke-opacity:1"
           d="M 448.258,-182.75 V -19.672" /></g><g
         transform="translate(0,222.78099)"
         id="g416"><path
           id="path418"
           style="fill:none;stroke:#000000;stroke-width:0.80000001;stroke-linecap:square;stroke-linejoin:miter;stroke-miterlimit:10;stroke-dasharray:none;stroke-opacity:1"
           d="M 57.656,-182.75 H 448.258" /></g><g
         transform="translate(0,222.78099)"
         id="g420"><path
           id="path422"
           style="fill:none;stroke:#000000;stroke-width:0.80000001;stroke-linecap:square;stroke-linejoin:miter;stroke-miterlimit:10;stroke-dasharray:none;stroke-opacity:1"
           d="M 57.656,-19.672 H 448.258" /></g><g
         transform="translate(0,222.78099)"
         id="g424"><path
           id="path426"
           style="fill:none;stroke:#b3b3b3;stroke-width:1.93670404;stroke-linecap:square;stroke-linejoin:round;stroke-miterlimit:10;stroke-dasharray:none;stroke-opacity:1"
           d="m 331.703,-158.434 h 18.074" /></g><path
         id="path428"
         style="fill:#000000;fill-opacity:1;fill-rule:nonzero;stroke:none"
         d="m 361.848,67.558 v -0.867 c -0.344,0.164 -0.664,0.277 -0.969,0.356 -0.297,0.078 -0.582,0.121 -0.867,0.121 -0.485,0 -0.856,-0.098 -1.117,-0.285 -0.262,-0.188 -0.395,-0.454 -0.395,-0.797 0,-0.297 0.086,-0.52 0.262,-0.664 0.176,-0.149 0.508,-0.266 1,-0.352 l 0.535,-0.113 c 0.664,-0.129 1.152,-0.352 1.473,-0.676 0.312,-0.316 0.472,-0.742 0.472,-1.281 0,-0.641 -0.215,-1.125 -0.644,-1.453 -0.426,-0.329 -1.051,-0.493 -1.879,-0.493 -0.317,0 -0.649,0.039 -0.996,0.11 -0.352,0.066 -0.715,0.172 -1.09,0.312 v 0.918 c 0.363,-0.199 0.715,-0.355 1.058,-0.461 0.348,-0.101 0.692,-0.152 1.028,-0.152 0.508,0 0.894,0.098 1.172,0.301 0.281,0.203 0.421,0.488 0.421,0.859 0,0.32 -0.097,0.574 -0.3,0.754 -0.196,0.184 -0.524,0.32 -0.977,0.414 l -0.547,0.102 c -0.664,0.132 -1.148,0.343 -1.441,0.625 -0.297,0.281 -0.445,0.675 -0.445,1.179 0,0.578 0.207,1.036 0.617,1.375 0.406,0.332 0.972,0.504 1.691,0.504 0.309,0 0.629,-0.031 0.949,-0.093 0.325,-0.055 0.653,-0.137 0.989,-0.243 z" /><path
         id="path430"
         style="fill:#000000;fill-opacity:1;fill-rule:nonzero;stroke:none"
         d="m 365.328,61.183 -2.512,6.59 h 0.93 l 2.086,-5.551 2.098,5.551 h 0.929 l -2.511,-6.59 z" /><path
         id="path432"
         style="fill:#000000;fill-opacity:1;fill-rule:nonzero;stroke:none"
         d="m 369.816,67.773 h 1.332 l 1.672,-4.48 1.696,4.48 h 1.332 v -6.59 h -0.879 v 5.793 l -1.696,-4.519 h -0.894 l -1.695,4.519 v -5.793 h -0.868 z" /><path
         id="path434"
         style="fill:#000000;fill-opacity:1;fill-rule:nonzero;stroke:none"
         d="m 361.82,57.504 v -0.868 c -0.34,0.165 -0.664,0.278 -0.968,0.356 -0.297,0.078 -0.582,0.121 -0.864,0.121 -0.484,0 -0.859,-0.098 -1.121,-0.285 -0.262,-0.188 -0.394,-0.453 -0.394,-0.797 0,-0.297 0.086,-0.52 0.261,-0.664 0.176,-0.149 0.508,-0.27 1,-0.356 l 0.536,-0.109 c 0.664,-0.129 1.152,-0.351 1.472,-0.676 0.317,-0.316 0.473,-0.742 0.473,-1.281 0,-0.641 -0.215,-1.125 -0.645,-1.453 C 361.148,51.164 360.52,51 359.695,51 c -0.32,0 -0.652,0.035 -1,0.109 -0.351,0.067 -0.715,0.172 -1.09,0.313 v 0.918 c 0.364,-0.2 0.715,-0.356 1.059,-0.465 0.348,-0.098 0.691,-0.149 1.031,-0.149 0.504,0 0.891,0.102 1.168,0.301 0.285,0.203 0.426,0.488 0.426,0.859 0,0.321 -0.101,0.575 -0.305,0.754 -0.195,0.184 -0.519,0.321 -0.976,0.414 l -0.547,0.102 c -0.664,0.133 -1.145,0.344 -1.441,0.625 -0.297,0.281 -0.446,0.676 -0.446,1.18 0,0.578 0.207,1.035 0.617,1.371 0.407,0.336 0.973,0.508 1.696,0.508 0.304,0 0.625,-0.032 0.945,-0.094 0.324,-0.055 0.652,-0.133 0.988,-0.242 z" /><g
         transform="translate(0,222.78099)"
         id="g436"><path
           id="path438"
           style="fill:none;stroke:#ff0000;stroke-width:1.93670404;stroke-linecap:butt;stroke-linejoin:round;stroke-miterlimit:10;stroke-dasharray:12.394908, 3.098727, 1.936704, 3.098727;stroke-dashoffset:0;stroke-opacity:1"
           d="m 330.734,-168.883 h 18.075" /></g><path
         id="path440"
         style="fill:#000000;fill-opacity:1;fill-rule:nonzero;stroke:none"
         d="m 364.359,51.129 -2.511,6.589 h 0.929 l 2.086,-5.55 2.098,5.55 h 0.93 l -2.512,-6.589 z" /><path
         id="path442"
         style="fill:#000000;fill-opacity:1;fill-rule:nonzero;stroke:none"
         d="m 368.848,57.718 h 1.332 l 1.672,-4.48 1.695,4.48 h 1.332 V 51.129 H 374 v 5.793 l -1.691,-4.52 h -0.899 l -1.695,4.52 v -5.793 h -0.867 z" /><path
         id="path444"
         style="fill:#000000;fill-opacity:1;fill-rule:nonzero;stroke:none"
         d="m 379.363,50.355 0.254,1.231 h -1.051 l 0.102,0.523 h 1.664 l -0.402,-2.078 c -0.282,-0.148 -0.59,-0.27 -0.918,-0.352 -0.328,-0.082 -0.66,-0.121 -0.989,-0.121 -0.593,0 -1.058,0.16 -1.39,0.481 -0.332,0.328 -0.496,0.789 -0.496,1.375 0,0.488 0.101,0.953 0.304,1.39 0.2,0.438 0.477,0.801 0.836,1.09 0.227,0.18 0.473,0.317 0.739,0.403 0.265,0.093 0.562,0.14 0.886,0.14 0.293,0 0.575,-0.035 0.848,-0.109 0.273,-0.074 0.531,-0.188 0.773,-0.332 l -0.128,-0.688 c -0.192,0.203 -0.411,0.356 -0.668,0.453 -0.25,0.106 -0.52,0.165 -0.805,0.165 -0.34,0 -0.633,-0.067 -0.887,-0.192 -0.258,-0.129 -0.484,-0.328 -0.676,-0.598 -0.179,-0.222 -0.312,-0.488 -0.414,-0.796 -0.097,-0.309 -0.14,-0.625 -0.14,-0.946 0,-0.441 0.109,-0.769 0.332,-0.992 0.226,-0.219 0.562,-0.332 1.008,-0.332 0.226,0 0.445,0.023 0.644,0.07 0.207,0.047 0.399,0.118 0.574,0.215 z" /><g
         transform="translate(0,222.78099)"
         id="g446"><path
           id="path448"
           style="fill:none;stroke:#000000;stroke-width:1.93670404;stroke-linecap:square;stroke-linejoin:round;stroke-miterlimit:10;stroke-dasharray:none;stroke-opacity:1"
           d="m 387.055,-158.434 h 18.078" /></g><path
         id="path450"
         style="fill:#000000;fill-opacity:1;fill-rule:nonzero;stroke:none"
         d="m 417.203,67.953 v -0.867 c -0.344,0.16 -0.664,0.277 -0.969,0.351 -0.296,0.082 -0.586,0.121 -0.867,0.121 -0.484,0 -0.855,-0.093 -1.117,-0.281 -0.266,-0.187 -0.395,-0.453 -0.395,-0.797 0,-0.297 0.086,-0.519 0.262,-0.664 0.176,-0.148 0.508,-0.269 1,-0.355 l 0.531,-0.11 c 0.668,-0.129 1.157,-0.351 1.473,-0.675 0.317,-0.321 0.477,-0.747 0.477,-1.282 0,-0.64 -0.219,-1.125 -0.645,-1.453 -0.426,-0.332 -1.051,-0.492 -1.879,-0.492 -0.316,0 -0.648,0.035 -0.996,0.109 -0.351,0.067 -0.715,0.172 -1.09,0.313 v 0.918 c 0.364,-0.203 0.715,-0.36 1.059,-0.465 0.348,-0.102 0.691,-0.148 1.027,-0.148 0.504,0 0.895,0.097 1.172,0.3 0.281,0.203 0.422,0.485 0.422,0.856 0,0.324 -0.102,0.578 -0.301,0.758 -0.195,0.183 -0.523,0.316 -0.98,0.414 l -0.543,0.101 c -0.664,0.133 -1.149,0.34 -1.442,0.625 -0.297,0.281 -0.445,0.676 -0.445,1.18 0,0.578 0.203,1.035 0.613,1.371 0.41,0.336 0.977,0.504 1.696,0.504 0.308,0 0.625,-0.031 0.949,-0.09 0.324,-0.055 0.652,-0.137 0.988,-0.242 z" /><path
         id="path452"
         style="fill:#000000;fill-opacity:1;fill-rule:nonzero;stroke:none"
         d="m 420.68,61.578 -2.512,6.586 h 0.93 l 2.086,-5.547 2.101,5.547 h 0.926 l -2.512,-6.586 z" /><path
         id="path454"
         style="fill:#000000;fill-opacity:1;fill-rule:nonzero;stroke:none"
         d="m 425.168,68.164 h 1.332 l 1.676,-4.477 1.695,4.477 h 1.332 v -6.586 h -0.879 v 5.789 l -1.695,-4.52 h -0.899 l -1.691,4.52 v -5.789 h -0.871 z" /><path
         id="path456"
         style="fill:#000000;fill-opacity:1;fill-rule:nonzero;stroke:none"
         d="m 433.258,64.804 h 0.644 l -0.918,-4.707 h -0.644 z" /><path
         id="path458"
         style="fill:#000000;fill-opacity:1;fill-rule:nonzero;stroke:none"
         d="m 434.719,60.89 h 0.668 v -0.793 h -0.668 z" /><path
         id="path460"
         style="fill:#000000;fill-opacity:1;fill-rule:nonzero;stroke:none"
         d="m 438.902,64.281 -0.324,-1.676 h 0.828 c 0.313,0 0.574,0.086 0.778,0.266 0.199,0.18 0.3,0.41 0.3,0.695 0,0.227 -0.066,0.402 -0.203,0.524 -0.136,0.125 -0.324,0.191 -0.574,0.191 z m 1.168,-1.926 c 0.133,-0.035 0.246,-0.109 0.332,-0.234 0.094,-0.117 0.2,-0.367 0.313,-0.735 l 0.406,-1.289 h -0.676 l -0.363,1.207 c -0.098,0.309 -0.207,0.516 -0.332,0.618 -0.121,0.105 -0.312,0.16 -0.566,0.16 h -0.707 l -0.383,-1.985 h -0.645 l 0.918,4.707 h 1.43 c 0.437,0 0.769,-0.097 1,-0.3 0.234,-0.196 0.351,-0.481 0.351,-0.848 0,-0.328 -0.097,-0.617 -0.3,-0.859 -0.196,-0.235 -0.453,-0.383 -0.778,-0.442 z" /><path
         id="path462"
         style="fill:#000000;fill-opacity:1;fill-rule:nonzero;stroke:none"
         d="m 442.359,60.89 h 0.664 v -0.793 h -0.664 z" /><g
         transform="translate(0,222.78099)"
         id="g464"><path
           id="path466"
           style="fill:none;stroke:#008033;stroke-width:1.93670404;stroke-linecap:butt;stroke-linejoin:round;stroke-miterlimit:10;stroke-dasharray:7.165806, 3.098727;stroke-dashoffset:0;stroke-opacity:1"
           d="m 386.086,-168.883 h 18.078" /></g><path
         id="path468"
         style="fill:#000000;fill-opacity:1;fill-rule:nonzero;stroke:none"
         d="m 416.234,57.504 v -0.868 c -0.343,0.165 -0.664,0.278 -0.968,0.356 -0.297,0.078 -0.582,0.121 -0.868,0.121 -0.484,0 -0.855,-0.098 -1.117,-0.285 -0.261,-0.188 -0.394,-0.453 -0.394,-0.797 0,-0.297 0.086,-0.52 0.261,-0.664 0.176,-0.149 0.508,-0.27 1,-0.356 l 0.536,-0.109 c 0.664,-0.129 1.152,-0.351 1.472,-0.676 0.313,-0.316 0.473,-0.742 0.473,-1.281 0,-0.641 -0.219,-1.125 -0.645,-1.453 -0.425,-0.328 -1.05,-0.492 -1.879,-0.492 -0.316,0 -0.648,0.035 -0.996,0.109 -0.351,0.067 -0.714,0.172 -1.089,0.313 v 0.918 c 0.363,-0.2 0.714,-0.356 1.058,-0.465 0.348,-0.098 0.692,-0.149 1.027,-0.149 0.508,0 0.895,0.102 1.172,0.301 0.282,0.203 0.426,0.488 0.426,0.859 0,0.321 -0.101,0.575 -0.305,0.754 -0.195,0.184 -0.523,0.321 -0.98,0.414 l -0.543,0.102 c -0.664,0.133 -1.148,0.344 -1.441,0.625 -0.297,0.281 -0.446,0.676 -0.446,1.18 0,0.578 0.203,1.035 0.617,1.371 0.407,0.336 0.973,0.508 1.696,0.508 0.304,0 0.625,-0.032 0.945,-0.094 0.324,-0.055 0.652,-0.133 0.988,-0.242 z" /><path
         id="path470"
         style="fill:#000000;fill-opacity:1;fill-rule:nonzero;stroke:none"
         d="m 419.711,51.129 -2.508,6.589 h 0.926 l 2.09,-5.55 2.097,5.55 h 0.926 l -2.512,-6.589 z" /><path
         id="path472"
         style="fill:#000000;fill-opacity:1;fill-rule:nonzero;stroke:none"
         d="m 424.203,57.718 h 1.332 l 1.672,-4.48 1.695,4.48 h 1.332 v -6.589 h -0.879 v 5.793 l -1.695,-4.52 h -0.894 l -1.696,4.52 v -5.793 h -0.867 z" /><path
         id="path474"
         style="fill:#000000;fill-opacity:1;fill-rule:nonzero;stroke:none"
         d="m 435.688,53.996 -0.133,-0.676 c -0.203,0.199 -0.418,0.352 -0.645,0.453 -0.222,0.102 -0.465,0.153 -0.726,0.153 -0.364,0 -0.684,-0.09 -0.961,-0.262 -0.27,-0.172 -0.5,-0.434 -0.696,-0.789 -0.129,-0.231 -0.226,-0.473 -0.293,-0.727 -0.066,-0.25 -0.097,-0.5 -0.097,-0.754 0,-0.433 0.109,-0.761 0.332,-0.992 0.222,-0.219 0.543,-0.332 0.969,-0.332 0.292,0 0.578,0.047 0.847,0.141 0.266,0.093 0.527,0.234 0.777,0.425 l -0.144,-0.757 c -0.25,-0.11 -0.5,-0.188 -0.754,-0.243 -0.258,-0.05 -0.512,-0.078 -0.769,-0.078 -0.606,0 -1.079,0.16 -1.422,0.481 -0.336,0.328 -0.504,0.789 -0.504,1.375 0,0.375 0.062,0.742 0.191,1.097 0.129,0.364 0.313,0.696 0.555,1 0.254,0.313 0.547,0.547 0.879,0.696 0.328,0.152 0.711,0.23 1.148,0.23 0.27,0 0.528,-0.035 0.77,-0.109 0.242,-0.074 0.465,-0.188 0.676,-0.332 z" /></g></g></svg>