<?xml version="1.0" encoding="UTF-8" standalone="no"?>
<!-- Created with Inkscape (http://www.inkscape.org/) -->

<svg
   xmlns:dc="http://purl.org/dc/elements/1.1/"
   xmlns:cc="http://creativecommons.org/ns#"
   xmlns:rdf="http://www.w3.org/1999/02/22-rdf-syntax-ns#"
   xmlns:svg="http://www.w3.org/2000/svg"
   xmlns="http://www.w3.org/2000/svg"
   xmlns:xlink="http://www.w3.org/1999/xlink"
   xmlns:sodipodi="http://sodipodi.sourceforge.net/DTD/sodipodi-0.dtd"
   xmlns:inkscape="http://www.inkscape.org/namespaces/inkscape"
   width="63mm"
   height="89mm"
   viewBox="0 0 63 89"
   version="1.1"
   id="svg8"
   inkscape:version="0.92.3 (2405546, 2018-03-11)"
   sodipodi:docname="confusion.svg">
  <defs
     id="defs2" />
  <sodipodi:namedview
     id="base"
     pagecolor="#ffffff"
     bordercolor="#666666"
     borderopacity="1.0"
     inkscape:pageopacity="0.0"
     inkscape:pageshadow="2"
     inkscape:zoom="1.979899"
     inkscape:cx="27.908401"
     inkscape:cy="288.09126"
     inkscape:document-units="mm"
     inkscape:current-layer="layer1"
     showgrid="false"
     inkscape:window-width="1920"
     inkscape:window-height="1025"
     inkscape:window-x="0"
     inkscape:window-y="0"
     inkscape:window-maximized="1" />
  <metadata
     id="metadata5">
    <rdf:RDF>
      <cc:Work
         rdf:about="">
        <dc:format>image/svg+xml</dc:format>
        <dc:type
           rdf:resource="http://purl.org/dc/dcmitype/StillImage" />
        <dc:title></dc:title>
      </cc:Work>
    </rdf:RDF>
  </metadata>
  <g
     inkscape:label="Layer 1"
     inkscape:groupmode="layer"
     id="layer1"
     transform="translate(0,-208)">
    <path
       style="opacity:1;vector-effect:none;fill:#00ff00;fill-opacity:0.47290643;stroke:#000000;stroke-width:0.26458332;stroke-linecap:round;stroke-linejoin:miter;stroke-miterlimit:4;stroke-dasharray:none;stroke-dashoffset:0;stroke-opacity:1"
       d="m 19.24327,236.1407 c -0.05757,0.007 -0.11614,0.004 -0.173633,0.0114 -0.5263,0.0676 -1.049495,0.16452 -1.570447,0.27698 -1.041904,0.22492 -2.075178,0.51274 -3.108854,0.75655 -0.585653,0.25778 -1.156876,0.54579 -1.719275,0.85214 -0.562399,0.30636 -1.116087,0.63092 -1.667082,0.9617 -1.1019899,0.66156 -2.1932517,1.34774 -3.3207273,1.96215 -0.3139786,0.0925 -0.6096714,0.20598 -0.8888343,0.33797 -0.2791632,0.13198 -0.5417908,0.28255 -0.7896162,0.44907 -0.4956503,0.33303 -0.9317524,0.73034 -1.3229166,1.1715 -0.391164,0.44116 -0.7371162,0.92629 -1.0516153,1.43557 -0.3144988,0.50928 -0.5978583,1.04237 -0.8635132,1.57975 -0.02353,1.49278 -0.1558352,2.98728 -0.227893,4.48138 -0.036029,0.74705 -0.056658,1.4939 -0.041341,2.24069 0.015317,0.74679 0.066719,1.49351 0.1757,2.23966 0.1887088,1.12701 0.4210098,2.24807 0.6790283,3.36465 0.2580182,1.11658 0.5414652,2.22869 0.8335406,3.33623 0.1810293,0.93908 0.4197009,1.87007 0.7110677,2.78329 0.2913671,0.91322 0.6356398,1.80843 1.0273276,2.67632 0.083483,0.36997 0.2058821,0.71405 0.3612182,1.03508 0.1553363,0.32104 0.3436572,0.61916 0.5586224,0.89659 0.214965,0.27743 0.4564497,0.53446 0.718819,0.7736 0.2623695,0.23913 0.5458102,0.46046 0.8433593,0.66662 0.5950987,0.41234 1.248006,0.76405 1.9104778,1.07642 0.662472,0.31237 1.334238,0.58529 1.966288,0.84026 0.783888,0.12069 1.571991,0.17772 2.362647,0.20205 0.790655,0.0243 1.583726,0.0162 2.377115,0.007 0.740486,-0.009 1.481065,-0.0155 2.220537,-10e-4 z"
       id="path1260"
       inkscape:connector-curvature="0" />
    <path
       style="opacity:1;vector-effect:none;fill:#fcdede;fill-opacity:1;stroke:#000000;stroke-width:0.26458332;stroke-linecap:round;stroke-linejoin:miter;stroke-miterlimit:4;stroke-dasharray:none;stroke-dashoffset:0;stroke-opacity:1"
       d="M 1.7332275,215.89129 V 276.3677 H 19.24327 v -3.81372 c -0.739472,-0.0145 -1.480051,-0.008 -2.220537,10e-4 -0.793389,0.009 -1.58646,0.0176 -2.377115,-0.007 -0.790656,-0.0243 -1.578759,-0.0814 -2.362647,-0.20205 -0.63205,-0.25497 -1.303816,-0.52789 -1.966288,-0.84026 -0.662472,-0.31237 -1.3153793,-0.66408 -1.910478,-1.07642 -0.2975491,-0.20616 -0.5809898,-0.42749 -0.8433593,-0.66662 -0.2623693,-0.23914 -0.503854,-0.49617 -0.718819,-0.7736 -0.2149652,-0.27743 -0.4032861,-0.57555 -0.5586224,-0.89659 -0.1553361,-0.32103 -0.2777353,-0.66511 -0.3612182,-1.03508 -0.3916878,-0.86789 -0.7359605,-1.7631 -1.0273276,-2.67632 -0.2913668,-0.91322 -0.5300384,-1.84421 -0.7110677,-2.78329 -0.2920754,-1.10754 -0.5755224,-2.21965 -0.8335406,-3.33623 -0.2580185,-1.11658 -0.4903195,-2.23764 -0.6790283,-3.36465 -0.1089807,-0.74615 -0.1603833,-1.49287 -0.1757,-2.23966 -0.015317,-0.74679 0.00531,-1.49364 0.041341,-2.24069 0.072058,-1.4941 0.2043631,-2.9886 0.227893,-4.48138 0.2656549,-0.53738 0.5490144,-1.07047 0.8635132,-1.57975 0.3144991,-0.50928 0.6604513,-0.99441 1.0516153,-1.43557 0.3911642,-0.44116 0.8272663,-0.83847 1.3229166,-1.1715 0.2478254,-0.16652 0.510453,-0.31709 0.7896162,-0.44907 0.2791629,-0.13199 0.5748557,-0.24552 0.8888343,-0.33797 1.1274756,-0.61441 2.2187374,-1.30059 3.3207275,-1.96215 0.550995,-0.33078 1.104683,-0.65534 1.667082,-0.9617 0.562399,-0.30635 1.133622,-0.59436 1.719275,-0.85214 1.033676,-0.24381 2.06695,-0.53163 3.108854,-0.75655 0.520952,-0.11246 1.044147,-0.20934 1.570447,-0.27698 0.05749,-0.007 0.116061,-0.005 0.173633,-0.0114 v -20.24941 z"
       id="path1255"
       inkscape:connector-curvature="0" />
    <path
       style="opacity:1;vector-effect:none;fill:#ff2727;fill-opacity:0.58620689;stroke:#000000;stroke-width:0.26458332;stroke-linecap:round;stroke-linejoin:miter;stroke-miterlimit:4;stroke-dasharray:none;stroke-dashoffset:0;stroke-opacity:1"
       d="m 19.24327,272.55398 c 0.05283,10e-4 0.105829,-0.001 0.158646,0 0.792092,0.0194 1.582603,0.069 2.369365,0.17983 2.445369,0.18773 3.324486,0.21367 3.811653,0.18139 0.487168,-0.0323 0.582581,-0.12285 1.460377,-0.16795 1.191784,-0.0612 2.425202,-0.0113 3.633885,-0.0656 0.604343,-0.0271 1.202119,-0.0799 1.785938,-0.18604 0.583819,-0.10608 1.153355,-0.26554 1.700154,-0.50436 0.527262,-0.23028 1.057426,-0.49775 1.570448,-0.80253 0.513021,-0.30478 1.009097,-0.6465 1.468643,-1.02526 0.459547,-0.37877 0.882698,-0.79471 1.249538,-1.24695 0.366839,-0.45225 0.677193,-0.94084 0.912087,-1.46607 0.147884,-0.33066 0.262737,-0.66947 0.349335,-1.01492 0.0866,-0.34545 0.144827,-0.69767 0.180866,-1.05472 0.07207,-0.71409 0.05393,-1.44814 -0.01188,-2.18953 -0.131638,-1.48277 -0.453226,-2.99475 -0.621667,-4.43383 -0.123273,-1.05317 -0.242475,-2.11768 -0.380855,-3.18172 -0.138382,-1.06405 -0.296185,-2.12741 -0.497128,-3.1781 -0.200943,-1.05069 -0.445077,-2.08903 -0.756026,-3.10214 -0.155477,-0.50655 -0.327475,-1.00652 -0.519348,-1.49913 -0.191876,-0.49261 -0.403484,-0.9775 -0.637688,-1.45314 -0.306419,-0.62231 -0.650767,-1.23341 -1.030428,-1.8247 -0.379661,-0.59128 -0.794435,-1.16283 -1.241785,-1.70687 -0.447349,-0.54404 -0.927115,-1.06041 -1.436605,-1.54099 -0.509487,-0.48059 -1.048814,-0.92564 -1.614887,-1.32654 -0.760751,-0.53877 -1.424818,-1.09659 -2.085663,-1.61902 -0.330419,-0.26121 -0.659802,-0.51363 -1.000456,-0.75034 -0.340651,-0.23671 -0.692245,-0.45771 -1.066601,-0.65629 -0.374354,-0.19858 -0.771496,-0.37458 -1.203026,-0.52142 -0.43153,-0.14683 -0.897556,-0.26423 -1.409733,-0.34571 -0.512177,-0.0815 -1.070423,-0.1272 -1.686719,-0.12971 -0.616296,-0.003 -1.290614,0.0381 -2.034501,0.12816 -0.475524,-0.003 -0.946489,0.0365 -1.415934,0.0909 z"
       id="path1275"
       inkscape:connector-curvature="0" />
    <path
       style="opacity:1;vector-effect:none;fill:#dcffde;fill-opacity:1;stroke:#000000;stroke-width:0.26458332;stroke-linecap:round;stroke-linejoin:miter;stroke-miterlimit:4;stroke-dasharray:none;stroke-dashoffset:0;stroke-opacity:1"
       d="m 19.243269,215.89129 v 20.24941 c 0.469446,-0.0545 0.94041,-0.0944 1.415934,-0.0909 0.743888,-0.0901 1.418206,-0.13066 2.034502,-0.12816 0.616296,0.003 1.174541,0.0482 1.686718,0.12971 0.512177,0.0815 0.978203,0.19888 1.409733,0.34572 0.43153,0.14684 0.828673,0.32283 1.203027,0.52141 0.374356,0.19858 0.72595,0.41959 1.066601,0.65629 0.340654,0.23671 0.670036,0.48913 1.000456,0.75034 0.660844,0.52244 1.324911,1.08025 2.085663,1.61903 0.566073,0.4009 1.1054,0.84595 1.614887,1.32653 0.509489,0.48058 0.989256,0.99695 1.436605,1.54099 0.44735,0.54405 0.862124,1.11559 1.241785,1.70688 0.379661,0.59128 0.724008,1.20238 1.030428,1.82469 0.234203,0.47565 0.445812,0.96053 0.637688,1.45314 0.191873,0.49262 0.363871,0.99258 0.519348,1.49914 0.310949,1.0131 0.555082,2.05144 0.756025,3.10213 0.200944,1.05069 0.358746,2.11406 0.497129,3.1781 0.138379,1.06405 0.257582,2.12855 0.380854,3.18172 0.168442,1.43908 0.49003,2.95107 0.621668,4.43384 0.06582,0.74138 0.08396,1.47543 0.01189,2.18953 -0.03604,0.35704 -0.09427,0.70927 -0.180867,1.05471 -0.0866,0.34545 -0.201451,0.68426 -0.349334,1.01493 -0.234895,0.52522 -0.545248,1.01381 -0.912088,1.46606 -0.366839,0.45225 -0.78999,0.86819 -1.249537,1.24695 -0.459547,0.37877 -0.955622,0.72048 -1.468644,1.02526 -0.513022,0.30478 -1.043186,0.57225 -1.570447,0.80254 -0.546799,0.23882 -1.116336,0.39827 -1.700155,0.50436 -0.583819,0.10608 -1.181594,0.15889 -1.785937,0.18603 -1.208683,0.0543 -2.442102,0.004 -3.633885,0.0656 -0.877796,0.0451 -0.973209,0.13567 -1.460377,0.16795 -0.487168,0.0323 -1.366284,0.006 -3.811654,-0.18138 -0.786761,-0.11084 -1.577272,-0.16043 -2.369364,-0.17984 -0.05282,-10e-4 -0.105815,0.001 -0.158647,0 v 3.81372 h 42.96637 v -60.47641 z"
       id="path1250"
       inkscape:connector-curvature="0" />
    <text
       xml:space="preserve"
       style="font-style:normal;font-variant:normal;font-weight:normal;font-stretch:normal;font-size:10.58333302px;line-height:1.25;font-family:monospace;-inkscape-font-specification:monospace;letter-spacing:0px;word-spacing:0px;fill:#000000;fill-opacity:1;stroke:none;stroke-width:0.26458332"
       x="20.410715"
       y="232.55505"
       id="text816"><tspan
         sodipodi:role="line"
         id="tspan814"
         x="20.410715"
         y="241.91882"
         style="stroke-width:0.26458332"></tspan></text>
    <text
       xml:space="preserve"
       style="font-style:normal;font-variant:normal;font-weight:normal;font-stretch:normal;font-size:7.22394514px;line-height:1.25;font-family:monospace;-inkscape-font-specification:monospace;letter-spacing:0px;word-spacing:0px;fill:#008000;fill-opacity:1;stroke:none;stroke-width:0.26458332"
       x="-16.568136"
       y="202.01082"
       id="text814"><tspan
         sodipodi:role="line"
         id="tspan812"
         x="-16.568136"
         y="202.01082"
         style="fill:#008000;stroke-width:0.26458332">+</tspan></text>
    <text
       xml:space="preserve"
       style="font-style:normal;font-variant:normal;font-weight:normal;font-stretch:normal;font-size:7.22394514px;line-height:1.25;font-family:monospace;-inkscape-font-specification:monospace;letter-spacing:0px;word-spacing:0px;fill:#0002d4;fill-opacity:1;stroke:none;stroke-width:0.26458332"
       x="-205.53427"
       y="-5.2408485"
       id="text818"
       transform="rotate(-90)"><tspan
         sodipodi:role="line"
         id="tspan816"
         x="-205.53427"
         y="-5.2408485"
         style="fill:#0002d4;fill-opacity:1;stroke-width:0.26458332">−</tspan></text>
    <use
       x="0"
       y="0"
       xlink:href="#text818"
       id="use1568"
       transform="rotate(90,8.5231774,236.6004)"
       width="100%"
       height="100%" />
    <use
       x="0"
       y="0"
       xlink:href="#text814"
       id="use1572"
       transform="rotate(90,-15.233367,222.38632)"
       width="100%"
       height="100%" />
    <use
       x="0"
       y="0"
       xlink:href="#text814"
       id="use1572-3"
       transform="rotate(90,-15.304583,230.7369)"
       width="100%"
       height="100%" />
    <use
       x="0"
       y="0"
       xlink:href="#text814"
       id="use1572-6"
       transform="rotate(90,-24.281518,232.72127)"
       width="100%"
       height="100%" />
    <use
       x="0"
       y="0"
       xlink:href="#text814"
       id="use1572-7"
       transform="rotate(90,-26.171399,240.46978)"
       width="100%"
       height="100%" />
    <use
       x="0"
       y="0"
       xlink:href="#text814"
       id="use1572-5"
       transform="rotate(90,-34.203393,243.3991)"
       width="100%"
       height="100%" />
    <use
       x="0"
       y="0"
       xlink:href="#text818"
       id="use1568-3"
       transform="rotate(90,2.5139054,234.1077)"
       width="100%"
       height="100%" />
    <use
       x="0"
       y="0"
       xlink:href="#text818"
       id="use1568-5"
       transform="rotate(90,1.3799764,230.32794)"
       width="100%"
       height="100%" />
    <use
       x="0"
       y="0"
       xlink:href="#text818"
       id="use1568-6"
       transform="rotate(90,-0.6988926,226.54818)"
       width="100%"
       height="100%" />
    <use
       x="0"
       y="0"
       xlink:href="#text818"
       id="use1568-2"
       transform="rotate(90,-4.1951726,231.74535)"
       width="100%"
       height="100%" />
    <use
       x="0"
       y="0"
       xlink:href="#text818"
       id="use1568-9"
       transform="rotate(90,-6.7465116,234.1077)"
       width="100%"
       height="100%" />
    <use
       x="0"
       y="0"
       xlink:href="#text818"
       id="use1568-1"
       transform="rotate(90,-9.6758286,236.65904)"
       width="100%"
       height="100%" />
    <use
       x="0"
       y="0"
       xlink:href="#text818"
       id="use1568-27"
       transform="rotate(90,-12.227168,242.0452)"
       width="100%"
       height="100%" />
    <use
       x="0"
       y="0"
       xlink:href="#text818"
       id="use1568-0"
       transform="rotate(90,-18.274786,244.88002)"
       width="100%"
       height="100%" />
    <use
       x="0"
       y="0"
       xlink:href="#text818"
       id="use1568-62"
       transform="rotate(90,-23.377465,252.43955)"
       width="100%"
       height="100%" />
    <use
       x="0"
       y="0"
       xlink:href="#text818"
       id="use1568-61"
       transform="rotate(90,-21.487584,256.21931)"
       width="100%"
       height="100%" />
    <use
       x="0"
       y="0"
       xlink:href="#text818"
       id="use1568-8"
       transform="rotate(90,-19.786691,249.79371)"
       width="100%"
       height="100%" />
    <use
       x="0"
       y="0"
       xlink:href="#text818"
       id="use1568-7"
       transform="rotate(90,-18.133045,255.5106)"
       width="100%"
       height="100%" />
    <use
       x="0"
       y="0"
       xlink:href="#text818"
       id="use1568-92"
       transform="rotate(90,-15.628955,261.51099)"
       width="100%"
       height="100%" />
    <use
       x="0"
       y="0"
       xlink:href="#text818"
       id="use1568-02"
       transform="rotate(90,-12.51065,258.20368)"
       width="100%"
       height="100%" />
    <use
       x="0"
       y="0"
       xlink:href="#text818"
       id="use1568-37"
       transform="rotate(90,-12.416156,249.22675)"
       width="100%"
       height="100%" />
    <use
       x="0"
       y="0"
       xlink:href="#text818"
       id="use1568-59"
       transform="rotate(90,-4.7621366,244.59654)"
       width="100%"
       height="100%" />
    <use
       x="0"
       y="0"
       xlink:href="#text818"
       id="use1568-22"
       transform="rotate(90,0.9075064,241.76172)"
       width="100%"
       height="100%" />
    <use
       x="0"
       y="0"
       xlink:href="#text818"
       id="use1568-89"
       transform="rotate(90,7.2386074,243.55711)"
       width="100%"
       height="100%" />
    <use
       x="0"
       y="0"
       xlink:href="#text818"
       id="use1568-73"
       transform="rotate(90,1.7107054,238.40718)"
       width="100%"
       height="100%" />
    <use
       x="0"
       y="0"
       xlink:href="#text818"
       id="use1568-612"
       transform="rotate(90,-3.7699486,241.80896)"
       width="100%"
       height="100%" />
    <use
       x="0"
       y="0"
       xlink:href="#text818"
       id="use1568-931"
       transform="rotate(90,-1.9273146,252.72303)"
       width="100%"
       height="100%" />
    <use
       x="0"
       y="0"
       xlink:href="#text818"
       id="use1568-94"
       transform="rotate(90,4.4982804,243.84059)"
       width="100%"
       height="100%" />
    <use
       x="0"
       y="0"
       xlink:href="#text818"
       id="use1568-78"
       transform="rotate(90,6.6716434,240.91127)"
       width="100%"
       height="100%" />
    <use
       x="0"
       y="0"
       xlink:href="#text818"
       id="use1568-4"
       transform="rotate(90,14.420154,244.88002)"
       width="100%"
       height="100%" />
    <use
       x="0"
       y="0"
       xlink:href="#text818"
       id="use1568-50"
       transform="rotate(90,13.522461,247.66759)"
       width="100%"
       height="100%" />
    <use
       x="0"
       y="0"
       xlink:href="#text818"
       id="use1568-36"
       transform="rotate(90,1.6634594,248.56529)"
       width="100%"
       height="100%" />
    <use
       x="0"
       y="0"
       xlink:href="#text818"
       id="use1568-10"
       transform="rotate(90,5.9156904,253.80025)"
       width="100%"
       height="100%" />
    <use
       x="0"
       y="0"
       xlink:href="#text818"
       id="use1568-63"
       transform="rotate(90,9.9789354,249.51023)"
       width="100%"
       height="100%" />
    <use
       x="0"
       y="0"
       xlink:href="#text818"
       id="use1568-20"
       transform="rotate(90,10.971122,243.03739)"
       width="100%"
       height="100%" />
    <use
       x="0"
       y="0"
       xlink:href="#text818"
       id="use1568-615"
       transform="rotate(90,12.530273,241.28925)"
       width="100%"
       height="100%" />
    <use
       x="0"
       y="0"
       xlink:href="#text818"
       id="use1568-54"
       transform="rotate(90,0.2460484,261.32199)"
       width="100%"
       height="100%" />
    <use
       x="0"
       y="0"
       xlink:href="#text818"
       id="use1568-76"
       transform="rotate(90,-5.8960646,266.89713)"
       width="100%"
       height="100%" />
    <use
       x="0"
       y="0"
       xlink:href="#text818"
       id="use1568-56"
       transform="rotate(90,-9.9971076,266.95386)"
       width="100%"
       height="100%" />
    <use
       x="0"
       y="0"
       xlink:href="#text818"
       id="use1568-937"
       transform="rotate(90,-10.148299,263.58984)"
       width="100%"
       height="100%" />
    <use
       x="0"
       y="0"
       xlink:href="#text818"
       id="use1568-45"
       transform="rotate(90,-2.5887736,261.88895)"
       width="100%"
       height="100%" />
    <use
       x="0"
       y="0"
       xlink:href="#text818"
       id="use1568-25"
       transform="rotate(90,-6.1795476,255.27437)"
       width="100%"
       height="100%" />
    <use
       x="0"
       y="0"
       xlink:href="#text818"
       id="use1568-47"
       transform="rotate(90,-9.8648166,255.55785)"
       width="100%"
       height="100%" />
    <use
       x="0"
       y="0"
       xlink:href="#text818"
       id="use1568-44"
       transform="rotate(90,-15.817941,252.25056)"
       width="100%"
       height="100%" />
    <use
       x="0"
       y="0"
       xlink:href="#text818"
       id="use1568-30"
       transform="rotate(90,-10.857004,246.72266)"
       width="100%"
       height="100%" />
    <use
       x="0"
       y="0"
       xlink:href="#text818"
       id="use1568-786"
       transform="rotate(90,-4.3841606,251.21112)"
       width="100%"
       height="100%" />
    <use
       x="0"
       y="0"
       xlink:href="#text818"
       id="use1568-88"
       transform="rotate(90,0.7185184,256.12481)"
       width="100%"
       height="100%" />
    <use
       x="0"
       y="0"
       xlink:href="#text818"
       id="use1568-43"
       transform="rotate(90,2.4194114,254.61291)"
       width="100%"
       height="100%" />
    <use
       x="0"
       y="0"
       xlink:href="#text818"
       id="use1568-14"
       transform="rotate(90,-1.1713626,248.94327)"
       width="100%"
       height="100%" />
    <use
       x="0"
       y="0"
       xlink:href="#text818"
       id="use1568-920"
       transform="rotate(90,4.3092924,249.32124)"
       width="100%"
       height="100%" />
    <use
       x="0"
       y="0"
       xlink:href="#text818"
       id="use1568-68"
       transform="rotate(90,6.2936674,251.49461)"
       width="100%"
       height="100%" />
    <use
       x="0"
       y="0"
       xlink:href="#text818"
       id="use1568-926"
       transform="rotate(90,8.3725364,252.81752)"
       width="100%"
       height="100%" />
    <use
       x="0"
       y="0"
       xlink:href="#text818"
       id="use1568-64"
       transform="rotate(90,9.6954534,246.20294)"
       width="100%"
       height="100%" />
    <use
       x="0"
       y="0"
       xlink:href="#text814"
       id="use1572-6-9"
       transform="rotate(90,-18.895357,228.09106)"
       width="100%"
       height="100%" />
    <use
       x="0"
       y="0"
       xlink:href="#text814"
       id="use1572-6-5"
       transform="rotate(90,-14.454137,228.18556)"
       width="100%"
       height="100%" />
    <use
       x="0"
       y="0"
       xlink:href="#text814"
       id="use1572-6-0"
       transform="rotate(90,-21.163215,233.94969)"
       width="100%"
       height="100%" />
    <use
       x="0"
       y="0"
       xlink:href="#text814"
       id="use1572-6-4"
       transform="rotate(90,-28.817232,235.3671)"
       width="100%"
       height="100%" />
    <use
       x="0"
       y="0"
       xlink:href="#text814"
       id="use1572-6-8"
       transform="rotate(90,-29.195209,243.68258)"
       width="100%"
       height="100%" />
    <use
       x="0"
       y="0"
       xlink:href="#text814"
       id="use1572-6-7"
       transform="rotate(90,-36.47125,246.23392)"
       width="100%"
       height="100%" />
    <use
       x="0"
       y="0"
       xlink:href="#text814"
       id="use1572-6-1"
       transform="rotate(90,-30.612619,239.61934)"
       width="100%"
       height="100%" />
    <use
       x="0"
       y="0"
       xlink:href="#text814"
       id="use1572-6-72"
       transform="rotate(90,-33.730923,249.35222)"
       width="100%"
       height="100%" />
    <use
       x="0"
       y="0"
       xlink:href="#text814"
       id="use1572-6-722"
       transform="rotate(90,-23.336578,236.12306)"
       width="100%"
       height="100%" />
    <path
       style="fill:none;stroke:#000000;stroke-width:0.26458332px;stroke-linecap:butt;stroke-linejoin:miter;stroke-opacity:1"
       d="M 19.243406,215.90861 V 276.5788"
       id="path1239"
       inkscape:connector-curvature="0" />
    <path
       style="opacity:1;vector-effect:none;fill:none;fill-opacity:1;stroke:#000000;stroke-width:0.26458332;stroke-linecap:round;stroke-linejoin:miter;stroke-miterlimit:4;stroke-dasharray:none;stroke-dashoffset:0;stroke-opacity:1"
       d="M 19.243294,276.36767 H 1.7333185 v -60.47619 0 H 62.209507 v 60.47619 H 19.243294"
       id="rect1245"
       inkscape:connector-curvature="0" />
    <path
       style="fill:none;stroke:#000000;stroke-width:0.79374999;stroke-linecap:butt;stroke-linejoin:miter;stroke-miterlimit:4;stroke-dasharray:none;stroke-opacity:1"
       d="m 21.771428,272.73391 c -3.147047,-0.44333 -6.352863,0.0951 -9.488417,-0.38765 -2.5281987,-1.01988 -5.6909567,-2.32876 -6.3588197,-5.28847 -0.783376,-1.73579 -1.3761265,-3.5817 -1.7381848,-5.45987 -0.5841511,-2.21509 -1.1354401,-4.44684 -1.5128579,-6.70087 -0.4359223,-2.98458 0.04674,-5.97592 0.0938,-8.96149 1.062619,-2.14953 2.4047077,-4.23427 4.9165377,-4.97385 2.254951,-1.22883 4.3641307,-2.7451 6.7067437,-3.77624 2.067353,-0.48762 4.13361,-1.1513 6.268976,-1.13568 5.951096,-0.72066 7.443729,1.73941 10.486733,3.8945 2.264293,1.6036 4.09811,3.90954 5.323787,6.39877 1.87363,3.80516 2.29781,8.20177 2.790893,12.41444 0.336882,2.87816 1.28652,6.0475 0.103458,8.69281 -0.939585,2.1009 -3.09165,3.62 -5.200696,4.54115 -2.187198,0.95528 -4.736548,0.63354 -7.120118,0.75599 -1.75559,0.0902 -0.381096,0.36195 -5.271835,-0.0135 z"
       id="path1235"
       inkscape:connector-curvature="0"
       sodipodi:nodetypes="cccccccccaaaaascc" />
    <text
       xml:space="preserve"
       style="font-style:normal;font-variant:normal;font-weight:normal;font-stretch:normal;font-size:4.23333311px;line-height:1.25;font-family:monospace;-inkscape-font-specification:monospace;letter-spacing:0px;word-spacing:0px;fill:#008000;fill-opacity:1;stroke:none;stroke-width:0.26458332"
       x="10.961309"
       y="287.58844"
       id="text2719"><tspan
         sodipodi:role="line"
         x="10.961309"
         y="287.58844"
         style="font-size:4.23333311px;fill:#008000;stroke-width:0.26458332"
         id="tspan2721">TP</tspan></text>
    <text
       id="text2727"
       y="287.58844"
       x="26.836308"
       style="font-style:normal;font-variant:normal;font-weight:normal;font-stretch:normal;font-size:4.23333311px;line-height:1.25;font-family:monospace;-inkscape-font-specification:monospace;letter-spacing:0px;word-spacing:0px;fill:#800000;fill-opacity:1;stroke:none;stroke-width:0.26458332"
       xml:space="preserve"><tspan
         id="tspan2725"
         style="font-size:4.23333311px;fill:#800000;stroke-width:0.26458332"
         y="287.58844"
         x="26.836308"
         sodipodi:role="line">FP</tspan></text>
    <path
       style="fill:none;stroke:#000000;stroke-width:0.26458332px;stroke-linecap:butt;stroke-linejoin:miter;stroke-opacity:1"
       d="m 13.040178,282.95817 c -4.4412198,-8.12648 1.417411,-18.14285 1.417411,-18.14285"
       id="path2729"
       inkscape:connector-curvature="0" />
    <path
       inkscape:connector-curvature="0"
       id="path2731"
       d="m 28.915179,282.95817 c -4.44122,-8.12648 1.417411,-18.14285 1.417411,-18.14285"
       style="fill:none;stroke:#000000;stroke-width:0.26458332px;stroke-linecap:butt;stroke-linejoin:miter;stroke-opacity:1" />
    <text
       xml:space="preserve"
       style="font-style:normal;font-variant:normal;font-weight:normal;font-stretch:normal;font-size:4.23333311px;line-height:1.25;font-family:monospace;-inkscape-font-specification:monospace;letter-spacing:0px;word-spacing:0px;fill:#800000;fill-opacity:1;stroke:none;stroke-width:0.26458332"
       x="1.9654744"
       y="292.88013"
       id="text2735"><tspan
         sodipodi:role="line"
         x="1.9654744"
         y="292.88013"
         style="font-size:4.23333311px;fill:#800000;stroke-width:0.26458332"
         id="tspan2733">FN</tspan></text>
    <path
       inkscape:connector-curvature="0"
       id="path2737"
       d="m 4.0443447,288.24984 c -4.44121986,-8.12648 1.417411,-18.14285 1.417411,-18.14285"
       style="fill:none;stroke:#000000;stroke-width:0.26458332px;stroke-linecap:butt;stroke-linejoin:miter;stroke-opacity:1" />
    <text
       id="text2741"
       y="292.88013"
       x="37.419643"
       style="font-style:normal;font-variant:normal;font-weight:normal;font-stretch:normal;font-size:4.23333311px;line-height:1.25;font-family:monospace;-inkscape-font-specification:monospace;letter-spacing:0px;word-spacing:0px;fill:#008000;fill-opacity:1;stroke:none;stroke-width:0.26458332"
       xml:space="preserve"><tspan
         id="tspan2739"
         style="font-size:4.23333311px;fill:#008000;stroke-width:0.26458332"
         y="292.88013"
         x="37.419643"
         sodipodi:role="line">TN</tspan></text>
    <path
       inkscape:connector-curvature="0"
       id="path2743"
       d="m 39.498513,288.24984 c -4.44122,-8.12648 1.417411,-18.14285 1.417411,-18.14285"
       style="fill:none;stroke:#000000;stroke-width:0.26458332px;stroke-linecap:butt;stroke-linejoin:miter;stroke-opacity:1" />
    <path
       inkscape:connector-curvature="0"
       style="font-style:normal;font-weight:normal;font-size:110px;font-family:Calibri;fill:#000000;fill-opacity:1;stroke:none;stroke-width:0.0607386px;stroke-linecap:butt;stroke-linejoin:miter;stroke-opacity:1"
       d="m 18.967236,215.23147 c -4e-6,-0.14781 -0.0228,-0.26919 -0.06821,-0.36438 -0.04542,-0.0951 -0.113462,-0.17129 -0.204283,-0.22839 -0.09083,-0.0571 -0.203902,-0.0964 -0.339087,-0.11764 -0.13519,-0.0213 -0.313625,-0.0318 -0.535416,-0.0318 h -6.248573 c -0.261933,0 -0.459935,-0.0409 -0.594064,-0.12271 -0.134133,-0.0818 -0.209621,-0.2055 -0.22652,-0.3712 -0.0043,-0.02 -0.0096,-0.0369 -0.0159,-0.0504 -0.0063,-0.0137 -0.01746,-0.024 -0.0333,-0.0318 -0.01585,-0.008 -0.03529,-0.0137 -0.05853,-0.0169 -0.02324,-0.003 -0.05182,-0.004 -0.08561,-0.004 -0.03169,0 -0.05971,0.001 -0.08399,0.008 -0.0243,0.004 -0.04375,0.01 -0.05853,0.0184 -0.01478,0.008 -0.02591,0.0184 -0.0333,0.0318 -0.0074,0.0137 -0.01318,0.0302 -0.01739,0.0505 -0.0085,0.0873 -0.03335,0.16181 -0.07455,0.22338 -0.04119,0.0616 -0.095,0.11187 -0.161534,0.1511 -0.06654,0.0391 -0.1441397,0.0682 -0.2328556,0.0873 -0.088713,0.0191 -0.2048947,0.0287 -0.3485301,0.0287 H 3.1559739 c -0.2239077,0 -0.4034554,0.01 -0.5386452,0.0302 -0.1351876,0.0202 -0.2476976,0.0582 -0.3374725,0.1142 -0.089773,0.056 -0.1573675,0.13218 -0.2027824,0.22841 -0.045415,0.0964 -0.068095,0.21945 -0.068095,0.36948 0,0.0426 4.46e-4,0.0789 0.00156,0.10926 0.00111,0.0302 0.00585,0.0655 0.014292,0.10583 2.4e-6,0.0137 0.00424,0.0269 0.012669,0.0404 0.00846,0.0137 0.019576,0.0251 0.033297,0.0351 0.013734,0.01 0.032741,0.0173 0.057033,0.0218 0.024293,0.004 0.053308,0.008 0.087106,0.008 0.038022,0 0.069149,-0.001 0.093441,-0.008 0.024293,-0.004 0.044418,-0.011 0.06026,-0.0218 0.015852,-0.01 0.02696,-0.0229 0.033297,-0.0386 0.00633,-0.0156 0.00946,-0.0336 0.00946,-0.0537 l 0.00323,-0.14117 c 0,-0.0515 0.00946,-0.0957 0.028459,-0.13259 0.019018,-0.0369 0.054364,-0.0673 0.1061153,-0.0907 0.051751,-0.0236 0.1231291,-0.0409 0.2139592,-0.0522 0.09083,-0.011 0.2291296,-0.0169 0.4150139,-0.0169 h 6.3404005 c 0.1563112,0 0.2883859,-0.008 0.396114,-0.0269 0.1077243,-0.018 0.2053373,-0.0498 0.2930003,-0.0957 0.08766,-0.0459 0.162706,-0.10693 0.225021,-0.18308 0.0623,-0.0761 0.104004,-0.17243 0.125129,-0.28887 0.02324,0.1164 0.06604,0.21274 0.128355,0.28887 0.0623,0.076 0.136796,0.13726 0.223406,0.18308 0.0866,0.046 0.184211,0.0777 0.293001,0.0957 0.108781,0.0178 0.240302,0.0269 0.394506,0.0269 h 6.200988 c 0.187993,0 0.327405,0.005 0.418239,0.0187 0.09083,0.011 0.162089,0.0302 0.213844,0.0537 0.05175,0.0236 0.08665,0.0542 0.104622,0.0922 0.01795,0.0382 0.02696,0.084 0.02696,0.13766 l 0.0032,0.13782 c -4e-6,0.0178 0.0033,0.0342 0.0096,0.0487 0.0063,0.0146 0.0179,0.0268 0.0348,0.0369 0.0169,0.01 0.03746,0.0173 0.06175,0.0218 0.02428,0.004 0.05443,0.008 0.09033,0.008 0.03379,0 0.06281,-0.003 0.08711,-0.008 0.02428,-0.004 0.04386,-0.011 0.05865,-0.0218 0.01478,-0.01 0.0259,-0.0222 0.0333,-0.0369 0.0074,-0.0145 0.01112,-0.0297 0.01112,-0.0454 0.0085,-0.0404 0.01318,-0.0744 0.01429,-0.10226 0.0011,-0.028 0.0016,-0.0633 0.0016,-0.10597 z"
       id="text2161"
       sodipodi:nodetypes="ccccsscccccscccccccsscccscccccsccccccscsscccccccsscccccsscsccccccc" />
    <text
       xml:space="preserve"
       style="font-style:normal;font-variant:normal;font-weight:normal;font-stretch:normal;font-size:4.23333311px;line-height:1.25;font-family:monospace;-inkscape-font-specification:monospace;letter-spacing:0px;word-spacing:0px;fill:#000000;fill-opacity:1;stroke:none;stroke-width:0.26458332"
       x="9.1053877"
       y="212.47029"
       id="text2719-6"><tspan
         sodipodi:role="line"
         x="9.1053877"
         y="212.47029"
         style="font-size:4.23333311px;fill:#000000;stroke-width:0.26458332"
         id="tspan2721-1">P</tspan></text>
    <text
       id="text3352"
       y="212.47029"
       x="39.452114"
       style="font-style:normal;font-variant:normal;font-weight:normal;font-stretch:normal;font-size:4.23333311px;line-height:1.25;font-family:monospace;-inkscape-font-specification:monospace;letter-spacing:0px;word-spacing:0px;fill:#000000;fill-opacity:1;stroke:none;stroke-width:0.26458332"
       xml:space="preserve"><tspan
         id="tspan3350"
         style="font-size:4.23333311px;fill:#000000;stroke-width:0.26458332"
         y="212.47029"
         x="39.452114"
         sodipodi:role="line">N</tspan></text>
    <path
       sodipodi:nodetypes="ccccsscccccscccccccsscccscccccsccccccscsscccccccsscccccsscsccccccc"
       id="path3354"
       d="m 61.905417,215.23147 c -4e-6,-0.14781 -0.0228,-0.26919 -0.06821,-0.36438 -0.04542,-0.0951 -0.113462,-0.17129 -0.204283,-0.22839 -0.09083,-0.0571 -0.203902,-0.0964 -0.339087,-0.11764 -0.13519,-0.0213 -0.313625,-0.0318 -0.535416,-0.0318 H 41.809848 c -0.261933,0 -0.459935,-0.0409 -0.594064,-0.12271 -0.134133,-0.0818 -0.209621,-0.2055 -0.22652,-0.3712 -0.0043,-0.02 -0.0096,-0.0369 -0.0159,-0.0504 -0.0063,-0.0137 -0.01746,-0.024 -0.0333,-0.0318 -0.01585,-0.008 -0.03529,-0.0137 -0.05853,-0.0169 -0.02324,-0.003 -0.05182,-0.004 -0.08561,-0.004 -0.03169,0 -0.05971,0.001 -0.08399,0.008 -0.0243,0.004 -0.04375,0.01 -0.05853,0.0184 -0.01478,0.008 -0.02591,0.0184 -0.0333,0.0318 -0.0074,0.0137 -0.01318,0.0302 -0.01739,0.0505 -0.0085,0.0873 -0.03335,0.16181 -0.07455,0.22338 -0.04119,0.0616 -0.095,0.11187 -0.161534,0.1511 -0.06654,0.0391 -0.14414,0.0682 -0.232856,0.0873 -0.08871,0.0191 -0.204895,0.0287 -0.34853,0.0287 h -19.09109 c -0.223907,0 -0.403455,0.01 -0.538645,0.0302 -0.135188,0.0202 -0.247698,0.0582 -0.337472,0.1142 -0.08977,0.056 -0.157368,0.13218 -0.202783,0.22841 -0.04541,0.0964 -0.06809,0.21945 -0.06809,0.36948 0,0.0426 4.46e-4,0.0789 0.0016,0.10926 0.0011,0.0302 0.0059,0.0655 0.01429,0.10583 3e-6,0.0137 0.0042,0.0269 0.01267,0.0404 0.0085,0.0137 0.01958,0.0251 0.0333,0.0351 0.01373,0.01 0.03274,0.0173 0.05703,0.0218 0.02429,0.004 0.05331,0.008 0.08711,0.008 0.03802,0 0.06915,-0.001 0.09344,-0.008 0.02429,-0.004 0.04442,-0.011 0.06026,-0.0218 0.01585,-0.01 0.02696,-0.0229 0.0333,-0.0386 0.0063,-0.0156 0.0095,-0.0336 0.0095,-0.0537 l 0.0032,-0.14117 c 0,-0.0515 0.0095,-0.0957 0.02846,-0.13259 0.01902,-0.0369 0.05436,-0.0673 0.106115,-0.0907 0.05175,-0.0236 0.12313,-0.0409 0.21396,-0.0522 0.09083,-0.011 0.229129,-0.0169 0.415014,-0.0169 h 19.0404 c 0.156312,0 0.288386,-0.008 0.396114,-0.0269 0.107725,-0.018 0.205338,-0.0498 0.293001,-0.0957 0.08766,-0.0459 0.162706,-0.10693 0.225021,-0.18308 0.0623,-0.0761 0.104004,-0.17243 0.125129,-0.28887 0.02324,0.1164 0.06604,0.21274 0.128355,0.28887 0.0623,0.076 0.136796,0.13726 0.223406,0.18308 0.0866,0.046 0.184211,0.0777 0.293001,0.0957 0.108781,0.0178 0.240302,0.0269 0.394506,0.0269 h 18.900988 c 0.187993,0 0.327405,0.005 0.418239,0.0187 0.09083,0.011 0.162089,0.0302 0.213844,0.0537 0.05175,0.0236 0.08665,0.0542 0.104622,0.0922 0.01795,0.0382 0.02696,0.084 0.02696,0.13766 l 0.0032,0.13782 c -4e-6,0.0178 0.0033,0.0342 0.0096,0.0487 0.0063,0.0146 0.0179,0.0268 0.0348,0.0369 0.0169,0.01 0.03746,0.0173 0.06175,0.0218 0.02428,0.004 0.05443,0.008 0.09033,0.008 0.03379,0 0.06281,-0.003 0.08711,-0.008 0.02428,-0.004 0.04386,-0.011 0.05865,-0.0218 0.01478,-0.01 0.0259,-0.0222 0.0333,-0.0369 0.0074,-0.0145 0.01112,-0.0297 0.01112,-0.0454 0.0085,-0.0404 0.01318,-0.0744 0.01429,-0.10226 0.0011,-0.028 0.0016,-0.0633 0.0016,-0.10597 z"
       style="font-style:normal;font-weight:normal;font-size:110px;font-family:Calibri;fill:#000000;fill-opacity:1;stroke:none;stroke-width:0.0607386px;stroke-linecap:butt;stroke-linejoin:miter;stroke-opacity:1"
       inkscape:connector-curvature="0" />
    <path
       inkscape:connector-curvature="0"
       id="path3356"
       d="m 22.036014,290.89572 c -4.44122,-8.12648 1.417411,-18.14285 1.417411,-18.14285"
       style="fill:none;stroke:#000000;stroke-width:0.26458332px;stroke-linecap:butt;stroke-linejoin:miter;stroke-opacity:1" />
    <text
       id="text3360"
       y="287.58844"
       x="10.961309"
       style="font-style:normal;font-variant:normal;font-weight:normal;font-stretch:normal;font-size:4.23333311px;line-height:1.25;font-family:monospace;-inkscape-font-specification:monospace;letter-spacing:0px;word-spacing:0px;fill:#008000;fill-opacity:1;stroke:none;stroke-width:0.26458332"
       xml:space="preserve"><tspan
         id="tspan3358"
         style="font-size:4.23333311px;fill:#008000;stroke-width:0.26458332"
         y="287.58844"
         x="10.961309"
         sodipodi:role="line">TP</tspan></text>
    <text
       xml:space="preserve"
       style="font-style:normal;font-variant:normal;font-weight:normal;font-stretch:normal;font-size:4.23333311px;line-height:1.25;font-family:monospace;-inkscape-font-specification:monospace;letter-spacing:0px;word-spacing:0px;fill:#000000;fill-opacity:1;stroke:none;stroke-width:0.26458332"
       x="13.751838"
       y="295.46259"
       id="text2719-0"><tspan
         sodipodi:role="line"
         x="13.751838"
         y="295.46259"
         style="font-size:4.23333311px;fill:#000000;stroke-width:0.26458332"
         id="tspan2721-6">pred.P</tspan></text>
  </g>
</svg>
