<?xml version="1.0" encoding="UTF-8" standalone="no"?>
<svg
   xmlns:dc="http://purl.org/dc/elements/1.1/"
   xmlns:cc="http://creativecommons.org/ns#"
   xmlns:rdf="http://www.w3.org/1999/02/22-rdf-syntax-ns#"
   xmlns:svg="http://www.w3.org/2000/svg"
   xmlns="http://www.w3.org/2000/svg"
   viewBox="0 0 474.93332 318.45334"
   height="318.45334"
   width="474.93332"
   xml:space="preserve"
   id="svg2"
   version="1.1"><metadata
     id="metadata8"><rdf:RDF><cc:Work
         rdf:about=""><dc:format>image/svg+xml</dc:format><dc:type
           rdf:resource="http://purl.org/dc/dcmitype/StillImage" /></cc:Work></rdf:RDF></metadata><defs
     id="defs6"><clipPath
       id="clipPath22"
       clipPathUnits="userSpaceOnUse"><path
         id="path20"
         d="M 10.7,10.7 H 345.5 V 228.14 H 10.7 Z" /></clipPath><clipPath
       id="clipPath32"
       clipPathUnits="userSpaceOnUse"><path
         id="path30"
         d="M 10.7,10.7 H 345.5 V 228.14 H 10.7 Z" /></clipPath><clipPath
       id="clipPath42"
       clipPathUnits="userSpaceOnUse"><path
         id="path40"
         d="M 10.7,10.7 H 345.5 V 228.14 H 10.7 Z" /></clipPath><clipPath
       id="clipPath52"
       clipPathUnits="userSpaceOnUse"><path
         id="path50"
         d="M 10.7,10.7 H 345.5 V 228.14 H 10.7 Z" /></clipPath><clipPath
       id="clipPath62"
       clipPathUnits="userSpaceOnUse"><path
         id="path60"
         d="M 10.7,10.7 H 345.5 V 228.14 H 10.7 Z" /></clipPath><clipPath
       id="clipPath72"
       clipPathUnits="userSpaceOnUse"><path
         id="path70"
         d="M 10.7,10.7 H 345.5 V 228.14 H 10.7 Z" /></clipPath><clipPath
       id="clipPath84"
       clipPathUnits="userSpaceOnUse"><path
         id="path82"
         d="M 10.7,10.7 H 345.5 V 228.14 H 10.7 Z" /></clipPath><clipPath
       id="clipPath94"
       clipPathUnits="userSpaceOnUse"><path
         id="path92"
         d="M 10.7,10.7 H 345.5 V 228.14 H 10.7 Z" /></clipPath><clipPath
       id="clipPath116"
       clipPathUnits="userSpaceOnUse"><path
         id="path114"
         d="M 10.7,10.7 H 345.5 V 228.14 H 10.7 Z" /></clipPath><clipPath
       id="clipPath128"
       clipPathUnits="userSpaceOnUse"><path
         id="path126"
         d="M 10.7,10.7 H 345.5 V 228.14 H 10.7 Z" /></clipPath><clipPath
       id="clipPath140"
       clipPathUnits="userSpaceOnUse"><path
         id="path138"
         d="M 10.7,10.7 H 345.5 V 228.14 H 10.7 Z" /></clipPath><clipPath
       id="clipPath152"
       clipPathUnits="userSpaceOnUse"><path
         id="path150"
         d="M 10.7,10.7 H 345.5 V 228.14 H 10.7 Z" /></clipPath><clipPath
       id="clipPath164"
       clipPathUnits="userSpaceOnUse"><path
         id="path162"
         d="M 10.7,10.7 H 345.5 V 228.14 H 10.7 Z" /></clipPath></defs><g
     transform="matrix(1.3333333,0,0,-1.3333333,0,318.45333)"
     id="g10"><path
       id="path12"
       style="fill:#ffffff;fill-opacity:1;fill-rule:nonzero;stroke:none"
       d="M 0,0 H 356.2 V 238.84 H 0 Z" /><path
       id="path14"
       style="fill:#ffffff;fill-opacity:1;fill-rule:nonzero;stroke:none"
       d="M 10.7,10.7 H 345.5 V 228.14 H 10.7 Z" /><g
       id="g16"><g
         clip-path="url(#clipPath22)"
         id="g18"><path
           id="path24"
           style="fill:#1f77b4;fill-opacity:1;fill-rule:nonzero;stroke:#1f77b4;stroke-width:1.5;stroke-linecap:butt;stroke-linejoin:round;stroke-miterlimit:10;stroke-dasharray:none;stroke-opacity:1"
           d="m 83.790909,119.42 h 6 m -3,-3 v 6" /></g></g><g
       id="g26"><g
         clip-path="url(#clipPath32)"
         id="g28"><path
           id="path34"
           style="fill:#ff7f0e;fill-opacity:1;fill-rule:nonzero;stroke:#ff7f0e;stroke-width:1;stroke-linecap:butt;stroke-linejoin:round;stroke-miterlimit:10;stroke-dasharray:none;stroke-opacity:1"
           d="m 238.97273,117.92 c 0.3978,0 0.77937,0.15805 1.06066,0.43934 0.28129,0.28129 0.43934,0.66285 0.43934,1.06066 0,0.39781 -0.15805,0.77937 -0.43934,1.06066 -0.28129,0.28129 -0.66286,0.43934 -1.06066,0.43934 -0.39781,0 -0.77937,-0.15805 -1.06066,-0.43934 -0.28129,-0.28129 -0.43934,-0.66285 -0.43934,-1.06066 0,-0.39781 0.15805,-0.77937 0.43934,-1.06066 0.28129,-0.28129 0.66285,-0.43934 1.06066,-0.43934 z" /></g></g><g
       id="g36"><g
         clip-path="url(#clipPath42)"
         id="g38"><path
           id="path44"
           style="fill:none;stroke:#000000;stroke-width:3;stroke-linecap:butt;stroke-linejoin:round;stroke-miterlimit:10;stroke-dasharray:none;stroke-opacity:1"
           d="m 162.86813,10.7 v 217.44 0" /></g></g><g
       id="g46"><g
         clip-path="url(#clipPath52)"
         id="g48"><path
           id="path54"
           style="fill:none;stroke:#440154;stroke-width:1.5;stroke-linecap:butt;stroke-linejoin:round;stroke-miterlimit:10;stroke-dasharray:none;stroke-opacity:1"
           d="m 230.06444,145.89991 2.34756,1.10962 2.604,0.97617 2.604,0.73464 2.604,0.51102 2.604,0.29874 2.604,0.0928 2.604,-0.11127 2.86718,-0.36179 2.34082,-0.48652 2.77976,-0.81552 2.42824,-0.93932 2.53054,-1.23074 2.19189,-1.30203 2.13993,-1.51904 2.06564,-1.74699 1.92573,-1.94212 1.62886,-1.95305 1.51509,-2.17006 1.25432,-2.17355 1.116,-2.39193 0.86443,-2.37871 0.64166,-2.38707 0.42972,-2.38706 0.2368,-2.60407 v -2.60408 l -0.2368,-2.60407 -0.47911,-2.60407 -0.7127,-2.54269 -0.83807,-2.23144 -1.13816,-2.38707 -1.37177,-2.31516 -1.488,-2.07458 -1.62106,-1.903431 -1.73878,-1.736048 -2.0538,-1.736048 -2.13993,-1.519042 -2.19189,-1.302036 -2.53054,-1.23074 -2.604,-0.99918 -2.604,-0.755658 -2.604,-0.530686 -2.604,-0.317619 -2.604,-0.111272 -2.604,0.09278 -2.604,0.298738 -2.6225,0.515555 -2.5855,0.730104 -2.67298,1.005944 -2.53502,1.214735 -2.35325,1.389336 -2.14053,1.519042 -2.0531,1.736048 -1.73903,1.736048 -1.75809,2.07904 -1.488,2.10928 -1.34924,2.32186 -1.11444,2.38706 -0.88432,2.43923 -0.42161,1.48455 v 0" /></g></g><g
       id="g56"><g
         clip-path="url(#clipPath62)"
         id="g58"><path
           id="path64"
           style="fill:none;stroke:#482878;stroke-width:1.5;stroke-linecap:butt;stroke-linejoin:round;stroke-miterlimit:10;stroke-dasharray:none;stroke-opacity:1"
           d="m 317.49394,69.022739 -3.02672,-2.5522 -3.19122,-2.401408 -3.348,-2.239947 -3.52841,-2.085831 -3.53959,-1.837466 -3.72,-1.680132 -3.80688,-1.473539 -4.01139,-1.302036 -4.12157,-1.08503 -4.05616,-0.82972 -4.092,-0.60635 -4.092,-0.380777 -4.092,-0.158928 -4.092,0.06136 -4.092,0.282246 -4.092,0.505907 -4.092,0.734565 -4.092,0.970804 -4.092,1.217612 -3.72,1.33288 -3.90024,1.644533 -3.55645,1.736048 -3.50495,1.953054 -3.17436,1.995719 -3.348,2.367047 -3.24041,2.581426 -2.71159,2.411417 -2.976,2.956589 -2.76574,3.095227 -2.44226,3.072997 -2.27248,3.220177 -2.15799,3.472096 -1.77338,3.25509 -1.64804,3.472095 -1.4947,3.689102 -1.2473,3.689104 -1.0135,3.6891 -0.78914,3.6891 -0.59969,3.90611 -0.34842,3.6891 -0.14183,3.90611 0.0901,3.90611 0.29945,3.6891 0.50972,3.6891 0.72475,3.6891 0.94671,3.6891 1.17732,3.6891 1.33004,3.4721 1.55818,3.4721 1.80312,3.47209 1.93178,3.25509 2.18847,3.25509 2.29977,3.03809 2.38543,2.82107 2.66027,2.82108 2.97863,2.82108 3.08516,2.60407 3.17058,2.38707 3.31903,2.22349 3.57794,2.11663 3.49006,1.81376 3.72,1.68335 3.85645,1.49402 3.58355,1.17522 4.092,1.10391 4.092,0.86231 4.092,0.62985 4.092,0.40375 4.092,0.18163 4.092,-0.0387 4.092,-0.25944 4.092,-0.48271 4.092,-0.71075 4.092,-0.94609 4.092,-1.19164 3.90372,-1.37833 3.65719,-1.51905 3.61774,-1.73604 3.70135,-2.03808 3.348,-2.09518 3.36678,-2.37692 3.27114,-2.60407 2.91609,-2.60408 2.82521,-2.82108 2.71217,-3.03808 2.41556,-3.03808 2.2989,-3.25509 2.03144,-3.25509 1.90016,-3.4721 1.64787,-3.47209 1.41374,-3.4721 1.26175,-3.6891 1.02681,-3.6891 0.80222,-3.68911 0.58495,-3.6891 0.38857,-3.9061 0.15496,-3.90611 -0.0774,-3.90611 -0.31033,-3.90611 -0.50986,-3.6891 -0.7327,-3.72367 -0.56208,-2.28973 v 0" /></g></g><g
       id="g66"><g
         clip-path="url(#clipPath72)"
         id="g68"><path
           id="path74"
           style="fill:none;stroke:#3e4989;stroke-width:1.5;stroke-linecap:butt;stroke-linejoin:round;stroke-miterlimit:10;stroke-dasharray:none;stroke-opacity:1"
           d="m 238.95411,10.7 -4.37498,3.25509 -4.39913,3.549211 -4.36863,3.828992 -3.8852,3.689102 -3.80588,3.906108 -3.70968,4.123114 -3.42394,4.123114 -3.16358,4.123113 -3.2178,4.557126 -2.81323,4.34012 -2.83144,4.774132 -2.46118,4.557125 -2.40344,4.907976 -2.232,5.082332 -2.02669,5.200111 -1.78156,5.208144 -1.54209,5.208144 -1.31104,5.208144 -1.08588,5.208143 -0.86631,5.208149 -0.67325,5.42514 -0.42901,5.20815 -0.22285,5.42515 0.005,5.42515 0.23191,5.42515 0.46086,5.42515 0.69152,5.42515 0.92636,5.42515 1.11376,5.20814 1.33914,5.20814 0.62988,2.18209 v 0" /><path
           id="path76"
           style="fill:none;stroke:#3e4989;stroke-width:1.5;stroke-linecap:butt;stroke-linejoin:round;stroke-miterlimit:10;stroke-dasharray:none;stroke-opacity:1"
           d="m 204.33099,192.57737 3.15701,4.50857 3.49867,4.57933 3.56933,4.29158 3.7678,4.17165 3.82291,3.90611 3.94129,3.72449 4.1842,3.65371 4.3718,3.52253 4.31011,3.20466 v 0" /></g></g><g
       id="g78"><g
         clip-path="url(#clipPath84)"
         id="g80"><path
           id="path86"
           style="fill:none;stroke:#31688e;stroke-width:1.5;stroke-linecap:butt;stroke-linejoin:round;stroke-miterlimit:10;stroke-dasharray:none;stroke-opacity:1"
           d="m 191.16596,10.7 -2.74628,7.59521 -2.66448,8.029221 -2.42525,8.029222 -2.07817,7.595209 -1.97379,8.029222 -1.74791,8.029221 -1.52596,8.029222 -1.30704,8.029222 -1.1169,8.246227 -0.89067,8.246228 -0.66661,8.246227 -0.4436,8.246229 -0.22183,8.24623 v 8.24622 l 0.22183,8.24623 0.4436,8.24623 0.66661,8.24623 0.89067,8.24622 1.08467,8.02923 1.30103,8.02922 1.5642,8.24622 1.74791,8.02923 2.03029,8.24622 2.14691,7.81222 0.47494,1.62719 v 0" /></g></g><g
       id="g88"><g
         clip-path="url(#clipPath94)"
         id="g90"><path
           id="path96"
           style="fill:none;stroke:#fde725;stroke-width:1.5;stroke-linecap:butt;stroke-linejoin:round;stroke-miterlimit:10;stroke-dasharray:none;stroke-opacity:1"
           d="m 10.7,25.873152 4.836,-1.070537 4.836,-0.836567 4.836,-0.608668 4.836,-0.385056 4.836,-0.164098 4.836,0.05571 4.836,0.27576 4.836,0.497892 4.894277,0.733793 4.777723,0.943891 4.836,1.192141 4.836,1.439198 4.661952,1.632914 4.312701,1.736048 4.417347,2.017254 4.464,2.302463 4.16569,2.407468 4.052997,2.604072 3.961807,2.821078 3.593816,2.821078 3.2676,2.80731 v 0" /><path
           id="path98"
           style="fill:none;stroke:#fde725;stroke-width:1.5;stroke-linecap:butt;stroke-linejoin:round;stroke-miterlimit:10;stroke-dasharray:none;stroke-opacity:1"
           d="m 129.1787,81.077506 1.72744,4.055548 1.53209,4.123114 1.39377,4.389309 1.13669,4.29093 0.93035,4.340123 0.74523,4.55712 0.51304,4.55713 0.28577,4.55712 0.0589,4.55713 -0.16638,4.55713 -0.39372,4.55712 -0.62336,4.55713 -0.811,4.34012 -1.02863,4.34012 -1.25277,4.34012 -1.486,4.34012 -1.73025,4.34012 -1.88238,4.12311 -2.12999,4.12311 -2.26221,3.90611 -2.55127,3.95285 -2.60516,3.64236 -2.91223,3.6891 -3.02053,3.4721 -3.10835,3.25509 -3.41229,3.25509 -3.54144,3.07251 -3.815506,3.00366 -3.961807,2.82107 -3.754687,2.42174 -4.092,2.38534 -4.092,2.14202 -4.464,2.0804 -4.464,1.83051 -4.464,1.59613 -4.836,1.47823 -4.836,1.22942 -4.836,0.99037 -4.941433,0.77231 -4.730567,0.5186 -4.836,0.30979 -4.836,0.0895 -4.836,-0.13026 -4.862791,-0.3536 -4.809209,-0.57132 -4.836,-0.80113 -4.836,-1.03412 -0.744,-0.18023 v 0" /></g></g><g
       id="g100"><path
         id="path102"
         style="fill:none;stroke:#000000;stroke-width:0.80000001;stroke-linecap:square;stroke-linejoin:miter;stroke-miterlimit:10;stroke-dasharray:none;stroke-opacity:1"
         d="M 10.7,10.7 V 228.14" /><path
         id="path104"
         style="fill:none;stroke:#000000;stroke-width:0.80000001;stroke-linecap:square;stroke-linejoin:miter;stroke-miterlimit:10;stroke-dasharray:none;stroke-opacity:1"
         d="M 345.5,10.7 V 228.14" /><path
         id="path106"
         style="fill:none;stroke:#000000;stroke-width:0.80000001;stroke-linecap:square;stroke-linejoin:miter;stroke-miterlimit:10;stroke-dasharray:none;stroke-opacity:1"
         d="M 10.7,10.7 H 345.5" /><path
         id="path108"
         style="fill:none;stroke:#000000;stroke-width:0.80000001;stroke-linecap:square;stroke-linejoin:miter;stroke-miterlimit:10;stroke-dasharray:none;stroke-opacity:1"
         d="M 10.7,228.14 H 345.5" /></g><g
       id="g110"><g
         clip-path="url(#clipPath116)"
         id="g112"><text
           id="text120"
           style="font-variant:normal;font-weight:normal;font-size:10px;font-family:'DejaVu Sans';-inkscape-font-specification:DejaVuSans;writing-mode:lr-tb;fill:#440154;fill-opacity:1;fill-rule:nonzero;stroke:none"
           transform="matrix(0.42245281,0.90638492,0.90638492,-0.42245281,212.84096,117.65166)"><tspan
             id="tspan118"
             y="0"
             x="0 6.3600001 9.54 15.9 22.26">0.200</tspan></text>
</g></g><g
       id="g122"><g
         clip-path="url(#clipPath128)"
         id="g124"><text
           id="text132"
           style="font-variant:normal;font-weight:normal;font-size:10px;font-family:'DejaVu Sans';-inkscape-font-specification:DejaVuSans;writing-mode:lr-tb;fill:#482878;fill-opacity:1;fill-rule:nonzero;stroke:none"
           transform="matrix(0.52680134,0.84998844,0.84998844,-0.52680134,325.14108,70.646751)"><tspan
             id="tspan130"
             y="0"
             x="0 6.3600001 9.54 15.9 22.26">0.400</tspan></text>
</g></g><g
       id="g134"><g
         clip-path="url(#clipPath140)"
         id="g136"><text
           id="text144"
           style="font-variant:normal;font-weight:normal;font-size:10px;font-family:'DejaVu Sans';-inkscape-font-specification:DejaVuSans;writing-mode:lr-tb;fill:#3e4989;fill-opacity:1;fill-rule:nonzero;stroke:none"
           transform="matrix(0.4269642,0.90426853,0.90426853,-0.4269642,190.85088,161.08)"><tspan
             id="tspan142"
             y="0"
             x="0 6.3600001 9.54 15.9 22.26">0.600</tspan></text>
</g></g><g
       id="g146"><g
         clip-path="url(#clipPath152)"
         id="g148"><text
           id="text156"
           style="font-variant:normal;font-weight:normal;font-size:10px;font-family:'DejaVu Sans';-inkscape-font-specification:DejaVuSans;writing-mode:lr-tb;fill:#31688e;fill-opacity:1;fill-rule:nonzero;stroke:none"
           transform="matrix(0.32535025,0.94559358,0.94559358,-0.32535025,188.15058,211.10487)"><tspan
             id="tspan154"
             y="0"
             x="0 6.3600001 9.54 15.9 22.26">0.800</tspan></text>
</g></g><g
       id="g158"><g
         clip-path="url(#clipPath164)"
         id="g160"><text
           id="text168"
           style="font-variant:normal;font-weight:normal;font-size:10px;font-family:'DejaVu Sans';-inkscape-font-specification:DejaVuSans;writing-mode:lr-tb;fill:#fde725;fill-opacity:1;fill-rule:nonzero;stroke:none"
           transform="matrix(0.59326638,0.80500621,0.80500621,-0.59326638,112.79237,50.708698)"><tspan
             id="tspan166"
             y="0"
             x="0 6.3600001 9.54 15.9 22.26">2.000</tspan></text>
</g></g></g></svg>