<?xml version="1.0" encoding="utf-8" standalone="no"?>
<!DOCTYPE svg PUBLIC "-//W3C//DTD SVG 1.1//EN"
  "http://www.w3.org/Graphics/SVG/1.1/DTD/svg11.dtd">
<!-- Created with matplotlib (https://matplotlib.org/) -->
<svg height="288pt" version="1.1" viewBox="0 0 432 288" width="432pt" xmlns="http://www.w3.org/2000/svg" xmlns:xlink="http://www.w3.org/1999/xlink">
 <defs>
  <style type="text/css">
*{stroke-linecap:butt;stroke-linejoin:round;}
  </style>
 </defs>
 <g id="figure_1">
  <g id="patch_1">
   <path d="M 0 288 
L 432 288 
L 432 0 
L 0 0 
z
" style="fill:#ffffff;"/>
  </g>
  <g id="axes_1">
   <g id="patch_2">
    <path d="M 33.675 260.2 
L 413.2625 260.2 
L 413.2625 14.8 
L 33.675 14.8 
z
" style="fill:#ffffff;"/>
   </g>
   <g id="PathCollection_1">
    <defs>
     <path d="M 3 0 
L -3 -0 
" id="m306bd77030" style="stroke:#0000ff;stroke-opacity:0.4;stroke-width:1.5;"/>
    </defs>
    <g clip-path="url(#ped00553ed9)">
     <use style="fill:#0000ff;fill-opacity:0.4;stroke:#0000ff;stroke-opacity:0.4;stroke-width:1.5;" x="239.9445" xlink:href="#m306bd77030" y="49.109204"/>
     <use style="fill:#0000ff;fill-opacity:0.4;stroke:#0000ff;stroke-opacity:0.4;stroke-width:1.5;" x="285.165315" xlink:href="#m306bd77030" y="14.90527"/>
     <use style="fill:#0000ff;fill-opacity:0.4;stroke:#0000ff;stroke-opacity:0.4;stroke-width:1.5;" x="280.974441" xlink:href="#m306bd77030" y="159.680157"/>
     <use style="fill:#0000ff;fill-opacity:0.4;stroke:#0000ff;stroke-opacity:0.4;stroke-width:1.5;" x="333.936558" xlink:href="#m306bd77030" y="69.601858"/>
     <use style="fill:#0000ff;fill-opacity:0.4;stroke:#0000ff;stroke-opacity:0.4;stroke-width:1.5;" x="224.184228" xlink:href="#m306bd77030" y="201.464055"/>
     <use style="fill:#0000ff;fill-opacity:0.4;stroke:#0000ff;stroke-opacity:0.4;stroke-width:1.5;" x="383.905516" xlink:href="#m306bd77030" y="74.018877"/>
     <use style="fill:#0000ff;fill-opacity:0.4;stroke:#0000ff;stroke-opacity:0.4;stroke-width:1.5;" x="285.015313" xlink:href="#m306bd77030" y="244.221268"/>
     <use style="fill:#0000ff;fill-opacity:0.4;stroke:#0000ff;stroke-opacity:0.4;stroke-width:1.5;" x="330.49489" xlink:href="#m306bd77030" y="22.324601"/>
     <use style="fill:#0000ff;fill-opacity:0.4;stroke:#0000ff;stroke-opacity:0.4;stroke-width:1.5;" x="364.452208" xlink:href="#m306bd77030" y="56.589143"/>
     <use style="fill:#0000ff;fill-opacity:0.4;stroke:#0000ff;stroke-opacity:0.4;stroke-width:1.5;" x="287.523618" xlink:href="#m306bd77030" y="22.272625"/>
     <use style="fill:#0000ff;fill-opacity:0.4;stroke:#0000ff;stroke-opacity:0.4;stroke-width:1.5;" x="254.833541" xlink:href="#m306bd77030" y="216.170291"/>
     <use style="fill:#0000ff;fill-opacity:0.4;stroke:#0000ff;stroke-opacity:0.4;stroke-width:1.5;" x="381.654589" xlink:href="#m306bd77030" y="38.740438"/>
     <use style="fill:#0000ff;fill-opacity:0.4;stroke:#0000ff;stroke-opacity:0.4;stroke-width:1.5;" x="233.756275" xlink:href="#m306bd77030" y="16.236351"/>
     <use style="fill:#0000ff;fill-opacity:0.4;stroke:#0000ff;stroke-opacity:0.4;stroke-width:1.5;" x="267.836296" xlink:href="#m306bd77030" y="62.533243"/>
     <use style="fill:#0000ff;fill-opacity:0.4;stroke:#0000ff;stroke-opacity:0.4;stroke-width:1.5;" x="372.668334" xlink:href="#m306bd77030" y="206.11836"/>
     <use style="fill:#0000ff;fill-opacity:0.4;stroke:#0000ff;stroke-opacity:0.4;stroke-width:1.5;" x="330.16087" xlink:href="#m306bd77030" y="194.079151"/>
     <use style="fill:#0000ff;fill-opacity:0.4;stroke:#0000ff;stroke-opacity:0.4;stroke-width:1.5;" x="373.459755" xlink:href="#m306bd77030" y="154.103263"/>
     <use style="fill:#0000ff;fill-opacity:0.4;stroke:#0000ff;stroke-opacity:0.4;stroke-width:1.5;" x="291.073928" xlink:href="#m306bd77030" y="244.162699"/>
     <use style="fill:#0000ff;fill-opacity:0.4;stroke:#0000ff;stroke-opacity:0.4;stroke-width:1.5;" x="390.217767" xlink:href="#m306bd77030" y="251.744687"/>
     <use style="fill:#0000ff;fill-opacity:0.4;stroke:#0000ff;stroke-opacity:0.4;stroke-width:1.5;" x="350.530977" xlink:href="#m306bd77030" y="154.566577"/>
     <use style="fill:#0000ff;fill-opacity:0.4;stroke:#0000ff;stroke-opacity:0.4;stroke-width:1.5;" x="323.580176" xlink:href="#m306bd77030" y="259.890695"/>
     <use style="fill:#0000ff;fill-opacity:0.4;stroke:#0000ff;stroke-opacity:0.4;stroke-width:1.5;" x="396.177556" xlink:href="#m306bd77030" y="53.140488"/>
     <use style="fill:#0000ff;fill-opacity:0.4;stroke:#0000ff;stroke-opacity:0.4;stroke-width:1.5;" x="313.079009" xlink:href="#m306bd77030" y="165.287505"/>
     <use style="fill:#0000ff;fill-opacity:0.4;stroke:#0000ff;stroke-opacity:0.4;stroke-width:1.5;" x="298.142688" xlink:href="#m306bd77030" y="250.855924"/>
     <use style="fill:#0000ff;fill-opacity:0.4;stroke:#0000ff;stroke-opacity:0.4;stroke-width:1.5;" x="333.368901" xlink:href="#m306bd77030" y="234.136775"/>
     <use style="fill:#0000ff;fill-opacity:0.4;stroke:#0000ff;stroke-opacity:0.4;stroke-width:1.5;" x="365.9473" xlink:href="#m306bd77030" y="176.1077"/>
     <use style="fill:#0000ff;fill-opacity:0.4;stroke:#0000ff;stroke-opacity:0.4;stroke-width:1.5;" x="273.424914" xlink:href="#m306bd77030" y="91.844519"/>
     <use style="fill:#0000ff;fill-opacity:0.4;stroke:#0000ff;stroke-opacity:0.4;stroke-width:1.5;" x="368.074633" xlink:href="#m306bd77030" y="29.71634"/>
     <use style="fill:#0000ff;fill-opacity:0.4;stroke:#0000ff;stroke-opacity:0.4;stroke-width:1.5;" x="392.449074" xlink:href="#m306bd77030" y="65.684163"/>
     <use style="fill:#0000ff;fill-opacity:0.4;stroke:#0000ff;stroke-opacity:0.4;stroke-width:1.5;" x="395.122154" xlink:href="#m306bd77030" y="36.079086"/>
     <use style="fill:#0000ff;fill-opacity:0.4;stroke:#0000ff;stroke-opacity:0.4;stroke-width:1.5;" x="343.356912" xlink:href="#m306bd77030" y="204.126409"/>
     <use style="fill:#0000ff;fill-opacity:0.4;stroke:#0000ff;stroke-opacity:0.4;stroke-width:1.5;" x="293.139216" xlink:href="#m306bd77030" y="129.897895"/>
     <use style="fill:#0000ff;fill-opacity:0.4;stroke:#0000ff;stroke-opacity:0.4;stroke-width:1.5;" x="316.485586" xlink:href="#m306bd77030" y="70.625321"/>
     <use style="fill:#0000ff;fill-opacity:0.4;stroke:#0000ff;stroke-opacity:0.4;stroke-width:1.5;" x="326.37313" xlink:href="#m306bd77030" y="94.192474"/>
     <use style="fill:#0000ff;fill-opacity:0.4;stroke:#0000ff;stroke-opacity:0.4;stroke-width:1.5;" x="229.567565" xlink:href="#m306bd77030" y="58.942248"/>
     <use style="fill:#0000ff;fill-opacity:0.4;stroke:#0000ff;stroke-opacity:0.4;stroke-width:1.5;" x="250.738221" xlink:href="#m306bd77030" y="161.303606"/>
     <use style="fill:#0000ff;fill-opacity:0.4;stroke:#0000ff;stroke-opacity:0.4;stroke-width:1.5;" x="334.729736" xlink:href="#m306bd77030" y="83.166565"/>
     <use style="fill:#0000ff;fill-opacity:0.4;stroke:#0000ff;stroke-opacity:0.4;stroke-width:1.5;" x="223.549253" xlink:href="#m306bd77030" y="190.968431"/>
     <use style="fill:#0000ff;fill-opacity:0.4;stroke:#0000ff;stroke-opacity:0.4;stroke-width:1.5;" x="284.092201" xlink:href="#m306bd77030" y="52.318375"/>
     <use style="fill:#0000ff;fill-opacity:0.4;stroke:#0000ff;stroke-opacity:0.4;stroke-width:1.5;" x="346.321359" xlink:href="#m306bd77030" y="76.600051"/>
     <use style="fill:#0000ff;fill-opacity:0.4;stroke:#0000ff;stroke-opacity:0.4;stroke-width:1.5;" x="235.726606" xlink:href="#m306bd77030" y="180.09411"/>
     <use style="fill:#0000ff;fill-opacity:0.4;stroke:#0000ff;stroke-opacity:0.4;stroke-width:1.5;" x="225.61556" xlink:href="#m306bd77030" y="67.20837"/>
     <use style="fill:#0000ff;fill-opacity:0.4;stroke:#0000ff;stroke-opacity:0.4;stroke-width:1.5;" x="250.904759" xlink:href="#m306bd77030" y="155.755418"/>
     <use style="fill:#0000ff;fill-opacity:0.4;stroke:#0000ff;stroke-opacity:0.4;stroke-width:1.5;" x="258.273018" xlink:href="#m306bd77030" y="64.120918"/>
     <use style="fill:#0000ff;fill-opacity:0.4;stroke:#0000ff;stroke-opacity:0.4;stroke-width:1.5;" x="348.946064" xlink:href="#m306bd77030" y="129.172512"/>
     <use style="fill:#0000ff;fill-opacity:0.4;stroke:#0000ff;stroke-opacity:0.4;stroke-width:1.5;" x="358.256484" xlink:href="#m306bd77030" y="100.203806"/>
     <use style="fill:#0000ff;fill-opacity:0.4;stroke:#0000ff;stroke-opacity:0.4;stroke-width:1.5;" x="363.692376" xlink:href="#m306bd77030" y="222.853315"/>
     <use style="fill:#0000ff;fill-opacity:0.4;stroke:#0000ff;stroke-opacity:0.4;stroke-width:1.5;" x="254.042853" xlink:href="#m306bd77030" y="137.416452"/>
     <use style="fill:#0000ff;fill-opacity:0.4;stroke:#0000ff;stroke-opacity:0.4;stroke-width:1.5;" x="320.75912" xlink:href="#m306bd77030" y="146.609541"/>
     <use style="fill:#0000ff;fill-opacity:0.4;stroke:#0000ff;stroke-opacity:0.4;stroke-width:1.5;" x="227.835963" xlink:href="#m306bd77030" y="172.187968"/>
     <use style="fill:#0000ff;fill-opacity:0.4;stroke:#0000ff;stroke-opacity:0.4;stroke-width:1.5;" x="271.457547" xlink:href="#m306bd77030" y="222.122792"/>
     <use style="fill:#0000ff;fill-opacity:0.4;stroke:#0000ff;stroke-opacity:0.4;stroke-width:1.5;" x="383.238839" xlink:href="#m306bd77030" y="141.431795"/>
     <use style="fill:#0000ff;fill-opacity:0.4;stroke:#0000ff;stroke-opacity:0.4;stroke-width:1.5;" x="244.780218" xlink:href="#m306bd77030" y="110.670447"/>
     <use style="fill:#0000ff;fill-opacity:0.4;stroke:#0000ff;stroke-opacity:0.4;stroke-width:1.5;" x="394.728753" xlink:href="#m306bd77030" y="84.68901"/>
     <use style="fill:#0000ff;fill-opacity:0.4;stroke:#0000ff;stroke-opacity:0.4;stroke-width:1.5;" x="315.657382" xlink:href="#m306bd77030" y="25.153942"/>
     <use style="fill:#0000ff;fill-opacity:0.4;stroke:#0000ff;stroke-opacity:0.4;stroke-width:1.5;" x="403.946051" xlink:href="#m306bd77030" y="247.360753"/>
     <use style="fill:#0000ff;fill-opacity:0.4;stroke:#0000ff;stroke-opacity:0.4;stroke-width:1.5;" x="301.574317" xlink:href="#m306bd77030" y="236.022275"/>
     <use style="fill:#0000ff;fill-opacity:0.4;stroke:#0000ff;stroke-opacity:0.4;stroke-width:1.5;" x="349.023115" xlink:href="#m306bd77030" y="204.056472"/>
     <use style="fill:#0000ff;fill-opacity:0.4;stroke:#0000ff;stroke-opacity:0.4;stroke-width:1.5;" x="267.984892" xlink:href="#m306bd77030" y="32.855492"/>
     <use style="fill:#0000ff;fill-opacity:0.4;stroke:#0000ff;stroke-opacity:0.4;stroke-width:1.5;" x="291.586371" xlink:href="#m306bd77030" y="25.364643"/>
     <use style="fill:#0000ff;fill-opacity:0.4;stroke:#0000ff;stroke-opacity:0.4;stroke-width:1.5;" x="384.899346" xlink:href="#m306bd77030" y="219.506945"/>
     <use style="fill:#0000ff;fill-opacity:0.4;stroke:#0000ff;stroke-opacity:0.4;stroke-width:1.5;" x="378.785387" xlink:href="#m306bd77030" y="81.911871"/>
     <use style="fill:#0000ff;fill-opacity:0.4;stroke:#0000ff;stroke-opacity:0.4;stroke-width:1.5;" x="372.14052" xlink:href="#m306bd77030" y="239.415519"/>
     <use style="fill:#0000ff;fill-opacity:0.4;stroke:#0000ff;stroke-opacity:0.4;stroke-width:1.5;" x="364.529403" xlink:href="#m306bd77030" y="191.732079"/>
     <use style="fill:#0000ff;fill-opacity:0.4;stroke:#0000ff;stroke-opacity:0.4;stroke-width:1.5;" x="389.471388" xlink:href="#m306bd77030" y="183.792178"/>
     <use style="fill:#0000ff;fill-opacity:0.4;stroke:#0000ff;stroke-opacity:0.4;stroke-width:1.5;" x="308.749195" xlink:href="#m306bd77030" y="47.821293"/>
     <use style="fill:#0000ff;fill-opacity:0.4;stroke:#0000ff;stroke-opacity:0.4;stroke-width:1.5;" x="240.524754" xlink:href="#m306bd77030" y="52.907776"/>
     <use style="fill:#0000ff;fill-opacity:0.4;stroke:#0000ff;stroke-opacity:0.4;stroke-width:1.5;" x="276.815926" xlink:href="#m306bd77030" y="40.397599"/>
     <use style="fill:#0000ff;fill-opacity:0.4;stroke:#0000ff;stroke-opacity:0.4;stroke-width:1.5;" x="295.980854" xlink:href="#m306bd77030" y="146.080115"/>
     <use style="fill:#0000ff;fill-opacity:0.4;stroke:#0000ff;stroke-opacity:0.4;stroke-width:1.5;" x="262.667692" xlink:href="#m306bd77030" y="74.770145"/>
     <use style="fill:#0000ff;fill-opacity:0.4;stroke:#0000ff;stroke-opacity:0.4;stroke-width:1.5;" x="339.429892" xlink:href="#m306bd77030" y="94.798709"/>
     <use style="fill:#0000ff;fill-opacity:0.4;stroke:#0000ff;stroke-opacity:0.4;stroke-width:1.5;" x="283.131622" xlink:href="#m306bd77030" y="90.272247"/>
     <use style="fill:#0000ff;fill-opacity:0.4;stroke:#0000ff;stroke-opacity:0.4;stroke-width:1.5;" x="366.408014" xlink:href="#m306bd77030" y="175.467218"/>
     <use style="fill:#0000ff;fill-opacity:0.4;stroke:#0000ff;stroke-opacity:0.4;stroke-width:1.5;" x="236.254066" xlink:href="#m306bd77030" y="37.129244"/>
     <use style="fill:#0000ff;fill-opacity:0.4;stroke:#0000ff;stroke-opacity:0.4;stroke-width:1.5;" x="357.212436" xlink:href="#m306bd77030" y="54.17943"/>
     <use style="fill:#0000ff;fill-opacity:0.4;stroke:#0000ff;stroke-opacity:0.4;stroke-width:1.5;" x="349.433038" xlink:href="#m306bd77030" y="45.637427"/>
     <use style="fill:#0000ff;fill-opacity:0.4;stroke:#0000ff;stroke-opacity:0.4;stroke-width:1.5;" x="404.694044" xlink:href="#m306bd77030" y="34.249113"/>
     <use style="fill:#0000ff;fill-opacity:0.4;stroke:#0000ff;stroke-opacity:0.4;stroke-width:1.5;" x="282.326873" xlink:href="#m306bd77030" y="173.600901"/>
     <use style="fill:#0000ff;fill-opacity:0.4;stroke:#0000ff;stroke-opacity:0.4;stroke-width:1.5;" x="275.353628" xlink:href="#m306bd77030" y="75.687868"/>
     <use style="fill:#0000ff;fill-opacity:0.4;stroke:#0000ff;stroke-opacity:0.4;stroke-width:1.5;" x="401.449507" xlink:href="#m306bd77030" y="66.859462"/>
     <use style="fill:#0000ff;fill-opacity:0.4;stroke:#0000ff;stroke-opacity:0.4;stroke-width:1.5;" x="257.751703" xlink:href="#m306bd77030" y="94.984795"/>
     <use style="fill:#0000ff;fill-opacity:0.4;stroke:#0000ff;stroke-opacity:0.4;stroke-width:1.5;" x="390.435332" xlink:href="#m306bd77030" y="256.964568"/>
     <use style="fill:#0000ff;fill-opacity:0.4;stroke:#0000ff;stroke-opacity:0.4;stroke-width:1.5;" x="306.110971" xlink:href="#m306bd77030" y="198.998431"/>
     <use style="fill:#0000ff;fill-opacity:0.4;stroke:#0000ff;stroke-opacity:0.4;stroke-width:1.5;" x="367.021632" xlink:href="#m306bd77030" y="134.997157"/>
     <use style="fill:#0000ff;fill-opacity:0.4;stroke:#0000ff;stroke-opacity:0.4;stroke-width:1.5;" x="270.233157" xlink:href="#m306bd77030" y="129.661951"/>
     <use style="fill:#0000ff;fill-opacity:0.4;stroke:#0000ff;stroke-opacity:0.4;stroke-width:1.5;" x="400.568212" xlink:href="#m306bd77030" y="125.491969"/>
     <use style="fill:#0000ff;fill-opacity:0.4;stroke:#0000ff;stroke-opacity:0.4;stroke-width:1.5;" x="272.211637" xlink:href="#m306bd77030" y="157.322336"/>
     <use style="fill:#0000ff;fill-opacity:0.4;stroke:#0000ff;stroke-opacity:0.4;stroke-width:1.5;" x="384.100871" xlink:href="#m306bd77030" y="15.298531"/>
     <use style="fill:#0000ff;fill-opacity:0.4;stroke:#0000ff;stroke-opacity:0.4;stroke-width:1.5;" x="264.173049" xlink:href="#m306bd77030" y="256.790024"/>
     <use style="fill:#0000ff;fill-opacity:0.4;stroke:#0000ff;stroke-opacity:0.4;stroke-width:1.5;" x="409.849364" xlink:href="#m306bd77030" y="220.313771"/>
     <use style="fill:#0000ff;fill-opacity:0.4;stroke:#0000ff;stroke-opacity:0.4;stroke-width:1.5;" x="384.368781" xlink:href="#m306bd77030" y="238.148196"/>
     <use style="fill:#0000ff;fill-opacity:0.4;stroke:#0000ff;stroke-opacity:0.4;stroke-width:1.5;" x="311.091002" xlink:href="#m306bd77030" y="170.994561"/>
     <use style="fill:#0000ff;fill-opacity:0.4;stroke:#0000ff;stroke-opacity:0.4;stroke-width:1.5;" x="411.854174" xlink:href="#m306bd77030" y="27.265309"/>
     <use style="fill:#0000ff;fill-opacity:0.4;stroke:#0000ff;stroke-opacity:0.4;stroke-width:1.5;" x="262.070936" xlink:href="#m306bd77030" y="111.972196"/>
     <use style="fill:#0000ff;fill-opacity:0.4;stroke:#0000ff;stroke-opacity:0.4;stroke-width:1.5;" x="327.6304" xlink:href="#m306bd77030" y="101.836379"/>
     <use style="fill:#0000ff;fill-opacity:0.4;stroke:#0000ff;stroke-opacity:0.4;stroke-width:1.5;" x="354.572572" xlink:href="#m306bd77030" y="87.534775"/>
     <use style="fill:#0000ff;fill-opacity:0.4;stroke:#0000ff;stroke-opacity:0.4;stroke-width:1.5;" x="391.531768" xlink:href="#m306bd77030" y="81.603152"/>
     <use style="fill:#0000ff;fill-opacity:0.4;stroke:#0000ff;stroke-opacity:0.4;stroke-width:1.5;" x="343.017746" xlink:href="#m306bd77030" y="220.164279"/>
     <use style="fill:#0000ff;fill-opacity:0.4;stroke:#0000ff;stroke-opacity:0.4;stroke-width:1.5;" x="289.117495" xlink:href="#m306bd77030" y="17.347147"/>
     <use style="fill:#0000ff;fill-opacity:0.4;stroke:#0000ff;stroke-opacity:0.4;stroke-width:1.5;" x="309.279115" xlink:href="#m306bd77030" y="248.655619"/>
    </g>
   </g>
   <g id="PathCollection_2">
    <defs>
     <path d="M -3 0 
L 3 0 
M 0 3 
L 0 -3 
" id="ma9523c58d4" style="stroke:#008000;stroke-width:1.5;"/>
    </defs>
    <g clip-path="url(#ped00553ed9)">
     <use style="fill:#008000;stroke:#008000;stroke-width:1.5;" x="206.080406" xlink:href="#ma9523c58d4" y="75.419221"/>
     <use style="fill:#008000;stroke:#008000;stroke-width:1.5;" x="128.157162" xlink:href="#ma9523c58d4" y="115.999183"/>
     <use style="fill:#008000;stroke:#008000;stroke-width:1.5;" x="47.318209" xlink:href="#ma9523c58d4" y="105.744048"/>
     <use style="fill:#008000;stroke:#008000;stroke-width:1.5;" x="39.614131" xlink:href="#ma9523c58d4" y="226.166111"/>
     <use style="fill:#008000;stroke:#008000;stroke-width:1.5;" x="133.205864" xlink:href="#ma9523c58d4" y="164.747929"/>
     <use style="fill:#008000;stroke:#008000;stroke-width:1.5;" x="207.74648" xlink:href="#ma9523c58d4" y="135.059691"/>
     <use style="fill:#008000;stroke:#008000;stroke-width:1.5;" x="187.780866" xlink:href="#ma9523c58d4" y="111.363027"/>
     <use style="fill:#008000;stroke:#008000;stroke-width:1.5;" x="138.70842" xlink:href="#ma9523c58d4" y="216.937998"/>
     <use style="fill:#008000;stroke:#008000;stroke-width:1.5;" x="120.3375" xlink:href="#ma9523c58d4" y="169.416575"/>
     <use style="fill:#008000;stroke:#008000;stroke-width:1.5;" x="127.240391" xlink:href="#ma9523c58d4" y="27.316347"/>
    </g>
   </g>
   <g id="matplotlib.axis_1">
    <g id="xtick_1">
     <g id="line2d_1">
      <defs>
       <path d="M 0 0 
L 0 3.5 
" id="mdf30fd73a3" style="stroke:#000000;stroke-width:0.8;"/>
      </defs>
      <g>
       <use style="stroke:#000000;stroke-width:0.8;" x="33.675" xlink:href="#mdf30fd73a3" y="260.2"/>
      </g>
     </g>
     <g id="text_1">
      <!-- 0.0 -->
      <defs>
       <path d="M 31.78125 66.40625 
Q 24.171875 66.40625 20.328125 58.90625 
Q 16.5 51.421875 16.5 36.375 
Q 16.5 21.390625 20.328125 13.890625 
Q 24.171875 6.390625 31.78125 6.390625 
Q 39.453125 6.390625 43.28125 13.890625 
Q 47.125 21.390625 47.125 36.375 
Q 47.125 51.421875 43.28125 58.90625 
Q 39.453125 66.40625 31.78125 66.40625 
z
M 31.78125 74.21875 
Q 44.046875 74.21875 50.515625 64.515625 
Q 56.984375 54.828125 56.984375 36.375 
Q 56.984375 17.96875 50.515625 8.265625 
Q 44.046875 -1.421875 31.78125 -1.421875 
Q 19.53125 -1.421875 13.0625 8.265625 
Q 6.59375 17.96875 6.59375 36.375 
Q 6.59375 54.828125 13.0625 64.515625 
Q 19.53125 74.21875 31.78125 74.21875 
z
" id="DejaVuSans-48"/>
       <path d="M 10.6875 12.40625 
L 21 12.40625 
L 21 0 
L 10.6875 0 
z
" id="DejaVuSans-46"/>
      </defs>
      <g transform="translate(25.723438 274.798437)scale(0.1 -0.1)">
       <use xlink:href="#DejaVuSans-48"/>
       <use x="63.623047" xlink:href="#DejaVuSans-46"/>
       <use x="95.410156" xlink:href="#DejaVuSans-48"/>
      </g>
     </g>
    </g>
    <g id="xtick_2">
     <g id="line2d_2">
      <g>
       <use style="stroke:#000000;stroke-width:0.8;" x="109.5925" xlink:href="#mdf30fd73a3" y="260.2"/>
      </g>
     </g>
     <g id="text_2">
      <!-- 0.2 -->
      <defs>
       <path d="M 19.1875 8.296875 
L 53.609375 8.296875 
L 53.609375 0 
L 7.328125 0 
L 7.328125 8.296875 
Q 12.9375 14.109375 22.625 23.890625 
Q 32.328125 33.6875 34.8125 36.53125 
Q 39.546875 41.84375 41.421875 45.53125 
Q 43.3125 49.21875 43.3125 52.78125 
Q 43.3125 58.59375 39.234375 62.25 
Q 35.15625 65.921875 28.609375 65.921875 
Q 23.96875 65.921875 18.8125 64.3125 
Q 13.671875 62.703125 7.8125 59.421875 
L 7.8125 69.390625 
Q 13.765625 71.78125 18.9375 73 
Q 24.125 74.21875 28.421875 74.21875 
Q 39.75 74.21875 46.484375 68.546875 
Q 53.21875 62.890625 53.21875 53.421875 
Q 53.21875 48.921875 51.53125 44.890625 
Q 49.859375 40.875 45.40625 35.40625 
Q 44.1875 33.984375 37.640625 27.21875 
Q 31.109375 20.453125 19.1875 8.296875 
z
" id="DejaVuSans-50"/>
      </defs>
      <g transform="translate(101.640938 274.798437)scale(0.1 -0.1)">
       <use xlink:href="#DejaVuSans-48"/>
       <use x="63.623047" xlink:href="#DejaVuSans-46"/>
       <use x="95.410156" xlink:href="#DejaVuSans-50"/>
      </g>
     </g>
    </g>
    <g id="xtick_3">
     <g id="line2d_3">
      <g>
       <use style="stroke:#000000;stroke-width:0.8;" x="185.51" xlink:href="#mdf30fd73a3" y="260.2"/>
      </g>
     </g>
     <g id="text_3">
      <!-- 0.4 -->
      <defs>
       <path d="M 37.796875 64.3125 
L 12.890625 25.390625 
L 37.796875 25.390625 
z
M 35.203125 72.90625 
L 47.609375 72.90625 
L 47.609375 25.390625 
L 58.015625 25.390625 
L 58.015625 17.1875 
L 47.609375 17.1875 
L 47.609375 0 
L 37.796875 0 
L 37.796875 17.1875 
L 4.890625 17.1875 
L 4.890625 26.703125 
z
" id="DejaVuSans-52"/>
      </defs>
      <g transform="translate(177.558438 274.798437)scale(0.1 -0.1)">
       <use xlink:href="#DejaVuSans-48"/>
       <use x="63.623047" xlink:href="#DejaVuSans-46"/>
       <use x="95.410156" xlink:href="#DejaVuSans-52"/>
      </g>
     </g>
    </g>
    <g id="xtick_4">
     <g id="line2d_4">
      <g>
       <use style="stroke:#000000;stroke-width:0.8;" x="261.4275" xlink:href="#mdf30fd73a3" y="260.2"/>
      </g>
     </g>
     <g id="text_4">
      <!-- 0.6 -->
      <defs>
       <path d="M 33.015625 40.375 
Q 26.375 40.375 22.484375 35.828125 
Q 18.609375 31.296875 18.609375 23.390625 
Q 18.609375 15.53125 22.484375 10.953125 
Q 26.375 6.390625 33.015625 6.390625 
Q 39.65625 6.390625 43.53125 10.953125 
Q 47.40625 15.53125 47.40625 23.390625 
Q 47.40625 31.296875 43.53125 35.828125 
Q 39.65625 40.375 33.015625 40.375 
z
M 52.59375 71.296875 
L 52.59375 62.3125 
Q 48.875 64.0625 45.09375 64.984375 
Q 41.3125 65.921875 37.59375 65.921875 
Q 27.828125 65.921875 22.671875 59.328125 
Q 17.53125 52.734375 16.796875 39.40625 
Q 19.671875 43.65625 24.015625 45.921875 
Q 28.375 48.1875 33.59375 48.1875 
Q 44.578125 48.1875 50.953125 41.515625 
Q 57.328125 34.859375 57.328125 23.390625 
Q 57.328125 12.15625 50.6875 5.359375 
Q 44.046875 -1.421875 33.015625 -1.421875 
Q 20.359375 -1.421875 13.671875 8.265625 
Q 6.984375 17.96875 6.984375 36.375 
Q 6.984375 53.65625 15.1875 63.9375 
Q 23.390625 74.21875 37.203125 74.21875 
Q 40.921875 74.21875 44.703125 73.484375 
Q 48.484375 72.75 52.59375 71.296875 
z
" id="DejaVuSans-54"/>
      </defs>
      <g transform="translate(253.475938 274.798437)scale(0.1 -0.1)">
       <use xlink:href="#DejaVuSans-48"/>
       <use x="63.623047" xlink:href="#DejaVuSans-46"/>
       <use x="95.410156" xlink:href="#DejaVuSans-54"/>
      </g>
     </g>
    </g>
    <g id="xtick_5">
     <g id="line2d_5">
      <g>
       <use style="stroke:#000000;stroke-width:0.8;" x="337.345" xlink:href="#mdf30fd73a3" y="260.2"/>
      </g>
     </g>
     <g id="text_5">
      <!-- 0.8 -->
      <defs>
       <path d="M 31.78125 34.625 
Q 24.75 34.625 20.71875 30.859375 
Q 16.703125 27.09375 16.703125 20.515625 
Q 16.703125 13.921875 20.71875 10.15625 
Q 24.75 6.390625 31.78125 6.390625 
Q 38.8125 6.390625 42.859375 10.171875 
Q 46.921875 13.96875 46.921875 20.515625 
Q 46.921875 27.09375 42.890625 30.859375 
Q 38.875 34.625 31.78125 34.625 
z
M 21.921875 38.8125 
Q 15.578125 40.375 12.03125 44.71875 
Q 8.5 49.078125 8.5 55.328125 
Q 8.5 64.0625 14.71875 69.140625 
Q 20.953125 74.21875 31.78125 74.21875 
Q 42.671875 74.21875 48.875 69.140625 
Q 55.078125 64.0625 55.078125 55.328125 
Q 55.078125 49.078125 51.53125 44.71875 
Q 48 40.375 41.703125 38.8125 
Q 48.828125 37.15625 52.796875 32.3125 
Q 56.78125 27.484375 56.78125 20.515625 
Q 56.78125 9.90625 50.3125 4.234375 
Q 43.84375 -1.421875 31.78125 -1.421875 
Q 19.734375 -1.421875 13.25 4.234375 
Q 6.78125 9.90625 6.78125 20.515625 
Q 6.78125 27.484375 10.78125 32.3125 
Q 14.796875 37.15625 21.921875 38.8125 
z
M 18.3125 54.390625 
Q 18.3125 48.734375 21.84375 45.5625 
Q 25.390625 42.390625 31.78125 42.390625 
Q 38.140625 42.390625 41.71875 45.5625 
Q 45.3125 48.734375 45.3125 54.390625 
Q 45.3125 60.0625 41.71875 63.234375 
Q 38.140625 66.40625 31.78125 66.40625 
Q 25.390625 66.40625 21.84375 63.234375 
Q 18.3125 60.0625 18.3125 54.390625 
z
" id="DejaVuSans-56"/>
      </defs>
      <g transform="translate(329.393438 274.798437)scale(0.1 -0.1)">
       <use xlink:href="#DejaVuSans-48"/>
       <use x="63.623047" xlink:href="#DejaVuSans-46"/>
       <use x="95.410156" xlink:href="#DejaVuSans-56"/>
      </g>
     </g>
    </g>
    <g id="xtick_6">
     <g id="line2d_6">
      <g>
       <use style="stroke:#000000;stroke-width:0.8;" x="413.2625" xlink:href="#mdf30fd73a3" y="260.2"/>
      </g>
     </g>
     <g id="text_6">
      <!-- 1.0 -->
      <defs>
       <path d="M 12.40625 8.296875 
L 28.515625 8.296875 
L 28.515625 63.921875 
L 10.984375 60.40625 
L 10.984375 69.390625 
L 28.421875 72.90625 
L 38.28125 72.90625 
L 38.28125 8.296875 
L 54.390625 8.296875 
L 54.390625 0 
L 12.40625 0 
z
" id="DejaVuSans-49"/>
      </defs>
      <g transform="translate(405.310937 274.798437)scale(0.1 -0.1)">
       <use xlink:href="#DejaVuSans-49"/>
       <use x="63.623047" xlink:href="#DejaVuSans-46"/>
       <use x="95.410156" xlink:href="#DejaVuSans-48"/>
      </g>
     </g>
    </g>
   </g>
   <g id="matplotlib.axis_2">
    <g id="ytick_1">
     <g id="line2d_7">
      <defs>
       <path d="M 0 0 
L -3.5 0 
" id="m20090194e9" style="stroke:#000000;stroke-width:0.8;"/>
      </defs>
      <g>
       <use style="stroke:#000000;stroke-width:0.8;" x="33.675" xlink:href="#m20090194e9" y="260.2"/>
      </g>
     </g>
     <g id="text_7">
      <!-- 0.0 -->
      <g transform="translate(10.771875 263.999219)scale(0.1 -0.1)">
       <use xlink:href="#DejaVuSans-48"/>
       <use x="63.623047" xlink:href="#DejaVuSans-46"/>
       <use x="95.410156" xlink:href="#DejaVuSans-48"/>
      </g>
     </g>
    </g>
    <g id="ytick_2">
     <g id="line2d_8">
      <g>
       <use style="stroke:#000000;stroke-width:0.8;" x="33.675" xlink:href="#m20090194e9" y="211.12"/>
      </g>
     </g>
     <g id="text_8">
      <!-- 0.2 -->
      <g transform="translate(10.771875 214.919219)scale(0.1 -0.1)">
       <use xlink:href="#DejaVuSans-48"/>
       <use x="63.623047" xlink:href="#DejaVuSans-46"/>
       <use x="95.410156" xlink:href="#DejaVuSans-50"/>
      </g>
     </g>
    </g>
    <g id="ytick_3">
     <g id="line2d_9">
      <g>
       <use style="stroke:#000000;stroke-width:0.8;" x="33.675" xlink:href="#m20090194e9" y="162.04"/>
      </g>
     </g>
     <g id="text_9">
      <!-- 0.4 -->
      <g transform="translate(10.771875 165.839219)scale(0.1 -0.1)">
       <use xlink:href="#DejaVuSans-48"/>
       <use x="63.623047" xlink:href="#DejaVuSans-46"/>
       <use x="95.410156" xlink:href="#DejaVuSans-52"/>
      </g>
     </g>
    </g>
    <g id="ytick_4">
     <g id="line2d_10">
      <g>
       <use style="stroke:#000000;stroke-width:0.8;" x="33.675" xlink:href="#m20090194e9" y="112.96"/>
      </g>
     </g>
     <g id="text_10">
      <!-- 0.6 -->
      <g transform="translate(10.771875 116.759219)scale(0.1 -0.1)">
       <use xlink:href="#DejaVuSans-48"/>
       <use x="63.623047" xlink:href="#DejaVuSans-46"/>
       <use x="95.410156" xlink:href="#DejaVuSans-54"/>
      </g>
     </g>
    </g>
    <g id="ytick_5">
     <g id="line2d_11">
      <g>
       <use style="stroke:#000000;stroke-width:0.8;" x="33.675" xlink:href="#m20090194e9" y="63.88"/>
      </g>
     </g>
     <g id="text_11">
      <!-- 0.8 -->
      <g transform="translate(10.771875 67.679219)scale(0.1 -0.1)">
       <use xlink:href="#DejaVuSans-48"/>
       <use x="63.623047" xlink:href="#DejaVuSans-46"/>
       <use x="95.410156" xlink:href="#DejaVuSans-56"/>
      </g>
     </g>
    </g>
    <g id="ytick_6">
     <g id="line2d_12">
      <g>
       <use style="stroke:#000000;stroke-width:0.8;" x="33.675" xlink:href="#m20090194e9" y="14.8"/>
      </g>
     </g>
     <g id="text_12">
      <!-- 1.0 -->
      <g transform="translate(10.771875 18.599219)scale(0.1 -0.1)">
       <use xlink:href="#DejaVuSans-49"/>
       <use x="63.623047" xlink:href="#DejaVuSans-46"/>
       <use x="95.410156" xlink:href="#DejaVuSans-48"/>
      </g>
     </g>
    </g>
   </g>
   <g id="LineCollection_1">
    <path clip-path="url(#ped00553ed9)" d="M 185.126578 260.2 
L 185.126578 257.721212 
L 188.960795 255.242424 
L 188.960795 252.763636 
L 192.795013 250.284848 
L 192.795013 247.806061 
L 196.62923 245.327273 
L 196.62923 240.369697 
L 192.795013 237.890909 
L 192.795013 232.933333 
L 188.960795 230.454545 
L 188.960795 223.018182 
L 185.126578 220.539394 
L 185.126578 215.581818 
L 181.292361 213.10303 
L 181.292361 205.666667 
L 177.458144 203.187879 
L 177.458144 198.230303 
L 173.623927 195.751515 
L 173.623927 193.272727 
L 169.78971 190.793939 
L 169.78971 188.315152 
L 173.623927 185.836364 
L 173.623927 183.357576 
L 177.458144 180.878788 
L 177.458144 175.921212 
L 181.292361 173.442424 
L 181.292361 163.527273 
L 187.043687 159.809091 
L 194.712121 159.809091 
L 198.546338 157.330303 
L 206.214773 157.330303 
L 210.04899 154.851515 
L 217.717424 154.851515 
L 227.302967 148.654545 
L 227.302967 146.175758 
L 231.137184 143.69697 
L 231.137184 126.345455 
L 215.800316 116.430303 
L 215.800316 96.6 
L 217.717424 95.360606 
L 221.551641 95.360606 
L 227.302967 91.642424 
L 227.302967 89.163636 
L 231.137184 86.684848 
L 227.302967 84.206061 
L 227.302967 81.727273 
L 219.634533 76.769697 
L 219.634533 74.290909 
L 211.966098 69.333333 
L 211.966098 66.854545 
L 208.131881 64.375758 
L 208.131881 61.89697 
L 177.458144 42.066667 
L 181.292361 39.587879 
L 181.292361 17.278788 
L 177.458144 14.8 
L 177.458144 14.8 
" style="fill:none;stroke:#440154;stroke-width:1.5;"/>
   </g>
   <g id="patch_3">
    <path d="M 33.675 260.2 
L 33.675 14.8 
" style="fill:none;stroke:#000000;stroke-linecap:square;stroke-linejoin:miter;stroke-width:0.8;"/>
   </g>
   <g id="patch_4">
    <path d="M 413.2625 260.2 
L 413.2625 14.8 
" style="fill:none;stroke:#000000;stroke-linecap:square;stroke-linejoin:miter;stroke-width:0.8;"/>
   </g>
   <g id="patch_5">
    <path d="M 33.675 260.2 
L 413.2625 260.2 
" style="fill:none;stroke:#000000;stroke-linecap:square;stroke-linejoin:miter;stroke-width:0.8;"/>
   </g>
   <g id="patch_6">
    <path d="M 33.675 14.8 
L 413.2625 14.8 
" style="fill:none;stroke:#000000;stroke-linecap:square;stroke-linejoin:miter;stroke-width:0.8;"/>
   </g>
  </g>
 </g>
 <defs>
  <clipPath id="ped00553ed9">
   <rect height="245.4" width="379.5875" x="33.675" y="14.8"/>
  </clipPath>
 </defs>
</svg>
